SplineFontDB: 3.2
FontName: ArialNarrow
FullName: Arial Narrow
FamilyName: Arial Narrow
Weight: Book
Copyright: Typeface (c) The Monotype Corporation plc. Data (c) The Monotype Corporation plc/Type Solutions Inc.1990-1991 All Rights Reserved.
Version: 2.20
ItalicAngle: 0
UnderlinePosition: -292
UnderlineWidth: 150
Ascent: 1638
Descent: 410
InvalidEm: 0
sfntRevision: 0x00020000
LayerCount: 2
Layer: 0 1 "Back" 1
Layer: 1 1 "Fore" 0
XUID: [1021 976 883080892 3228551]
StyleMap: 0x0040
FSType: 0
OS2Version: 1
OS2_WeightWidthSlopeOnly: 0
OS2_UseTypoMetrics: 0
CreationTime: 653920317
ModificationTime: 1721758201
PfmFamily: 17
TTFWeight: 400
TTFWidth: 3
LineGap: 0
VLineGap: 0
Panose: 2 11 5 6 2 2 2 3 2 4
OS2TypoAscent: 1491
OS2TypoAOffset: 0
OS2TypoDescent: -431
OS2TypoDOffset: 0
OS2TypoLinegap: 269
OS2WinAscent: 1888
OS2WinAOffset: 0
OS2WinDescent: 431
OS2WinDOffset: 0
HheadAscent: 1916
HheadAOffset: 0
HheadDescent: -434
HheadDOffset: 0
OS2SubXSize: 1434
OS2SubYSize: 1331
OS2SubXOff: 0
OS2SubYOff: 147
OS2SupXSize: 1434
OS2SupYSize: 1331
OS2SupXOff: 0
OS2SupYOff: 523
OS2StrikeYSize: 102
OS2StrikeYPos: 530
OS2FamilyClass: 2053
OS2Vendor: 'MONO'
OS2CodePages: 2000009f.dfd70000
OS2UnicodeRanges: 00000287.00000000.00000000.00000000
Lookup: 258 0 0 "'kern' Horizontal Kerning in Latin lookup 0" { "'kern' Horizontal Kerning in Latin lookup 0 subtable"  } ['kern' ('DFLT' <'dflt' > 'latn' <'dflt' > ) ]
DEI: 91125
TtTable: prep
NPUSHB
 11
 111
 50
 1
 219
 187
 80
 31
 109
 156
 80
 31
PUSHW_3
 544
 96
 2048
PUSHB_3
 31
 201
 96
PUSHW_1
 2048
PUSHB_3
 31
 95
 96
NPUSHW
 41
 2048
 31
 32
 558
 1
 47
 369
 159
 369
 175
 369
 191
 369
 223
 369
 239
 369
 255
 369
 7
 0
 369
 16
 369
 95
 369
 127
 369
 143
 369
 175
 369
 6
 0
 369
 79
 369
 159
 369
 3
 540
NPUSHB
 48
 247
 54
 31
 48
 247
 64
 247
 80
 247
 112
 247
 128
 247
 144
 247
 160
 247
 192
 247
 8
 16
 247
 64
 247
 111
 247
 208
 247
 4
 0
 247
 16
 247
 48
 247
 80
 247
 128
 247
 5
 9
 16
 247
 96
 247
 2
 57
 79

StartChar: .notdef
Encoding: 65536 -1 0
Width: 467
GlyphClass: 1
Flags: W
LayerCount: 2
Fore
SplineSet
19 -25 m 1
 19 1305 l 1
 458 1305 l 1
 458 -25 l 1
 19 -25 l 1
116 1212 m 1
 116 78 l 1
 362 78 l 1
 362 1212 l 1
 116 1212 l 1
EndSplineSet
EndChar

StartChar: exclam
Encoding: 33 33 4
Width: 467
GlyphClass: 1
Flags: W
LayerCount: 2
Fore
SplineSet
123 1491 m 1
 356 1491 l 1
 356 1140.31408243 l 2
 355.963106638 751.13155523 355.963106638 751.13155523 313.963106638 362.63155523 c 1
 312.685725274 339 l 1
 169.405329122 339 l 1
 123.042318918 1139.53464287 l 1
 123 1141 l 1
 123 1491 l 1
130 -25 m 1
 130 230 l 1
 349 230 l 1
 349 -25 l 1
 130 -25 l 1
EndSplineSet
EndChar

StartChar: quotedbl
Encoding: 34 34 5
Width: 596
GlyphClass: 1
Flags: W
LayerCount: 2
Fore
SplineSet
51 1224.15359539 m 1
 51 1491 l 1
 269 1491 l 1
 269 1224.33088252 l 1
 228.905940311 922 l 1
 95.4024996816 922 l 1
 51 1224.15359539 l 1
324 1224.24214802 m 1
 324 1491 l 1
 542 1491 l 1
 542 1224.19784872 l 1
 498.674143553 922 l 1
 366.248902412 922 l 1
 324 1224.24214802 l 1
EndSplineSet
EndChar

StartChar: numbersign
Encoding: 35 35 6
Width: 934
GlyphClass: 1
Flags: W
LayerCount: 2
Fore
SplineSet
52.4851745224 -50 m 1
 123.485174522 376 l 1
 -10 376 l 1
 -10 575 l 1
 156.847227067 575 l 1
 209.44502321 888 l 1
 -10 888 l 1
 -10 1087 l 1
 241.842811676 1087 l 1
 313.842811676 1516 l 1
 487.548796716 1516 l 1
 415.548796716 1087 l 1
 623.794171579 1087 l 1
 694.794171579 1516 l 1
 869.548796716 1516 l 1
 797.548796716 1087 l 1
 936 1087 l 1
 936 888 l 1
 765.152772933 888 l 1
 712.55497679 575 l 1
 936 575 l 1
 936 376 l 1
 679.181492144 376 l 1
 608.181492144 -50 l 1
 433.485174522 -50 l 1
 504.485174522 376 l 1
 297.181492144 376 l 1
 226.181492144 -50 l 1
 52.4851745224 -50 l 1
383.152772933 888 m 1
 330.55497679 575 l 1
 537.847227067 575 l 1
 590.44502321 888 l 1
 383.152772933 888 l 1
EndSplineSet
EndChar

StartChar: dollar
Encoding: 36 36 7
Width: 1034
GlyphClass: 1
Flags: W
LayerCount: 2
Fore
SplineSet
589.565901206 -31.76953125 m 1,0,1
 589.565901206 -99.462890625 589.565901206 -99.462890625 589.565901206 -211 c 1,2,-1
 432.167463624 -211 l 1,3,4
 432.167463624 -99.578125 432.167463624 -99.578125 432.167463624 -32.0068359375 c 1,5,6
 305.762635389 -11.923828125 305.762635389 -11.923828125 237.866210938 34.265625 c 0,7,8
 163.581054688 85.078125 163.581054688 85.078125 115.071289062 181.544921875 c 128,-1,9
 66.5615234375 278.01171875 66.5615234375 278.01171875 58.263671875 413.263671875 c 2,10,11
 57.6318359375 430.85546875 57.6318359375 430.85546875 57 433.870117188 c 1,12,13
 155.403320312 462.146484375 155.403320312 462.146484375 253.806640625 477.573242188 c 1,14,15
 255.427734375 470.326171875 255.427734375 470.326171875 257.047851562 450.6796875 c 2,16,17
 275.245117188 299.689453125 275.245117188 299.689453125 332.141620877 232.516601562 c 0,18,19
 377.79999917 182.043945312 377.79999917 182.043945312 432.167463624 166.639648438 c 1,20,21
 432.167463624 428.177734375 432.167463624 428.177734375 432.167463624 674.991210938 c 1,22,23
 326.09571735 699.522460938 326.09571735 699.522460938 232.651367188 763.788085938 c 0,24,25
 163.155273438 812.397460938 163.155273438 812.397460938 123.6875 898.037109375 c 128,-1,26
 84.21875 983.676757812 84.21875 983.676757812 84.21875 1097.42578125 c 128,-1,27
 84.21875 1211.17480469 84.21875 1211.17480469 128.736328125 1306.58496094 c 128,-1,28
 173.252929688 1401.99609375 173.252929688 1401.99609375 246.825195312 1452.53417969 c 0,29,30
 314.528527201 1498.04589844 314.528527201 1498.04589844 432.167463624 1514.09570312 c 1,31,32
 432.167463624 1534.38574219 432.167463624 1534.38574219 432.167463624 1601 c 1,33,-1
 589.565901206 1601 l 1,34,35
 589.565901206 1534.40625 589.565901206 1534.40625 589.565901206 1514.13769531 c 1,36,37
 686.05754132 1500.75878906 686.05754132 1500.75878906 749.485351562 1461.70996094 c 0,38,39
 818.053710938 1417.57519531 818.053710938 1417.57519531 863.740234375 1338.47851562 c 128,-1,40
 909.426757812 1259.38183594 909.426757812 1259.38183594 924.028320312 1144.69140625 c 2,41,42
 925.479492188 1121.52636719 925.479492188 1121.52636719 926.9296875 1121.90039062 c 1,43,44
 826.3046875 1092.8828125 826.3046875 1092.8828125 725.6796875 1085.82324219 c 1,45,46
 724.045898438 1087.77246094 724.045898438 1087.77246094 722.411132812 1111.3984375 c 2,47,48
 701.481946633 1268.42382812 701.481946633 1268.42382812 589.565901206 1311.08789062 c 1,49,50
 589.565901206 1074.05957031 589.565901206 1074.05957031 589.565901206 857.950195312 c 1,51,52
 689.128388045 831.517578125 689.128388045 831.517578125 719.942382812 818.1875 c 0,53,54
 790.124023438 786.083984375 790.124023438 786.083984375 841.999023438 733.000976562 c 128,-1,55
 893.873046875 679.91796875 893.873046875 679.91796875 924.045898438 601.100585938 c 128,-1,56
 954.21875 522.284179688 954.21875 522.284179688 954.21875 424.46484375 c 0,57,58
 954.21875 225.888671875 954.21875 225.888671875 847.418945312 101.375 c 0,59,60
 747.756835938 -14.81640625 747.756835938 -14.81640625 589.565901206 -31.76953125 c 1,0,1
432.167463624 1332.70410156 m 1,61,62
 370.63914549 1314.46972656 370.63914549 1314.46972656 329.933997297 1267.828125 c 0,63,64
 281.21875 1208.53808594 281.21875 1208.53808594 281.21875 1116.51855469 c 128,-1,65
 281.21875 1024.49902344 281.21875 1024.49902344 336.265042921 966.315429688 c 0,66,67
 372.556057791 929.95703125 372.556057791 929.95703125 432.167463624 904.750976562 c 1,68,-1
 432.167463624 1332.70410156 l 1,61,62
698.604907427 224.626953125 m 0,69,70
 752.21875 293.430664062 752.21875 293.430664062 752.21875 408 c 0,71,72
 752.21875 498.9375 752.21875 498.9375 714.420898438 551.41015625 c 0,73,74
 679.396800146 595.059570312 679.396800146 595.059570312 589.565901206 631.29296875 c 1,75,-1
 589.565901206 152.616210938 l 1,76,77
 651.58096581 170.493164062 651.58096581 170.493164062 698.604907427 224.626953125 c 0,69,70
EndSplineSet
EndChar

StartChar: percent
Encoding: 37 37 8
Width: 1593
GlyphClass: 1
Flags: W
LayerCount: 2
Fore
SplineSet
173 796.216796875 m 0,0,1
 94 898.185546875 94 898.185546875 94 1101.18164062 c 0,2,3
 94 1286.734375 94 1286.734375 172.012695312 1387.25390625 c 0,4,5
 252.529296875 1491 252.529296875 1491 372.836609914 1491 c 0,6,7
 502.186873883 1491 502.186873883 1491 590.6186139 1387.62988281 c 0,8,9
 676.709434672 1286.99707031 676.709434672 1286.99707031 676.709434672 1093.5078125 c 128,-1,10
 676.709434672 900.018554688 676.709434672 900.018554688 590.819205037 797.03125 c 0,11,12
 502.388498995 691 502.388498995 691 375.946806509 691 c 0,13,14
 254.516601562 691 254.516601562 691 173 796.216796875 c 0,0,1
453.097880021 1272.22070312 m 0,15,16
 421.72087674 1317 421.72087674 1317 378.130561565 1317 c 0,17,18
 334.868164062 1317 334.868164062 1317 305.725585938 1272.74121094 c 0,19,20
 273 1223.0390625 273 1223.0390625 273 1090.52636719 c 128,-1,21
 273 958.0625 273 958.0625 305.674804688 908.86328125 c 0,22,23
 334.8046875 865 334.8046875 865 381.306932556 865 c 0,24,25
 422.739342048 865 422.739342048 865 453.595221963 909.258789062 c 0,26,27
 488.244755903 958.9609375 488.244755903 958.9609375 488.244755903 1090.52636719 c 128,-1,28
 488.244755903 1222.06152344 488.244755903 1222.06152344 453.097880021 1272.22070312 c 0,15,16
338.17578125 -54 m 1,29,30
 697.698091813 718.5 697.698091813 718.5 1057.31353912 1491 c 1,31,32
 1149.57925818 1466 1149.57925818 1466 1241.75683594 1491 c 1,33,34
 883.870448159 718.5 883.870448159 718.5 525.894885094 -54 c 1,35,36
 431.988247813 -29 431.988247813 -29 338.17578125 -54 c 1,29,30
986.896744338 51.7490234375 m 0,37,38
 903.290565328 154.188476562 903.290565328 154.188476562 903.290565328 356.181640625 c 0,39,40
 903.290565328 541.734375 903.290565328 541.734375 985.889652755 642.25390625 c 0,41,42
 1071.13985191 746 1071.13985191 746 1195.51669645 746 c 0,43,44
 1321.12890625 746 1321.12890625 746 1404.65039062 643.163085938 c 0,45,46
 1486 543 1486 543 1486 348.98828125 c 128,-1,47
 1486 154.975585938 1486 154.975585938 1404.33007812 51.970703125 c 0,48,49
 1320.30957031 -54 1320.30957031 -54 1199.10975934 -54 c 0,50,51
 1073.20366587 -54 1073.20366587 -54 986.896744338 51.7490234375 c 0,37,38
1307 346.473632812 m 128,-1,53
 1307 478.0390625 1307 478.0390625 1274.27441406 527.741210938 c 0,54,55
 1245.13183594 572 1245.13183594 572 1201.34004327 572 c 0,56,57
 1157.26065795 572 1157.26065795 572 1126.40477804 527.741210938 c 0,58,59
 1091.7552441 478.0390625 1091.7552441 478.0390625 1091.7552441 345.526367188 c 128,-1,60
 1091.7552441 213.141601562 1091.7552441 213.141601562 1126.79251864 163.986328125 c 0,61,62
 1158.14574049 120 1158.14574049 120 1205.04580943 120 c 0,63,64
 1245.06933594 120 1245.06933594 120 1274.22363281 164.65625 c 0,65,52
 1307 214.860351562 1307 214.860351562 1307 346.473632812 c 128,-1,53
EndSplineSet
EndChar

StartChar: ampersand
Encoding: 38 38 9
Width: 1120
GlyphClass: 1
Flags: W
LayerCount: 2
Fore
SplineSet
48 405 m 0
 48 678.921935699 48 678.921935699 323.119431194 849.622428309 c 1
 255.029657765 948.192057853 255.029657765 948.192057853 227.014828882 1019.72992446 c 0
 199 1091.26779107 199 1091.26779107 199 1164 c 0
 199 1312.82788614 199 1312.82788614 293.561489162 1414.41394307 c 0
 388.122978324 1516 388.122978324 1516 522 1516 c 0
 651.002610246 1516 651.002610246 1516 739.001305123 1419.85327782 c 0
 827 1323.70655564 827 1323.70655564 827 1178 c 0
 827 965.525517457 827 965.525517457 609.285707609 813.957418192 c 1
 784.876704019 541.6287895 l 1
 807.566444031 609.550768118 807.566444031 609.550768118 823.423679713 694.603214047 c 2
 828.342215566 720.984451806 l 1
 1030.26021117 668.195433348 l 1
 1025.48974748 644.954712815 l 2
 987.707694558 460.888301145 987.707694558 460.888301145 923.754608253 335.108340549 c 1
 1000.14626814 214.067142855 1000.14626814 214.067142855 1098.47558178 127.7970845 c 2
 1115.2366314 113.091635306 l 1
 988.325609675 -70.2242849627 l 1
 967.427266471 -53.5525729686 l 2
 884.834295949 12.3362012678 884.834295949 12.3362012678 798.190546435 131.103086418 c 1
 651.165964121 -50 651.165964121 -50 455 -50 c 0
 263.578288927 -50 263.578288927 -50 154.560078171 93.9255196195 c 0
 48 234.605819864 48 234.605819864 48 405 c 0
626 1173 m 0
 626 1241.65739622 626 1241.65739622 592.807563574 1279.82869811 c 0
 559.615127148 1318 559.615127148 1318 514.280664695 1318 c 0
 468.946202242 1318 468.946202242 1318 434.473101121 1280.6195289 c 0
 400 1243.23905781 400 1243.23905781 400 1181.5914003 c 0
 400 1119.9437428 400 1119.9437428 453.424052121 1044.41318635 c 2
 504.546590717 972.376923452 l 1
 575.613832425 1027.15146181 575.613832425 1027.15146181 599.435726591 1067.6486819 c 0
 626 1112.80794669 626 1112.80794669 626 1173 c 0
257 416 m 0
 257 323.703731363 257 323.703731363 314.675003448 239.051710173 c 0
 369.21572906 159 369.21572906 159 456 159 c 0
 512.214326683 159 512.214326683 159 574.74679686 202.156211812 c 0
 637.279267036 245.312423623 637.279267036 245.312423623 676.802250692 313.853819703 c 1
 429.725519796 688.129312061 l 1
 336.446413477 616.718020444 336.446413477 616.718020444 298.337107634 554.472820901 c 0
 257 486.955545099 257 486.955545099 257 416 c 0
EndSplineSet
EndChar

StartChar: quotesingle
Encoding: 39 39 10
Width: 322
GlyphClass: 1
Flags: W
LayerCount: 2
Fore
SplineSet
46 1219.25573796 m 1
 46 1491 l 1
 264 1491 l 1
 264 1219.21061645 l 1
 221.696299119 922 l 1
 87.2252483305 922 l 1
 46 1219.25573796 l 1
EndSplineSet
EndChar

StartChar: parenleft
Encoding: 40 40 11
Width: 559
GlyphClass: 1
Flags: W
LayerCount: 2
Fore
SplineSet
76 532 m 0
 76 1025.07351725 76 1025.07351725 370.691196563 1504.07329723 c 2
 378.028766341 1516 l 1
 537.612005701 1516 l 1
 520.581760149 1480.26689549 l 2
 409.265091329 1246.70067074 409.265091329 1246.70067074 367.323095159 1118.90094123 c 0
 325.38109899 991.101211727 325.38109899 991.101211727 301.192709388 838.072624449 c 0
 277 685.016707915 277 685.016707915 277 530 c 0
 277 56.0262031749 277 56.0262031749 520.272847456 -419.641437583 c 2
 538.867871062 -456 l 1
 378.314217558 -456 l 1
 370.923281399 -444.44326346 l 2
 259.409716157 -270.07659781 259.409716157 -270.07659781 167.704858078 -14.7216338785 c 0
 76 240.633330053 76 240.633330053 76 532 c 0
EndSplineSet
EndChar

StartChar: parenright
Encoding: 41 41 12
Width: 559
GlyphClass: 1
Flags: W
LayerCount: 2
Fore
SplineSet
180.606694634 -456 m 1
 20.2076804149 -456 l 1
 38.7084625762 -419.678056246 l 2
 281 56.0045131447 281 56.0045131447 281 530 c 0
 281 685.016707915 281 685.016707915 256.807290612 838.072624449 c 0
 232.612101444 991.144229395 232.612101444 991.144229395 191.164150709 1118.94207749 c 0
 149.716199974 1246.73992559 149.716199974 1246.73992559 38.4182398509 1480.26689549 c 2
 21.3879942991 1516 l 1
 180.971233659 1516 l 1
 188.308803437 1504.07329723 l 2
 483 1025.07351725 483 1025.07351725 483 532 c 0
 483 248.783611187 483 248.783611187 394.824944304 -6.11324522093 c 0
 306.649888609 -261.010101628 306.649888609 -261.010101628 188.010840186 -444.545723547 c 2
 180.606694634 -456 l 1
EndSplineSet
EndChar

StartChar: asterisk
Encoding: 42 42 13
Width: 653
GlyphClass: 1
Flags: W
LayerCount: 2
Fore
SplineSet
405.526356688 1516 m 1
 404.994485932 1490.47020369 l 2
 403.304467869 1409.34933669 403.304467869 1409.34933669 391.11276826 1289.46589332 c 1
 460.060711385 1327.5856476 460.060711385 1327.5856476 544.549918656 1362.14941421 c 2
 570.81442328 1372.89398428 l 1
 621.891663509 1182.02640237 l 1
 601.270222773 1173.77782608 l 2
 516.846506938 1140.00833974 516.846506938 1140.00833974 435.998470093 1123.84511142 c 1
 481.250406927 1068.31422885 481.250406927 1068.31422885 562.041805212 947.571040203 c 1
 424.969984337 828.682215975 l 1
 409.596625928 854.081677695 l 2
 371.314704031 917.330070394 371.314704031 917.330070394 319.131134317 1022.70549542 c 1
 270.851323795 915.929379786 270.851323795 915.929379786 232.247869466 853.828170647 c 2
 216.60038917 828.656137129 l 1
 82.2773510173 947.587993827 l 1
 162.98053531 1071.33287641 162.98053531 1071.33287641 206.053541194 1126.13154349 c 1
 119.776765003 1147.65900912 119.776765003 1147.65900912 42.173664897 1173.25152086 c 2
 19.7399680553 1180.64986769 l 1
 71.3232967396 1373.40862225 l 1
 97.8722494195 1361.97215033 l 2
 191.154574414 1321.78899494 191.154574414 1321.78899494 248.13528139 1289.39514177 c 1
 236.877644008 1433.75727264 236.877644008 1433.75727264 236.003009676 1490.60850418 c 2
 235.612371279 1516 l 1
 405.526356688 1516 l 1
EndSplineSet
EndChar

StartChar: plus
Encoding: 43 43 14
Width: 981
GlyphClass: 1
Flags: W
LayerCount: 2
Fore
SplineSet
584 614 m 1
 584 212 l 1
 394 212 l 1
 394 614 l 1
 67 614 l 1
 67 832 l 1
 394 832 l 1
 394 1231 l 1
 584 1231 l 1
 584 832 l 1
 911 832 l 1
 911 614 l 1
 584 614 l 1
EndSplineSet
EndChar

StartChar: comma
Encoding: 44 44 15
Width: 467
GlyphClass: 1
Flags: W
LayerCount: 2
Fore
SplineSet
127 -25 m 1
 127 230 l 1
 345 230 l 1
 345 0 l 2
 345 -125.099902865 345 -125.099902865 306.819767449 -198.733208499 c 0
 268.639534899 -272.366514132 268.639534899 -272.366514132 194.806886833 -312.037787719 c 2
 172.726792417 -323.901719047 l 1
 108.189417722 -202.697381207 l 1
 130.261161588 -190.925784478 l 2
 168.045881254 -170.77393399 168.045881254 -170.77393399 187.484944804 -130.628041874 c 0
 204.828225052 -94.8103978838 204.828225052 -94.8103978838 208.988949654 -25 c 1
 127 -25 l 1
EndSplineSet
EndChar

StartChar: hyphen
Encoding: 45 45 16
AltUni2: 0000ad.ffffffff.0 0000ad.ffffffff.0
Width: 579
GlyphClass: 1
Flags: W
LayerCount: 2
Fore
SplineSet
-221 166 m 1
 -221 895 l 1
 790 895 l 1
 790 166 l 1
 -221 166 l 1
EndSplineSet
EndChar

StartChar: period
Encoding: 46 46 17
Width: 467
GlyphClass: 1
Flags: W
LayerCount: 2
Fore
SplineSet
130 -25 m 1
 130 230 l 1
 348 230 l 1
 348 -25 l 1
 130 -25 l 1
EndSplineSet
EndChar

StartChar: slash
Encoding: 47 47 18
Width: 467
GlyphClass: 1
Flags: W
LayerCount: 2
Fore
SplineSet
328.084034914 1516 m 1
 498.413732558 1516 l 1
 137.903178469 -50 l 1
 -31.3935376452 -50 l 1
 328.084034914 1516 l 1
EndSplineSet
EndChar

StartChar: zero
Encoding: 48 48 19
Width: 1034
GlyphClass: 1
Flags: W
LayerCount: 2
Fore
SplineSet
180.541015625 148.577148438 m 0,0,1
 67 317.146484375 67 317.146484375 67 723.016601562 c 0,2,3
 67 1086.04394531 67 1086.04394531 169.337890625 1275.14746094 c 0,4,5
 216.208007812 1361.75585938 216.208007812 1361.75585938 283.68359375 1410.46386719 c 0,6,7
 377.130120737 1472 377.130120737 1472 510.145993927 1472 c 0,8,9
 720.647460938 1472 720.647460938 1472 827.022460938 1311.875 c 0,10,11
 951 1125.921875 951 1125.921875 951 723.016601562 c 0,12,13
 951 361.962890625 951 361.962890625 849.198242188 172.403320312 c 0,14,15
 802.551757812 85.544921875 802.551757812 85.544921875 734.978515625 36.6953125 c 0,16,17
 641.517858251 -25 641.517858251 -25 507.854006073 -25 c 0,18,19
 297.455078125 -25 297.455078125 -25 180.541015625 148.577148438 c 0,0,1
502.12403644 1273 m 0,20,21
 404.484010928 1273 404.484010928 1273 335.304699818 1167.78125 c 0,22,23
 268 1055.4765625 268 1055.4765625 268 722.21484375 c 0,24,25
 268 387.799804688 268 387.799804688 336.290657484 277.022460938 c 0,26,27
 406.554410112 173 406.554410112 173 512.43798178 173 c 0,28,29
 611.284434493 173 611.284434493 173 681.019955545 278.283203125 c 0,30,31
 749 390.563476562 749 390.563476562 749 723 c 0,32,33
 749 1059.13476562 749 1059.13476562 680.587969553 1169.41894531 c 0,34,35
 610.333170003 1273 610.333170003 1273 502.12403644 1273 c 0,20,21
EndSplineSet
EndChar

StartChar: one
Encoding: 49 49 20
Width: 984
GlyphClass: 1
Flags: W
LayerCount: 2
Fore
SplineSet
673 1472 m 1,0,1
 673 736 673 736 673 0 c 1,2,-1
 475 0 l 1,3,4
 475 542.665039062 475 542.665039062 475 1072.59667969 c 1,5,6
 433.482421875 1034.30664062 433.482421875 1034.30664062 377.674804688 995.095703125 c 0,7,8
 289.5390625 933.169921875 289.5390625 933.169921875 215.133789062 901.198242188 c 2,9,10
 197.56640625 888.154296875 197.56640625 888.154296875 180 886.1015625 c 1,11,12
 180 986.923828125 180 986.923828125 180 1105.51953125 c 1,13,14
 186.29296875 1096.36523438 186.29296875 1096.36523438 192.584960938 1112.50097656 c 2,15,16
 311.262695312 1178.33398438 311.262695312 1178.33398438 401.86328125 1272.953125 c 128,-1,17
 492.463867188 1367.57226562 492.463867188 1367.57226562 528.745117188 1456.1875 c 2,18,19
 531.874023438 1439.09375 531.874023438 1439.09375 535.00390625 1472 c 1,20,-1
 673 1472 l 1,0,1
EndSplineSet
EndChar

StartChar: two
Encoding: 50 50 21
Width: 1034
GlyphClass: 1
Flags: W
LayerCount: 2
Fore
SplineSet
325.896980541 223 m 1,0,-1
 945 223 l 1,1,2
 945 136.5 945 136.5 945 0 c 1,3,-1
 50.7041015625 0 l 1,4,5
 49.8701171875 28.0693359375 49.8701171875 28.0693359375 49.8701171875 32.822265625 c 0,6,7
 49.8701171875 136.286132812 49.8701171875 136.286132812 117.198242188 262.928710938 c 128,-1,8
 184.525390625 389.572265625 184.525390625 389.572265625 374.088753506 562.619140625 c 0,9,10
 607.588399074 758.509765625 607.588399074 758.509765625 677.816747765 862.579101562 c 0,11,12
 742 966.647460938 742 966.647460938 742 1053.6171875 c 0,13,14
 742 1151.94042969 742 1151.94042969 681.336803716 1212.47070312 c 0,15,16
 614.62628168 1273 614.62628168 1273 517.483660986 1273 c 0,17,18
 412.925292275 1273 412.925292275 1273 345.35760652 1204.83300781 c 0,19,20
 280 1136.66699219 280 1136.66699219 280 1004 c 2,21,22
 280 964.838867188 280 964.838867188 280 975.677734375 c 1,23,24
 178.134765625 963.411132812 178.134765625 963.411132812 76.26953125 1001.14453125 c 1,25,26
 77.1708984375 988.029296875 77.1708984375 988.029296875 78.072265625 1024.91308594 c 2,27,28
 94.7548828125 1244.91699219 94.7548828125 1244.91699219 205.098632812 1358.45800781 c 0,29,30
 318.242698016 1472 318.242698016 1472 523.190654801 1472 c 0,31,32
 741.375976562 1472 741.375976562 1472 843.395507812 1343.28613281 c 0,33,34
 943 1217.61816406 943 1217.61816406 943 1057.58984375 c 0,35,36
 943 916.55078125 943 916.55078125 866.56640625 788.93359375 c 128,-1,37
 790.131835938 661.315429688 790.131835938 661.315429688 564.136106128 453.307617188 c 0,38,39
 414.559365113 324.440429688 414.559365113 324.440429688 371.576338651 278.357421875 c 0,40,41
 345.717637575 250.6328125 345.717637575 250.6328125 325.896980541 223 c 1,0,-1
EndSplineSet
EndChar

StartChar: three
Encoding: 51 51 22
Width: 1034
GlyphClass: 1
Flags: W
LayerCount: 2
Fore
SplineSet
267.432617188 439.966796875 m 2,0,1
 287.00390625 317.430664062 287.00390625 317.430664062 334.835444483 250.91015625 c 0,2,3
 395.369047026 173 395.369047026 173 498.459613277 173 c 128,-1,4
 601.551296715 173 601.551296715 173 678.439384116 247.06640625 c 0,5,6
 749.74609375 321.1328125 749.74609375 321.1328125 749.74609375 441.96875 c 0,7,8
 749.74609375 555.125976562 749.74609375 555.125976562 685.333538503 622.0625 c 0,9,10
 615.340722674 689 615.340722674 689 515.08780869 689 c 0,11,12
 471.556658848 689 471.556658848 689 404.889705539 670.201171875 c 2,13,-1
 362.959483137 658.377929688 l 1,14,-1
 390.119390331 871.241210938 l 1,15,16
 404.092034783 862.795898438 404.092034783 862.795898438 418.064679235 869.204101562 c 1,17,18
 430.586099162 860.943359375 430.586099162 860.943359375 443.107519088 867.37890625 c 1,19,20
 555.220478927 867.680664062 555.220478927 867.680664062 624.291616362 924.731445312 c 128,-1,21
 693.551558219 981.938476562 693.551558219 981.938476562 693.551558219 1079.31933594 c 0,22,23
 693.551558219 1168.81445312 693.551558219 1168.81445312 636.334880709 1221.40722656 c 128,-1,24
 579.118203199 1274 579.118203199 1274 496.301210057 1274 c 128,-1,25
 413.483099728 1274 413.483099728 1274 353.824253771 1215.61035156 c 0,26,27
 296.631835938 1157.22070312 296.631835938 1157.22070312 281.565429688 1031.98828125 c 2,28,29
 279.92578125 993.354492188 279.92578125 993.354492188 278.286132812 1004.72167969 c 1,30,31
 179.927734375 1001.1328125 179.927734375 1001.1328125 81.5693359375 1047.54394531 c 1,32,33
 83.2939453125 1034.12597656 83.2939453125 1034.12597656 85.01953125 1070.70800781 c 2,34,35
 114.250976562 1266.97363281 114.250976562 1266.97363281 218.899414062 1369.48730469 c 0,36,37
 324.957286472 1472 324.957286472 1472 495.639835985 1472 c 0,38,39
 674.983928028 1472 674.983928028 1472 788.630859375 1360.19824219 c 0,40,41
 897.74609375 1248.39550781 897.74609375 1248.39550781 897.74609375 1080.08105469 c 0,42,43
 897.74609375 976.94921875 897.74609375 976.94921875 851.028320312 896.924804688 c 0,44,45
 816.979492188 838.6015625 816.979492188 838.6015625 762.971679688 798.16796875 c 1,46,47
 809.684570312 777.841796875 809.684570312 777.841796875 844.227539062 745.125976562 c 0,48,49
 895.201171875 696.848632812 895.201171875 696.848632812 925.973632812 617.782226562 c 128,-1,50
 956.74609375 538.715820312 956.74609375 538.715820312 956.74609375 442.3671875 c 0,51,52
 956.74609375 237.416992188 956.74609375 237.416992188 830.703125 105.708007812 c 0,53,54
 703.750348593 -26 703.750348593 -26 501.359827957 -26 c 0,55,56
 313.061523438 -26 313.061523438 -26 199.293945312 93.083984375 c 128,-1,57
 85.525390625 212.16796875 85.525390625 212.16796875 69.8251953125 409.999023438 c 2,58,59
 68.912109375 446.49609375 68.912109375 446.49609375 68 432.9921875 c 1,60,61
 165.741210938 473.842773438 165.741210938 473.842773438 263.483398438 464.692382812 c 1,62,63
 265.458007812 477.330078125 265.458007812 477.330078125 267.432617188 439.966796875 c 2,0,1
EndSplineSet
EndChar

StartChar: four
Encoding: 52 52 23
Width: 1034
GlyphClass: 1
Flags: W
LayerCount: 2
Fore
SplineSet
951 326 m 1,0,-1
 788 326 l 1,1,-1
 788 0 l 1,2,-1
 590 0 l 1,3,-1
 590 326 l 1,4,-1
 19 326 l 1,5,-1
 19 518.483398438 l 1,6,7
 303.143095117 977.9453125 303.143095117 977.9453125 618.755151512 1466 c 1,8,-1
 788 1466 l 1,9,-1
 788 541 l 1,10,-1
 951 541 l 1,11,-1
 951 326 l 1,0,-1
231.983398438 541 m 1,12,-1
 575.243802499 541 l 1,13,-1
 575.243802499 1082.48730469 l 1,14,-1
 231.983398438 541 l 1,12,-1
EndSplineSet
EndChar

StartChar: five
Encoding: 53 53 24
Width: 1034
GlyphClass: 1
Flags: W
LayerCount: 2
Fore
SplineSet
352.552877312 234.557617188 m 0,0,1
 417.602745964 173 417.602745964 173 500.922773159 173 c 0,2,3
 606.791061462 173 606.791061462 173 686.090139799 257.877929688 c 0,4,5
 759.82421875 342.755859375 759.82421875 342.755859375 759.82421875 494.9140625 c 0,6,7
 759.82421875 636.958984375 759.82421875 636.958984375 689.265041832 712.479492188 c 0,8,9
 613.140865528 788 613.140865528 788 499.782836385 788 c 0,10,11
 431.755105552 788 431.755105552 788 371.85053746 754.313476562 c 128,-1,12
 312.044921875 720.626953125 312.044921875 720.626953125 281.1328125 659.711914062 c 2,13,-1
 272.885742188 643.459960938 l 1,14,-1
 91.2900390625 672.202148438 l 1,15,-1
 215.40625 1446 l 1,16,-1
 908.82421875 1446 l 1,17,18
 908.82421875 1310 908.82421875 1310 908.82421875 1224 c 1,19,-1
 384.896356859 1224 l 1,20,-1
 326.302048126 937.427734375 l 1,21,22
 430.883454679 997 430.883454679 997 545.380307377 997 c 0,23,24
 729.225585938 997 729.225585938 997 847.525390625 863.918945312 c 128,-1,25
 965.82421875 730.837890625 965.82421875 730.837890625 965.82421875 510.994140625 c 128,-1,26
 965.82421875 291.149414062 965.82421875 291.149414062 849.564453125 134.91796875 c 0,27,28
 730.82421875 -25 730.82421875 -25 503.202646709 -25 c 0,29,30
 313.49891058 -25 313.49891058 -25 199.010742188 90.4619140625 c 128,-1,31
 84.6123046875 205.923828125 84.6123046875 205.923828125 68.9013671875 407.029296875 c 2,32,33
 67.9501953125 444.197265625 67.9501953125 444.197265625 67 431.365234375 c 1,34,35
 168.756835938 466.869140625 168.756835938 466.869140625 270.513671875 452.373046875 c 1,36,37
 272.06640625 465.293945312 272.06640625 465.293945312 273.619140625 428.213867188 c 2,38,39
 290.603515625 296.115234375 290.603515625 296.115234375 352.552877312 234.557617188 c 0,0,1
EndSplineSet
EndChar

StartChar: six
Encoding: 54 54 25
Width: 1034
GlyphClass: 1
Flags: W
LayerCount: 2
Fore
SplineSet
675.854712723 1212.90332031 m 0,0,1
 617.052678964 1274 617.052678964 1274 535.546300499 1274 c 0,2,3
 406.092173004 1274 406.092173004 1274 324.879063174 1139.39648438 c 0,4,5
 269.330078125 1034.72070312 269.330078125 1034.72070312 259.26953125 843.235351562 c 1,6,7
 298.051757812 891.39453125 298.051757812 891.39453125 352.286856923 922.544921875 c 0,8,9
 447.234528599 976 447.234528599 976 553.815932819 976 c 0,10,11
 727.803710938 976 727.803710938 976 840.901367188 841.827148438 c 128,-1,12
 954 707.655273438 954 707.655273438 954 487.208007812 c 0,13,14
 954 338.571289062 954 338.571289062 897.9609375 216.44921875 c 128,-1,15
 841.921875 94.328125 841.921875 94.328125 751.799804688 34.6640625 c 0,16,17
 655.072782942 -25 655.072782942 -25 530.978892419 -25 c 0,18,19
 308.537421228 -25 308.537421228 -25 182.693359375 143.784179688 c 0,20,21
 60 308.795898438 60 308.795898438 60 687.211914062 c 0,22,23
 60 1105.83105469 60 1105.83105469 185.219726562 1286.58789062 c 0,24,25
 314.784154642 1472 314.784154642 1472 545.822968679 1472 c 0,26,27
 713.427734375 1472 713.427734375 1472 812.65234375 1371.70214844 c 128,-1,28
 911.877929688 1271.40429688 911.877929688 1271.40429688 932.842773438 1084.81738281 c 2,29,30
 934.263671875 1047.16992188 934.263671875 1047.16992188 935.684570312 1059.52246094 c 1,31,32
 838.140625 1025.23242188 838.140625 1025.23242188 740.596679688 1040.94238281 c 1,33,34
 738.508789062 1027.17675781 738.508789062 1027.17675781 736.420898438 1063.41113281 c 2,35,36
 716.63671875 1169.8671875 716.63671875 1169.8671875 675.854712723 1212.90332031 c 0,0,1
350.382283436 692.596679688 m 0,37,38
 280 618.193359375 280 618.193359375 280 486.79296875 c 0,39,40
 280 342.435546875 280 342.435546875 355.990070359 256.315429688 c 0,41,42
 433.04054973 173 433.04054973 173 532.120744439 173 c 0,43,44
 617.224402803 173 617.224402803 173 686.858419494 250.7421875 c 0,45,46
 753 331.673828125 753 331.673828125 753 474.638671875 c 128,-1,47
 753 617.603515625 753 617.603515625 689.068527603 692.301757812 c 0,48,49
 618.788873881 767 618.788873881 767 521.603216849 767 c 128,-1,50
 424.418674907 767 424.418674907 767 350.382283436 692.596679688 c 0,37,38
EndSplineSet
EndChar

StartChar: seven
Encoding: 55 55 26
Width: 1034
GlyphClass: 1
Flags: W
LayerCount: 2
Fore
SplineSet
689.684952486 1224 m 1,0,-1
 77 1224 l 1,1,2
 77 1310.5 77 1310.5 77 1447 c 1,3,-1
 955 1447 l 1,4,5
 955 1341.88476562 955 1341.88476562 955 1279.38476562 c 1,6,7
 952.41015625 1257.78125 952.41015625 1257.78125 949.8203125 1272.88476562 c 2,8,9
 778.180664062 1057.51660156 778.180664062 1057.51660156 638.3244846 710.815429688 c 0,10,11
 471.697198177 363.943359375 471.697198177 363.943359375 447.269931058 23.578125 c 2,12,13
 446.452836623 36.7890625 446.452836623 36.7890625 445.635742188 -0 c 1,14,-1
 244.588867188 -0 l 1,15,16
 244.795898438 35.748046875 244.795898438 35.748046875 245.002929688 24.4169921875 c 2,17,18
 248.045898438 203.697265625 248.045898438 203.697265625 304.090820312 441.39453125 c 0,19,20
 365.690796073 679.092773438 365.690796073 679.092773438 478.187146849 894.452148438 c 0,21,22
 577.101110904 1083.80957031 577.101110904 1083.80957031 689.684952486 1224 c 1,0,-1
EndSplineSet
EndChar

StartChar: eight
Encoding: 56 56 27
Width: 1034
GlyphClass: 1
Flags: W
LayerCount: 2
Fore
SplineSet
802.442382812 1361.11425781 m 0,0,1
 909 1250.22753906 909 1250.22753906 909 1077.18652344 c 0,2,3
 909 884.282226562 909 884.282226562 762.340820312 794.25390625 c 1,4,5
 846.22265625 749.575195312 846.22265625 749.575195312 895.864257812 670.744140625 c 0,6,7
 958 572.07421875 958 572.07421875 958 427.874023438 c 0,8,9
 958 228.787109375 958 228.787109375 837.486328125 101.893554688 c 128,-1,10
 716.971679688 -25 716.971679688 -25 512 -25 c 128,-1,11
 307.028320312 -25 307.028320312 -25 186.513671875 101.893554688 c 128,-1,12
 66 228.787109375 66 228.787109375 66 432.711914062 c 0,13,14
 66 581.977539062 66 581.977539062 130.365234375 680.295898438 c 0,15,16
 180.354492188 756.653320312 180.354492188 756.653320312 260.537109375 795.744140625 c 1,17,18
 114 886.513671875 114 886.513671875 114 1082.99316406 c 0,19,20
 114 1254.15917969 114 1254.15917969 219.58984375 1363.08007812 c 0,21,22
 327.095276032 1472 327.095276032 1472 510.322831813 1472 c 128,-1,23
 693.551503474 1472 693.551503474 1472 802.442382812 1361.11425781 c 0,0,1
374.389633503 1221.14550781 m 128,-1,25
 316.60488473 1168.29003906 316.60488473 1168.29003906 316.60488473 1087.13378906 c 0,26,27
 316.60488473 994.651367188 316.60488473 994.651367188 373.855126808 941.826171875 c 128,-1,28
 431.106484767 889 431.106484767 889 512.066952822 889 c 128,-1,29
 593.027420876 889 593.027420876 889 650.211826014 940.939453125 c 128,-1,30
 707.39511527 992.87890625 707.39511527 992.87890625 707.39511527 1079.1953125 c 128,-1,31
 707.39511527 1165.51269531 707.39511527 1165.51269531 648.442039756 1219.75683594 c 128,-1,32
 589.490080122 1274 589.490080122 1274 510.857338507 1274 c 128,-1,24
 432.174382276 1274 432.174382276 1274 374.389633503 1221.14550781 c 128,-1,25
333.442403543 621.275390625 m 0,33,34
 267 550.55078125 267 550.55078125 267 433.05078125 c 128,-1,35
 267 315.55078125 267 315.55078125 335.633992578 244.275390625 c 0,36,37
 410.652397694 173 410.652397694 173 513.756395693 173 c 128,-1,38
 616.859277812 173 616.859277812 173 690.122403115 241.923828125 c 0,39,40
 757 310.846679688 757 310.846679688 757 430.125 c 128,-1,41
 757 549.403320312 757 549.403320312 687.824805445 620.701171875 c 0,42,43
 612.262966592 692 612.262966592 692 509.266093108 692 c 128,-1,44
 406.269219624 692 406.269219624 692 333.442403543 621.275390625 c 0,33,34
EndSplineSet
EndChar

StartChar: nine
Encoding: 57 57 28
Width: 1034
GlyphClass: 1
Flags: W
LayerCount: 2
Fore
SplineSet
335.446986639 234.17578125 m 0,0,1
 385.723076853 173 385.723076853 173 476.493304338 173 c 0,2,3
 550.728090887 173 550.728090887 173 612.741854863 214.790039062 c 128,-1,4
 674.75450256 256.580078125 674.75450256 256.580078125 719.22265625 369.322265625 c 0,5,6
 753.897460938 472.077148438 753.897460938 472.077148438 759.088867188 604.78515625 c 1,7,8
 722.479492188 559.94140625 722.479492188 559.94140625 669.49124704 528.18359375 c 0,9,10
 573.158601261 472 573.158601261 472 471.921025524 472 c 0,11,12
 293.254882812 472 293.254882812 472 180.127929688 605.166992188 c 128,-1,13
 67 738.334960938 67 738.334960938 67 964.682617188 c 0,14,15
 67 1197.90234375 67 1197.90234375 184.150390625 1334.95117188 c 128,-1,16
 301.301757812 1472 301.301757812 1472 493.639349891 1472 c 0,17,18
 631.313388709 1472 631.313388709 1472 744.69921875 1395.77246094 c 0,19,20
 847.95703125 1319.54394531 847.95703125 1319.54394531 902.978515625 1174.88378906 c 128,-1,21
 958 1030.22363281 958 1030.22363281 958 763.659179688 c 0,22,23
 958 467.390625 958 467.390625 899.143554688 300.525390625 c 128,-1,24
 840.288085938 133.661132812 840.288085938 133.661132812 736.481445312 54.3310546875 c 0,25,26
 621.292552059 -25 621.292552059 -25 473.064095227 -25 c 0,27,28
 305.533203125 -25 305.533203125 -25 206.7734375 75.369140625 c 128,-1,29
 108.014648438 175.73828125 108.014648438 175.73828125 89.12890625 361.4453125 c 2,30,31
 87.876953125 398.760742188 87.876953125 398.760742188 86.6240234375 386.075195312 c 1,32,33
 181.927734375 421.814453125 181.927734375 421.814453125 277.232421875 407.552734375 c 1,34,35
 278.983398438 420.6015625 278.983398438 420.6015625 280.735351562 383.650390625 c 2,36,37
 294.96875 286.528320312 294.96875 286.528320312 335.446986639 234.17578125 c 0,0,1
340.605311932 1188.77832031 m 0,38,39
 269 1104.55664062 269 1104.55664062 269 959.25 c 0,40,41
 269 829.739257812 269 829.739257812 336.313219149 755.369140625 c 0,42,43
 409.887168525 681 409.887168525 681 508.859814157 681 c 128,-1,44
 607.833576067 681 607.833576067 681 678.188176787 755.6875 c 0,45,46
 744 830.375976562 744 830.375976562 744 973.215820312 c 128,-1,47
 744 1116.05566406 744 1116.05566406 675.831711802 1194.52832031 c 0,48,49
 603.119529819 1273 603.119529819 1273 513.071534852 1273 c 0,50,51
 418.470237813 1273 418.470237813 1273 340.605311932 1188.77832031 c 0,38,39
EndSplineSet
EndChar

StartChar: colon
Encoding: 58 58 29
Width: 467
GlyphClass: 1
Flags: W
LayerCount: 2
Fore
SplineSet
130 832 m 1
 130 1087 l 1
 348 1087 l 1
 348 832 l 1
 130 832 l 1
130 -25 m 1
 130 230 l 1
 348 230 l 1
 348 -25 l 1
 130 -25 l 1
EndSplineSet
EndChar

StartChar: semicolon
Encoding: 59 59 30
AltUni2: 00037e.ffffffff.0 00037e.ffffffff.0
Width: 477
GlyphClass: 1
Flags: W
LayerCount: 2
Fore
SplineSet
-122 583 m 1
 -122 1336 l 1
 594 1336 l 1
 594 583 l 1
 -122 583 l 1
-122 479 m 1
 594 479 l 1
 594 0 l 2
 594 -166.316036149 594 -166.316036149 539.314279062 -289.534204328 c 0
 469.33451195 -447.213001743 469.33451195 -447.213001743 312.403479689 -531.534153405 c 2
 70.4056448893 -661.56284076 l 1
 -228.563981762 -100.083298025 l 1
 -122 -43.2491744184 l 1
 -122 479 l 1
EndSplineSet
EndChar

StartChar: less
Encoding: 60 60 31
Width: 981
GlyphClass: 1
Flags: W
LayerCount: 2
Fore
SplineSet
65 625.838345964 m 1
 65 824.246595284 l 1
 911 1260.00036413 l 1
 911 1024.55768036 l 1
 310.624952279 723.8944235 l 1
 911 420.37676863 l 1
 911 184.770506768 l 1
 65 625.838345964 l 1
EndSplineSet
EndChar

StartChar: equal
Encoding: 61 61 32
Width: 981
GlyphClass: 1
Flags: W
LayerCount: 2
Fore
SplineSet
911 837 m 1
 67 837 l 1
 67 1055 l 1
 911 1055 l 1
 911 837 l 1
911 392 m 1
 67 392 l 1
 67 610 l 1
 911 610 l 1
 911 392 l 1
EndSplineSet
EndChar

StartChar: greater
Encoding: 62 62 33
Width: 981
GlyphClass: 1
Flags: W
LayerCount: 2
Fore
SplineSet
65 184.770506768 m 1
 65 420.37676863 l 1
 665.375047721 723.8944235 l 1
 65 1024.55768036 l 1
 65 1260.00036413 l 1
 911 824.246595284 l 1
 911 625.838345964 l 1
 65 184.770506768 l 1
EndSplineSet
EndChar

StartChar: question
Encoding: 63 63 34
Width: 934
GlyphClass: 1
Flags: W
LayerCount: 2
Fore
SplineSet
670 1079 m 0
 670 1179.34179552 670 1179.34179552 606.973543419 1248.67089776 c 0
 543.947086839 1318 543.947086839 1318 463.002623641 1318 c 0
 382.058160442 1318 382.058160442 1318 323.954583984 1254.04102436 c 0
 265.851007526 1190.08204873 265.851007526 1190.08204873 247.813300541 1042.93233385 c 2
 244.707415992 1017.59485464 l 1
 43.6531070917 1046.6948204 l 1
 46.1344602911 1070.60604214 l 2
 69.032623467 1291.26106911 69.032623467 1291.26106911 179.27186208 1403.63053455 c 0
 289.511100693 1516 289.511100693 1516 463.529035163 1516 c 0
 637.546969633 1516 637.546969633 1516 754.273484816 1396.0754981 c 0
 871 1276.1509962 871 1276.1509962 871 1091 c 0
 871 989.626225036 871 989.626225036 833.082686858 905.365529166 c 0
 795.165373717 821.104833296 795.165373717 821.104833296 684.314490293 699.989979185 c 0
 595.561592703 604.484143734 595.561592703 604.484143734 574.730995235 551.25039465 c 0
 553.900397767 498.016645566 553.900397767 498.016645566 550.994329792 360.462761407 c 2
 550.477510889 336 l 1
 360.908492949 336 l 1
 358 414.529309613 l 1
 358 565.906567783 358 565.906567783 409.624741671 669.156051125 c 0
 445.23821824 740.383004263 445.23821824 740.383004263 556.753620274 860.08302296 c 0
 628.002944235 936.146490432 628.002944235 936.146490432 649.001472117 981.338974353 c 0
 670 1026.53145827 670 1026.53145827 670 1079 c 0
350 -25 m 1
 350 230 l 1
 568 230 l 1
 568 -25 l 1
 350 -25 l 1
EndSplineSet
EndChar

StartChar: at
Encoding: 64 64 35
Width: 1704
GlyphClass: 1
Flags: W
LayerCount: 2
Fore
SplineSet
1279.82735818 1080 m 1
 1155.63499576 379.723592318 l 2
 1132 242.837575187 1132 242.837575187 1132 226.286385507 c 0
 1132 209.735195827 1132 209.735195827 1141.98644133 198.867597914 c 0
 1151.97288265 188 1151.97288265 188 1164.73408047 188 c 0
 1177.49527828 188 1177.49527828 188 1199.00375152 199.070537697 c 0
 1229.93124256 214.989099259 1229.93124256 214.989099259 1272.66650844 251.920810512 c 0
 1349.14108702 318.009952495 1349.14108702 318.009952495 1402.07054351 446.484178705 c 0
 1455 574.958404916 1455 574.958404916 1455 719 c 0
 1455 890.732727638 1455 890.732727638 1381.11011963 1028.91640002 c 0
 1307.22023926 1167.10007239 1307.22023926 1167.10007239 1177.69935459 1244.52584109 c 0
 1048.09752086 1322 1048.09752086 1322 896 1322 c 0
 714.566509484 1322 714.566509484 1322 567.599511162 1224.02200112 c 0
 420.63251284 1126.04400224 420.63251284 1126.04400224 327.81625642 930.206560681 c 0
 235 734.369119124 235 734.369119124 235 481 c 0
 235 242.937239408 235 242.937239408 317.943993685 78.0137170818 c 0
 400.887987369 -86.9098052448 400.887987369 -86.9098052448 554.196336041 -172.454902622 c 0
 707.504684712 -258 707.504684712 -258 920 -258 c 0
 1110.55775918 -258 1110.55775918 -258 1254.15763554 -178.755921077 c 0
 1397.75751189 -99.5118421533 1397.75751189 -99.5118421533 1472.2585773 31.3425932544 c 2
 1479.46498406 44 l 1
 1679.10044197 44 l 1
 1665.1826063 9.63146702569 l 2
 1614.23486487 -116.17826181 1614.23486487 -116.17826181 1498.01376544 -230.333208361 c 0
 1381.89788608 -344.384805427 1381.89788608 -344.384805427 1241.34541883 -400.192402713 c 0
 1100.79295159 -456 1100.79295159 -456 919 -456 c 0
 653.328193283 -456 653.328193283 -456 466.243083466 -348.50358331 c 0
 279.157973649 -241.007166619 279.157973649 -241.007166619 171.578986824 -32.5407088974 c 0
 64 175.925748825 64 175.925748825 64 467 c 0
 64 775.56180739 64 775.56180739 181.671067809 1027.27556983 c 0
 299.342135617 1278.98933228 299.342135617 1278.98933228 480.928162395 1398.49466614 c 0
 662.514189172 1518 662.514189172 1518 904 1518 c 0
 1107.05591886 1518 1107.05591886 1518 1269.54538121 1418.3259528 c 0
 1432.00497033 1318.67023041 1432.00497033 1318.67023041 1529.50248517 1130.38137901 c 0
 1627 942.092527606 1627 942.092527606 1627 715 c 0
 1627 406.526214477 1627 406.526214477 1447.86127414 172.822244533 c 0
 1293.34111817 -29 1293.34111817 -29 1108 -29 c 0
 1014.46093492 -29 1014.46093492 -29 972.462658779 20.3023241636 c 0
 946.109022973 51.2392009789 946.109022973 51.2392009789 934.043892855 101.858273384 c 1
 888.93256954 49.4949991405 888.93256954 49.4949991405 838.823501746 17.84716685 c 0
 766.232154234 -28 766.232154234 -28 702 -28 c 0
 569.526846193 -28 569.526846193 -28 479.98811406 91.0209975906 c 0
 376 229.671816338 376 229.671816338 376 446 c 0
 376 619.321172412 376 619.321172412 449.348556576 784.097155141 c 0
 522.697113151 948.873137871 522.697113151 948.873137871 625.56006432 1028.93656894 c 0
 728.423015489 1109 728.423015489 1109 830 1109 c 0
 905.9471744 1109 905.9471744 1109 977.418309108 1058.42042774 c 0
 1024.21690873 1025.30141878 1024.21690873 1025.30141878 1061.95855477 970.832135852 c 1
 1080.97489239 1080 l 1
 1279.82735818 1080 l 1
837 910 m 0
 785.14594847 910 785.14594847 910 729.646014898 863.073226899 c 0
 674.146081326 816.146453798 674.146081326 816.146453798 626.073040663 687.31070482 c 0
 578 558.474955843 578 558.474955843 578 431.275485285 c 0
 578 304.076014728 578 304.076014728 627.783625062 235.109708449 c 0
 674.78334838 170 674.78334838 170 730 170 c 0
 778.935386157 170 778.935386157 170 843.041876355 223.574709666 c 0
 907.148366553 277.149419331 907.148366553 277.149419331 955.074183277 396.005444805 c 0
 1003 514.861470279 1003 514.861470279 1003 646.736758788 c 0
 1003 778.612047296 1003 778.612047296 952.053272953 845.934508036 c 0
 903.571279035 910 903.571279035 910 837 910 c 0
EndSplineSet
EndChar

StartChar: A
Encoding: 65 65 36
Width: 1220
GlyphClass: 1
Flags: W
LayerCount: 2
Fore
SplineSet
-2 -0 m 1,0,1
 238.040960476 733 238.040960476 733 493.124776491 1466 c 1,2,3
 603.819500236 1441 603.819500236 1441 714.514223982 1466 c 1,4,5
 986.162100214 733 986.162100214 733 1241.86132812 -0 c 1,6,7
 1124.31054688 25 1124.31054688 25 1006.75976562 0 c 1,8,-1
 857.261926754 419 l 1,9,-1
 360.705105221 419 l 1,10,-1
 219.75 -0 l 1,11,-1
 -2 -0 l 1,0,1
665.517600381 1000.64355469 m 0,12,13
 629.043089289 1110.77246094 629.043089289 1110.77246094 604.030148698 1196.62792969 c 1,14,15
 584.023758919 1110.31445312 584.023758919 1110.31445312 556.421510753 1024.76757812 c 2,16,-1
 426.032198664 627 l 1,17,-1
 788.360066349 627 l 1,18,19
 665.53219978 1000.59863281 665.53219978 1000.59863281 665.517600381 1000.64355469 c 0,12,13
EndSplineSet
EndChar

StartChar: B
Encoding: 66 66 37
Width: 1220
GlyphClass: 1
Flags: W
LayerCount: 2
Fore
SplineSet
608.481544192 0 m 2,0,-1
 124 0 l 1,1,2
 124 733 124 733 124 1466 c 1,3,-1
 600 1466 l 2,4,5
 773.546261879 1466 773.546261879 1466 877.704310235 1421.83789062 c 0,6,7
 965.16015625 1377.67578125 965.16015625 1377.67578125 1019.58007812 1284.80761719 c 128,-1,8
 1074 1191.93945312 1074 1191.93945312 1074 1080.15917969 c 0,9,10
 1074 976.345703125 1074 976.345703125 1026.98339844 892.647460938 c 0,11,12
 990.931640625 828.467773438 990.931640625 828.467773438 932.057617188 783.446289062 c 1,13,14
 1015.28710938 742.701171875 1015.28710938 742.701171875 1067.36914062 666.530273438 c 0,15,16
 1132 572.005859375 1132 572.005859375 1132 436.208007812 c 128,-1,17
 1132 300.409179688 1132 300.409179688 1074.11132812 197.181640625 c 128,-1,18
 1016.22265625 93.9541015625 1016.22265625 93.9541015625 919.064453125 46.9765625 c 0,19,20
 808.290065188 0 808.290065188 0 608.481544192 0 c 2,0,-1
549 1243 m 2,21,-1
 333 1243 l 1,22,-1
 333 875 l 1,23,-1
 568 875 l 2,24,25
 679.749943781 875 679.749943781 875 727.378168785 886.923828125 c 0,26,27
 792.718480147 904.06640625 792.718480147 904.06640625 827.823175055 944.153320312 c 128,-1,28
 862.927869963 984.240234375 862.927869963 984.240234375 862.927869963 1054.28320312 c 128,-1,29
 862.927869963 1124.32617188 862.927869963 1124.32617188 830.661794547 1167.24902344 c 128,-1,30
 798.39453588 1210.171875 798.39453588 1210.171875 746.983456972 1225.90722656 c 0,31,32
 691.138736031 1243 691.138736031 1243 549 1243 c 2,21,-1
586 652 m 2,33,-1
 333 652 l 1,34,-1
 333 223 l 1,35,-1
 608.481544192 223 l 2,36,37
 722.81791888 223 722.81791888 223 774.563857862 238.455078125 c 0,38,39
 847.148032721 260.098632812 847.148032721 260.098632812 885.3291806 310.005859375 c 0,40,41
 917 359.912109375 917 359.912109375 917 435.162109375 c 128,-1,42
 917 510.413085938 917 510.413085938 886.7265625 558.791015625 c 0,43,44
 850.149940871 607.168945312 850.149940871 607.168945312 787.78313963 629.583984375 c 128,-1,45
 725.41633839 652 725.41633839 652 586 652 c 2,33,-1
EndSplineSet
EndChar

StartChar: C
Encoding: 67 67 38
Width: 1312
GlyphClass: 1
Flags: W
LayerCount: 2
Fore
SplineSet
1048.74902344 102.487304688 m 0,0,1
 902.385870641 -25 902.385870641 -25 686.707504869 -25 c 0,2,3
 497.979311639 -25 497.979311639 -25 363.283287858 58.044921875 c 0,4,5
 235.778320312 141.090820312 235.778320312 141.090820312 157.888671875 320.857421875 c 128,-1,6
 80 500.623046875 80 500.623046875 80 741.393554688 c 128,-1,7
 80 982.1640625 80 982.1640625 158.083984375 1149.86523438 c 128,-1,8
 236.166992188 1317.56640625 236.166992188 1317.56640625 374.958707941 1404.28320312 c 0,9,10
 520.909368442 1491 520.909368442 1491 700.746272112 1491 c 0,11,12
 898.72537176 1491 898.72537176 1491 1037.89746094 1376.79882812 c 0,13,14
 1169.46582031 1262.59765625 1169.46582031 1262.59765625 1221.32128906 1044.80371094 c 2,15,16
 1224.0859375 1008.1953125 1224.0859375 1008.1953125 1226.84960938 1021.5859375 c 1,17,18
 1125.07226562 967.2265625 1125.07226562 967.2265625 1023.29394531 962.868164062 c 1,19,20
 1020.05175781 950.267578125 1020.05175781 950.267578125 1016.81054688 987.66796875 c 2,21,22
 981.272732576 1117.87304688 981.272732576 1117.87304688 912.863270923 1188.93066406 c 0,23,24
 830.000586234 1275 830.000586234 1275 697.506556594 1275 c 0,25,26
 576.412697769 1275 576.412697769 1275 488.154705597 1220.40136719 c 128,-1,27
 399.89565883 1165.80371094 399.89565883 1165.80371094 345.678935275 1046.96679688 c 0,28,29
 294 928.130859375 294 928.130859375 294 742.559570312 c 0,30,31
 294 462.397460938 294 462.397460938 401.021966178 324.705078125 c 0,32,33
 507.408444596 191 507.408444596 191 683.467789351 191 c 0,34,35
 812.848654861 191 812.848654861 191 907.827580299 277.08984375 c 128,-1,36
 1002.70996094 363.1796875 1002.70996094 363.1796875 1033.35546875 543.217773438 c 2,37,38
 1035.73925781 582.228515625 1035.73925781 582.228515625 1038.12402344 571.23828125 c 1,39,40
 1142.69335938 564.213867188 1142.69335938 564.213867188 1247.26171875 507.189453125 c 1,41,42
 1244.85351562 520.963867188 1244.85351562 520.963867188 1242.44433594 484.73828125 c 2,43,44
 1187.77832031 229.974609375 1187.77832031 229.974609375 1048.74902344 102.487304688 c 0,0,1
EndSplineSet
EndChar

StartChar: D
Encoding: 68 68 39
Width: 1312
GlyphClass: 1
Flags: W
LayerCount: 2
Fore
SplineSet
587.651853506 0 m 2,0,-1
 126 0 l 1,1,2
 126 733 126 733 126 1466 c 1,3,-1
 566 1466 l 2,4,5
 746.188024701 1466 746.188024701 1466 841.663840276 1438.65625 c 0,6,7
 969.044311905 1402.625 969.044311905 1402.625 1050.57519531 1308.14355469 c 0,8,9
 1131.47070312 1213.66113281 1131.47070312 1213.66113281 1175.73535156 1072.80371094 c 128,-1,10
 1220 931.946289062 1220 931.946289062 1220 740.736328125 c 0,11,12
 1220 495.060546875 1220 495.060546875 1144.50390625 321.545898438 c 128,-1,13
 1069.0078125 148.030273438 1069.0078125 148.030273438 944.483435729 74.015625 c 0,14,15
 806.732198125 0 806.732198125 0 587.651853506 0 c 2,0,-1
562 1243 m 2,16,-1
 335 1243 l 1,17,18
 335 733 335 733 335 223 c 1,19,-1
 566 223 l 2,20,21
 734.396133266 223 734.396133266 223 818.073380232 267.186523438 c 128,-1,22
 901.751740061 311.372070312 901.751740061 311.372070312 947.359072523 410.745117188 c 0,23,24
 1006 548.666992188 1006 548.666992188 1006 742.532226562 c 0,25,26
 1006 949.73828125 1006 949.73828125 945.101074437 1064.91210938 c 0,27,28
 879.770479244 1180.08496094 879.770479244 1180.08496094 781.050669375 1217.46386719 c 0,29,30
 713.680197153 1243 713.680197153 1243 562 1243 c 2,16,-1
EndSplineSet
EndChar

StartChar: E
Encoding: 69 69 40
Width: 1220
GlyphClass: 1
Flags: W
LayerCount: 2
Fore
SplineSet
1130 0 m 1,0,-1
 133 0 l 1,1,2
 133 733 133 733 133 1466 c 1,3,-1
 1102 1466 l 1,4,5
 1102 1329.5 1102 1329.5 1102 1243 c 1,6,-1
 342 1243 l 1,7,-1
 342 869 l 1,8,-1
 1057 869 l 1,9,-1
 1057 647 l 1,10,-1
 342 647 l 1,11,-1
 342 223 l 1,12,-1
 1130 223 l 1,13,14
 1130 136.5 1130 136.5 1130 0 c 1,0,-1
EndSplineSet
EndChar

StartChar: F
Encoding: 70 70 41
Width: 1126
GlyphClass: 1
Flags: W
LayerCount: 2
Fore
SplineSet
350 0 m 1,0,-1
 141 0 l 1,1,2
 141 733 141 733 141 1466 c 1,3,-1
 1052 1466 l 1,4,5
 1052 1329.5 1052 1329.5 1052 1243 c 1,6,-1
 350 1243 l 1,7,-1
 350 864 l 1,8,-1
 964 864 l 1,9,-1
 964 641 l 1,10,-1
 350 641 l 1,11,-1
 350 0 l 1,0,-1
EndSplineSet
EndChar

StartChar: G
Encoding: 71 71 42
Width: 1407
GlyphClass: 1
Flags: W
LayerCount: 2
Fore
SplineSet
1099 550 m 1,0,-1
 722.640615678 550 l 1,1,-1
 722.640615678 771.951171875 l 1,2,-1
 1305 773.048828125 l 1,3,-1
 1305 208.31640625 l 1,4,5
 1301.22070312 219.171875 1301.22070312 219.171875 1297.44140625 201.258789062 c 2,6,7
 1054.8265254 -25 1054.8265254 -25 760.250686076 -25 c 0,8,9
 563.291028908 -25 563.291028908 -25 408.419181268 63.970703125 c 0,10,11
 259.5078125 152.913085938 259.5078125 152.913085938 176.25390625 322.11328125 c 128,-1,12
 93 491.314453125 93 491.314453125 93 727.565429688 c 128,-1,13
 93 963.815429688 93 963.815429688 176.638671875 1141.74609375 c 128,-1,14
 260.278320312 1319.67773438 260.278320312 1319.67773438 401.85315977 1405.34863281 c 0,15,16
 549.246018244 1491 549.246018244 1491 749.504951676 1491 c 0,17,18
 897.638678167 1491 897.638678167 1491 1009.86024425 1439.31054688 c 0,19,20
 1117.72070312 1387.62109375 1117.72070312 1387.62109375 1185.08398438 1292.89160156 c 128,-1,21
 1252.44628906 1198.16308594 1252.44628906 1198.16308594 1285.49707031 1036.01171875 c 2,22,23
 1287.70605469 1000.17089844 1287.70605469 1000.17089844 1289.91601562 1014.33007812 c 1,24,25
 1194.91308594 957.44140625 1194.91308594 957.44140625 1099.90917969 950.551757812 c 1,26,27
 1096.78222656 938.922851562 1096.78222656 938.922851562 1093.65527344 977.29296875 c 2,28,29
 1065.77636719 1096.49902344 1065.77636719 1096.49902344 1022.52530953 1153.39160156 c 0,30,31
 978.785763091 1210.28417969 978.785763091 1210.28417969 907.25736972 1242.64257812 c 128,-1,32
 835.728976349 1275 835.728976349 1275 745.206657917 1275 c 0,33,34
 612.621715273 1275 612.621715273 1275 517.84622677 1218.36914062 c 128,-1,35
 422.912280661 1161.64257812 422.912280661 1161.64257812 363.771914104 1039.08496094 c 0,36,37
 307 916.526367188 307 916.526367188 307 737.022460938 c 0,38,39
 307 464.78125 307 464.78125 429.630463437 332.390625 c 0,40,41
 554.628329937 200 554.628329937 200 753.803245436 200 c 0,42,43
 848.959661828 200 848.959661828 200 946.681832186 238.776367188 c 128,-1,44
 1044.40400254 277.553710938 1044.40400254 277.553710938 1099 327.936523438 c 1,45,-1
 1099 550 l 1,0,-1
EndSplineSet
EndChar

StartChar: H
Encoding: 72 72 43
Width: 1312
GlyphClass: 1
Flags: W
LayerCount: 2
Fore
SplineSet
338 0 m 1,0,-1
 129 0 l 1,1,2
 129 733 129 733 129 1466 c 1,3,-1
 338 1466 l 1,4,-1
 338 889 l 1,5,-1
 963 889 l 1,6,-1
 963 1466 l 1,7,-1
 1172 1466 l 1,8,9
 1172 733 1172 733 1172 0 c 1,10,-1
 963 0 l 1,11,-1
 963 666 l 1,12,-1
 338 666 l 1,13,-1
 338 0 l 1,0,-1
EndSplineSet
EndChar

StartChar: I
Encoding: 73 73 44
Width: 517
GlyphClass: 1
Flags: W
LayerCount: 2
Fore
SplineSet
369 0 m 1,0,-1
 160 0 l 1,1,2
 160 733 160 733 160 1466 c 1,3,-1
 369 1466 l 1,4,5
 369 733 369 733 369 0 c 1,0,-1
EndSplineSet
EndChar

StartChar: J
Encoding: 74 74 45
Width: 940
GlyphClass: 1
Flags: W
LayerCount: 2
Fore
SplineSet
285.08984375 249.875 m 0,0,1
 329.980744371 198 329.980744371 198 411.754917265 198 c 0,2,3
 470.200721248 198 470.200721248 198 514.243113146 223.672851562 c 128,-1,4
 558.285505044 249.346679688 558.285505044 249.346679688 573.298153099 288.020507812 c 0,5,6
 597 347.076171875 597 347.076171875 597 470.263671875 c 2,7,8
 597 962.967773438 597 962.967773438 597 1466 c 1,9,-1
 806 1466 l 1,10,11
 806 962.497070312 806 962.497070312 806 475.225585938 c 2,12,13
 806 205.529296875 806 205.529296875 712.056640625 91.525390625 c 0,14,15
 616.036132812 -25 616.036132812 -25 415.183912055 -25 c 0,16,17
 223.702148438 -25 223.702148438 -25 139.284179688 84.634765625 c 0,18,19
 45 205.40234375 45 205.40234375 45 441 c 2,20,21
 45 476.578125 45 476.578125 45 462.157226562 c 1,22,23
 140.983398438 503.266601562 140.983398438 503.266601562 236.966796875 494.375 c 1,24,25
 237.475585938 505.140625 237.475585938 505.140625 237.983398438 465.90625 c 2,26,27
 243.70703125 305.651367188 243.70703125 305.651367188 285.08984375 249.875 c 0,0,1
EndSplineSet
EndChar

StartChar: K
Encoding: 75 75 46
Width: 1220
GlyphClass: 1
Flags: W
LayerCount: 2
Fore
SplineSet
333 0 m 1,0,-1
 124 0 l 1,1,2
 124 733 124 733 124 1466 c 1,3,-1
 333 1466 l 1,4,5
 333 1099.91503906 333 1099.91503906 333 783.831054688 c 1,6,7
 638.092773438 1099.91503906 638.092773438 1099.91503906 943.185546875 1466 c 1,8,9
 1084.12402344 1441 1084.12402344 1441 1225.0625 1466 c 1,10,11
 960.883789062 1151.24707031 960.883789062 1151.24707031 674.705182722 865.0234375 c 1,12,13
 966.880610118 442.422851562 966.880610118 442.422851562 1237.31933594 -0 c 1,14,15
 1102.93945312 25 1102.93945312 25 968.559570312 -0 c 1,16,17
 742.037737444 386.8125 742.037737444 386.8125 515.516964526 723.625 c 1,18,19
 424.258482263 648.754882812 424.258482263 648.754882812 333 523.883789062 c 1,20,21
 333 286.942382812 333 286.942382812 333 0 c 1,0,-1
EndSplineSet
EndChar

StartChar: L
Encoding: 76 76 47
Width: 1034
GlyphClass: 1
Flags: W
LayerCount: 2
Fore
SplineSet
971 0 m 1,0,-1
 120 0 l 1,1,2
 120 733 120 733 120 1466 c 1,3,-1
 329 1466 l 1,4,5
 329 844.5 329 844.5 329 223 c 1,6,-1
 971 223 l 1,7,8
 971 136.5 971 136.5 971 0 c 1,0,-1
EndSplineSet
EndChar

StartChar: M
Encoding: 77 77 48
Width: 1549
GlyphClass: 1
Flags: W
LayerCount: 2
Fore
SplineSet
328 0 m 1,0,-1
 125 0 l 1,1,2
 125 733 125 733 125 1466 c 1,3,4
 266.533203125 1441 266.533203125 1441 408.06640625 1466 c 1,5,6
 564.161161771 912.74609375 564.161161771 912.74609375 748.147460938 409.493164062 c 1,7,8
 764.662109375 321.620117188 764.662109375 321.620117188 781.177734375 283.747070312 c 1,9,10
 804.4921875 369.556640625 804.4921875 369.556640625 888.276900671 653.662109375 c 0,11,-1
 1108.54583877 1447.79785156 l 2,12,13
 1111.31100532 1431.89941406 1111.31100532 1431.89941406 1114.07617188 1466 c 1,14,-1
 1372 1466 l 1,15,16
 1422 733 1422 733 1422 0 c 1,17,-1
 1219 0 l 1,18,19
 1219 561.600585938 1219 561.600585938 1169 1073.20019531 c 1,20,21
 1040.93554688 561.600585938 1040.93554688 561.600585938 862.87109375 0 c 1,22,23
 772.44140625 25 772.44140625 25 682.012695312 0 c 1,24,25
 505.005779069 570.125976562 505.005779069 570.125976562 328 1090.25097656 c 1,26,27
 328 570.125976562 328 570.125976562 328 0 c 1,0,-1
EndSplineSet
EndChar

StartChar: N
Encoding: 78 78 49
Width: 1312
GlyphClass: 1
Flags: W
LayerCount: 2
Fore
SplineSet
328.017314789 0 m 1,0,-1
 125 0 l 1,1,2
 125 733 125 733 125 1466 c 1,3,4
 226.397460938 1441 226.397460938 1441 327.794921875 1466 c 1,5,6
 648.897460938 901.737304688 648.897460938 901.737304688 970 387.474609375 c 1,7,8
 970 901.737304688 970 901.737304688 970 1466 c 1,9,-1
 1172 1466 l 1,10,11
 1172 733 1172 733 1172 0 c 1,12,13
 1070.59375 25 1070.59375 25 969.118900453 0 c 1,14,15
 648.568107621 564.658203125 648.568107621 564.658203125 328.017314789 1079.31542969 c 1,16,17
 328.017314789 564.658203125 328.017314789 564.658203125 328.017314789 0 c 1,0,-1
EndSplineSet
EndChar

StartChar: O
Encoding: 79 79 50
Width: 1407
GlyphClass: 1
Flags: W
LayerCount: 2
Fore
SplineSet
236.504882812 209.943359375 m 0,0,1
 85 419.473632812 85 419.473632812 85 714.622070312 c 0,2,3
 85 1086.29589844 85 1086.29589844 256.58203125 1289.14746094 c 0,4,5
 435.038220027 1492 435.038220027 1492 711.070573622 1492 c 0,6,7
 889.596043532 1492 889.596043532 1492 1036.37858735 1400.81054688 c 0,8,9
 1176.96875 1309.62109375 1176.96875 1309.62109375 1255.984375 1138.13378906 c 128,-1,10
 1335 966.646484375 1335 966.646484375 1335 732.047851562 c 0,11,12
 1335 408.630859375 1335 408.630859375 1182.29003906 203.85546875 c 0,13,14
 1006.32411476 -25 1006.32411476 -25 708.799786603 -25 c 128,-1,15
 411.275458442 -25 411.275458442 -25 236.504882812 209.943359375 c 0,0,1
415.865124655 1140.87109375 m 0,16,17
 299 1003.94042969 299 1003.94042969 299 711.969726562 c 0,18,19
 299 461.290039062 299 461.290039062 417.742810422 326.145507812 c 0,20,21
 538.72599361 191 538.72599361 191 708.929426378 191 c 0,22,23
 883.266695183 191 883.266695183 191 1002.07736666 326.1796875 c 0,24,25
 1121 464.038085938 1121 464.038085938 1121 735.868164062 c 0,26,27
 1121 911.822265625 1121 911.822265625 1059.92075222 1049.92578125 c 0,28,29
 1012.52382334 1152.57421875 1012.52382334 1152.57421875 917.947425849 1213.78710938 c 128,-1,30
 823.369982877 1275 823.369982877 1275 712.141147245 1275 c 0,31,32
 532.534648892 1275 532.534648892 1275 415.865124655 1140.87109375 c 0,16,17
EndSplineSet
EndChar

StartChar: P
Encoding: 80 80 51
Width: 1220
GlyphClass: 1
Flags: W
LayerCount: 2
Fore
SplineSet
339 0 m 1,0,-1
 130 0 l 1,1,2
 130 733 130 733 130 1466 c 1,3,-1
 608 1466 l 2,4,5
 806.280197959 1466 806.280197959 1466 902.5703125 1437.29199219 c 0,6,7
 1014.86425781 1397.37597656 1014.86425781 1397.37597656 1080.93164062 1290.60058594 c 128,-1,8
 1147 1183.82519531 1147 1183.82519531 1147 1031.14648438 c 0,9,10
 1147 829.935546875 1147 829.935546875 1040.45410156 701.655273438 c 0,11,12
 931.935546875 571 931.935546875 571 624.877816149 571 c 2,13,-1
 339 571 l 1,14,-1
 339 0 l 1,0,-1
624.877816149 1243 m 2,15,-1
 339 1243 l 1,16,-1
 339 794 l 1,17,-1
 628.494491038 794 l 2,18,19
 793.432290061 794 793.432290061 794 866.480410776 850.130859375 c 0,20,21
 933 906.26171875 933 906.26171875 933 1023.23632812 c 0,22,23
 933 1099.65625 933 1099.65625 902.920898438 1152.38964844 c 0,24,25
 867.004310622 1205.12207031 867.004310622 1205.12207031 817.225584171 1224.06152344 c 128,-1,26
 767.44685772 1243 767.44685772 1243 624.877816149 1243 c 2,15,-1
EndSplineSet
EndChar

StartChar: Q
Encoding: 81 81 52
Width: 1407
GlyphClass: 1
Flags: W
LayerCount: 2
Fore
SplineSet
227.5703125 208.885742188 m 0,0,1
 76 416.509765625 76 416.509765625 76 732.047851562 c 0,2,3
 76 967.684570312 76 967.684570312 157.573242188 1142.11816406 c 128,-1,4
 239.145507812 1316.55175781 239.145507812 1316.55175781 377.28390888 1404.27636719 c 0,5,6
 521.023982822 1492 521.023982822 1492 700.078368812 1492 c 128,-1,7
 879.132754801 1492 879.132754801 1492 1024.98860088 1401.1328125 c 0,8,9
 1166.9375 1310.265625 1166.9375 1310.265625 1246.46875 1138.44824219 c 128,-1,10
 1326 966.629882812 1326 966.629882812 1326 734.45703125 c 0,11,12
 1326 553.141601562 1326 553.141601562 1277.30957031 405.989257812 c 0,13,14
 1232.82226562 271.5390625 1232.82226562 271.5390625 1155.18359375 176.145507812 c 1,15,16
 1252.55761719 99.6904296875 1252.55761719 99.6904296875 1334.47070312 62.9541015625 c 2,17,18
 1344.76855469 77.1455078125 1344.76855469 77.1455078125 1355.06640625 53.7177734375 c 1,19,20
 1323.39160156 -12.931640625 1323.39160156 -12.931640625 1291.71679688 -122.77734375 c 1,21,22
 1279.33984375 -92.3388671875 1279.33984375 -92.3388671875 1266.96289062 -111.900390625 c 2,23,24
 1138.49707031 -55.453125 1138.49707031 -55.453125 1009.84033976 59.189453125 c 1,25,26
 868.135744973 -25 868.135744973 -25 698.946967744 -25 c 0,27,28
 403.217498339 -25 403.217498339 -25 227.5703125 208.885742188 c 0,0,1
986.391661586 320.961914062 m 1,29,30
 1111 464.778320312 1111 464.778320312 1111 735.868164062 c 0,31,32
 1111 911.865234375 1111 911.865234375 1056.40818206 1032.69921875 c 128,-1,33
 1001.70155143 1153.53417969 1001.70155143 1153.53417969 907.421952567 1214.26660156 c 128,-1,34
 813.141310937 1275 813.141310937 1275 702.150344777 1275 c 0,35,36
 525.050102199 1275 525.050102199 1275 407.61692793 1141.24023438 c 0,37,38
 290 1004.81933594 290 1004.81933594 290 733.975585938 c 128,-1,39
 290 463.131835938 290 463.131835938 409.169606446 325.771484375 c 0,40,41
 528.205511998 191 528.205511998 191 702.150344777 191 c 0,42,43
 763.236617559 191 763.236617559 191 819.876536282 209.567382812 c 1,44,45
 761.171940955 244.583984375 761.171940955 244.583984375 696.668524118 261.76953125 c 2,46,47
 684.119878539 285.743164062 684.119878539 285.743164062 671.57123296 268.45703125 c 1,48,49
 699.640407108 375.78125 699.640407108 375.78125 727.709581256 450.15234375 c 1,50,51
 741.065327689 458.786132812 741.065327689 458.786132812 754.422116888 442.123046875 c 2,52,53
 891.19859974 401.009765625 891.19859974 401.009765625 986.391661586 320.961914062 c 1,29,30
EndSplineSet
EndChar

StartChar: R
Encoding: 82 82 53
Width: 1312
GlyphClass: 1
Flags: W
LayerCount: 2
Fore
SplineSet
338 0 m 1,0,-1
 129 0 l 1,1,2
 129 733 129 733 129 1466 c 1,3,-1
 713.404115004 1466 l 2,4,5
 899.569370313 1466 899.569370313 1466 991.706071533 1423.28222656 c 0,6,7
 1081.38378906 1380.56445312 1081.38378906 1380.56445312 1135.69140625 1282.22265625 c 128,-1,8
 1190 1183.88183594 1190 1183.88183594 1190 1055.984375 c 0,9,10
 1190 886.66015625 1190 886.66015625 1097.65136719 780.323242188 c 0,11,12
 1019.56389391 692.78125 1019.56389391 692.78125 877.897623199 657.828125 c 1,13,14
 915.603374867 632.6328125 915.603374867 632.6328125 940.474779861 606.440429688 c 0,15,16
 1018.76135333 523.173828125 1018.76135333 523.173828125 1076.13867188 421.250976562 c 2,17,18
 1190.77441406 227.854492188 1190.77441406 227.854492188 1305.41113281 0 c 1,19,20
 1177.14648438 25 1177.14648438 25 1048.88183594 -0 c 1,21,22
 959.020400301 171.29296875 959.020400301 171.29296875 869.16001511 306.268554688 c 2,23,24
 770.209072044 476.52734375 770.209072044 476.52734375 721.788773308 533.026367188 c 128,-1,25
 673.368474571 589.525390625 673.368474571 589.525390625 631.144755556 607.762695312 c 128,-1,26
 588.919986096 626 588.919986096 626 509.029381907 626 c 2,27,-1
 338 626 l 1,28,-1
 338 0 l 1,0,-1
719.858053944 1254 m 2,29,-1
 338 1254 l 1,30,-1
 338 844 l 1,31,-1
 678.983107324 844 l 2,32,33
 793.496404784 844 793.496404784 844 849.388524432 866.797851562 c 128,-1,34
 905.279593633 889.596679688 905.279593633 889.596679688 937.882279649 938.330078125 c 128,-1,35
 970.48601611 987.064453125 970.48601611 987.064453125 970.48601611 1053.24121094 c 0,36,37
 970.48601611 1147.94726562 970.48601611 1147.94726562 908.540177369 1200.97363281 c 128,-1,38
 846.594338628 1254 846.594338628 1254 719.858053944 1254 c 2,29,-1
EndSplineSet
EndChar

StartChar: S
Encoding: 83 83 54
Width: 1220
GlyphClass: 1
Flags: W
LayerCount: 2
Fore
SplineSet
450.708058661 237.033203125 m 128,-1,1
 531.093747564 199 531.093747564 199 632.991175129 199 c 0,2,3
 778.364124327 199 778.364124327 199 855.952922997 259.291992188 c 0,4,5
 929.49609375 319.583984375 929.49609375 319.583984375 929.49609375 415.6171875 c 0,6,7
 929.49609375 471.646484375 929.49609375 471.646484375 904.489257812 512.616210938 c 0,8,9
 878.682610413 553.5859375 878.682610413 553.5859375 820.258562089 581.231445312 c 128,-1,10
 761.834513764 608.876953125 761.834513764 608.876953125 555.047810904 662.08984375 c 0,11,12
 364.214415678 711.352539062 364.214415678 711.352539062 284.23828125 763.333984375 c 0,13,14
 208.01171875 815.31640625 208.01171875 815.31640625 165.206054688 896.193359375 c 128,-1,15
 122.49609375 976.889648438 122.49609375 976.889648438 122.49609375 1077.98339844 c 0,16,17
 122.49609375 1259.43847656 122.49609375 1259.43847656 244.978515625 1375.30664062 c 0,18,19
 371.686001037 1491 371.686001037 1491 596.793352556 1491 c 0,20,21
 750.569826791 1491 750.569826791 1491 867.391143565 1434.83496094 c 0,22,23
 975.690429688 1378.66992188 975.690429688 1378.66992188 1034.49609375 1273.7734375 c 128,-1,24
 1093.30175781 1168.87695312 1093.30175781 1168.87695312 1097.484375 1028.7578125 c 2,25,26
 1097.83496094 992.001953125 1097.83496094 992.001953125 1098.18652344 1005.24511719 c 1,27,28
 997.4375 971.026367188 997.4375 971.026367188 896.688476562 986.807617188 c 1,29,30
 895.63671875 974.346679688 895.63671875 974.346679688 894.583984375 1011.88574219 c 2,31,32
 882.962034572 1145.3515625 882.962034572 1145.3515625 810.140053802 1207.67578125 c 128,-1,33
 737.318073031 1270 737.318073031 1270 600.802835566 1270 c 128,-1,34
 464.287598101 1270 464.287598101 1270 395.072331009 1218.22851562 c 128,-1,35
 325.858135112 1166.45800781 325.858135112 1166.45800781 325.858135112 1085.13183594 c 0,36,37
 325.858135112 1009.82421875 325.858135112 1009.82421875 374.271865848 969.77734375 c 0,38,39
 426.336229258 926.712890625 426.336229258 926.712890625 621.791831054 879.530273438 c 128,-1,40
 817.246361654 832.34765625 817.246361654 832.34765625 897.8125 796.559570312 c 0,41,42
 1014.12890625 739.54296875 1014.12890625 739.54296875 1073.83496094 645.612304688 c 128,-1,43
 1133.49609375 551.752929688 1133.49609375 551.752929688 1133.49609375 423.37109375 c 128,-1,44
 1133.49609375 294.990234375 1133.49609375 294.990234375 1071.0625 189.53515625 c 128,-1,45
 1008.62890625 84.0810546875 1008.62890625 84.0810546875 901.181640625 29.0400390625 c 0,46,47
 784.626330493 -26 784.626330493 -26 620.925234272 -26 c 0,48,49
 364.873200623 -26 364.873200623 -26 221.391601562 115.25390625 c 0,50,51
 81.71875 256.508789062 81.71875 256.508789062 76.501953125 495.4453125 c 2,52,53
 76.2509765625 531.934570312 76.2509765625 531.934570312 76 518.423828125 c 1,54,55
 174.944335938 553.978515625 174.944335938 553.978515625 273.889648438 539.532226562 c 1,56,57
 275.130859375 552.012695312 275.130859375 552.012695312 276.373046875 514.4921875 c 2,58,59
 287.793945312 399.328125 287.793945312 399.328125 327.412439105 337.197265625 c 0,60,0
 370.322369759 275.067382812 370.322369759 275.067382812 450.708058661 237.033203125 c 128,-1,1
EndSplineSet
EndChar

StartChar: T
Encoding: 84 84 55
Width: 1126
GlyphClass: 1
Flags: W
LayerCount: 2
Fore
SplineSet
1095 1243 m 1,0,-1
 682.117697662 1243 l 1,1,2
 697 621.5 697 621.5 697 0 c 1,3,-1
 488 0 l 1,4,5
 488 621.5 488 621.5 452.686791272 1243 c 1,6,-1
 42 1243 l 1,7,8
 42 1329.5 42 1329.5 42 1466 c 1,9,-1
 1095 1466 l 1,10,11
 1095 1329.5 1095 1329.5 1095 1243 c 1,0,-1
EndSplineSet
EndChar

StartChar: U
Encoding: 85 85 56
Width: 1312
GlyphClass: 1
Flags: W
LayerCount: 2
Fore
SplineSet
965 628.092773438 m 2,0,1
 965 1038.9140625 965 1038.9140625 965 1466 c 1,2,-1
 1175 1466 l 1,3,4
 1175 1033.64550781 1175 1033.64550781 1175 622.29296875 c 2,5,6
 1175 412.592773438 1175 412.592773438 1131.73730469 274.91015625 c 128,-1,7
 1088.47363281 137.228515625 1088.47363281 137.228515625 972.237304688 56.1142578125 c 0,8,9
 846.554592721 -25 846.554592721 -25 654.216637782 -25 c 0,10,11
 382.886072222 -25 382.886072222 -25 254.153320312 120.106445312 c 0,12,13
 129 265.212890625 129 265.212890625 129 622.29296875 c 2,14,15
 129 1033.64550781 129 1033.64550781 129 1466 c 1,16,-1
 338 1466 l 1,17,18
 338 1038.9140625 338 1038.9140625 338 628.092773438 c 2,19,20
 338 440.736328125 338 440.736328125 369.422797403 360.87109375 c 128,-1,21
 400.845594806 281.005859375 400.845594806 281.005859375 470.210059101 240.502929688 c 128,-1,22
 539.574523397 200 539.574523397 200 641.17677643 200 c 0,23,24
 812.824775577 200 812.824775577 200 887.78169343 283.2734375 c 0,25,26
 965 369.059570312 965 369.059570312 965 628.092773438 c 2,0,1
EndSplineSet
EndChar

StartChar: V
Encoding: 86 86 57
Width: 1220
GlyphClass: 1
Flags: W
LayerCount: 2
Fore
SplineSet
507.549817058 0 m 1,0,1
 250.049800792 733 250.049800792 733 8 1466 c 1,2,3
 120.450195312 1441 120.450195312 1441 232.899414062 1466 c 1,4,5
 402.982866558 899.487304688 402.982866558 899.487304688 573.065275399 382.973632812 c 2,6,7
 595.530998318 310.56640625 595.530998318 310.56640625 614.746778788 240.826171875 c 1,8,9
 634.653459033 312.420898438 634.653459033 312.420898438 657.568997365 383.297851562 c 0,10,11
 1004.89746469 1448.296875 1004.89746469 1448.296875 1004.89746469 1448.29785156 c 2,12,13
 1007.78421511 1432.1484375 1007.78421511 1432.1484375 1010.66992188 1466 c 1,14,15
 1118.06445312 1441 1118.06445312 1441 1225.45800781 1466 c 1,16,17
 980.504110519 733 980.504110519 733 720.792588777 0 c 1,18,19
 614.171724745 25 614.171724745 25 507.549817058 0 c 1,0,1
EndSplineSet
EndChar

StartChar: W
Encoding: 87 87 58
Width: 1735
GlyphClass: 1
Flags: W
LayerCount: 2
Fore
SplineSet
352.879882812 0 m 1,0,1
 187.940429688 733 187.940429688 733 23 1466 c 1,2,3
 130.361328125 1441 130.361328125 1441 237.721679688 1466 c 1,4,5
 340.946927733 950.413085938 340.946927733 950.413085938 424.5625 484.827148438 c 2,6,7
 440.313476562 404.442382812 440.313476562 404.442382812 454.006835938 322.892578125 c 1,8,9
 467.295898438 364.584960938 467.295898438 364.584960938 480.5859375 456.278320312 c 1,10,11
 635.110235863 936.138671875 635.110235863 936.138671875 764.147460938 1466 c 1,12,13
 880.024414062 1441 880.024414062 1441 995.901367188 1466 c 1,14,15
 1093.45668644 1060.33789062 1093.45668644 1060.33789062 1172.38085938 704.674804688 c 2,16,17
 1216.04785156 516.840820312 1216.04785156 516.840820312 1244.43847656 339.828125 c 1,18,19
 1258.92773438 417.942382812 1258.92773438 417.942382812 1276.51757812 503.9375 c 2,20,21
 1412.8419058 959.96875 1412.8419058 959.96875 1519.54296875 1466 c 1,22,23
 1625.41503906 1441 1625.41503906 1441 1731.28710938 1466 c 1,24,25
 1510.65917969 733 1510.65917969 733 1340.03222656 0 c 1,26,27
 1243.55175781 25 1243.55175781 25 1147.07128906 -0 c 1,28,29
 888.6171875 1136.59082031 888.6171875 1136.59082031 885.377929688 1151.25195312 c 128,-1,30
 882.130859375 1165.95214844 882.130859375 1165.95214844 876.626953125 1190.86328125 c 1,31,32
 873.715820312 1177.21386719 873.715820312 1177.21386719 554.969726562 0 c 1,33,34
 453.924804688 25 453.924804688 25 352.879882812 0 c 1,0,1
EndSplineSet
EndChar

StartChar: X
Encoding: 88 88 59
Width: 1220
GlyphClass: 1
Flags: W
LayerCount: 2
Fore
SplineSet
257.747070312 0 m 1,0,-1
 8 0 l 1,1,2
 248.188476562 393.205078125 248.188476562 393.205078125 502.583068229 763.232421875 c 1,3,4
 276.15234375 1102.03027344 276.15234375 1102.03027344 63.9287109375 1466 c 1,5,6
 187.390625 1441 187.390625 1441 310.852539062 1466 c 1,7,8
 433.054067086 1246.73828125 433.054067086 1246.73828125 555.256649826 1077.4765625 c 2,9,10
 605.809197151 996.438476562 605.809197151 996.438476562 636.407568744 940.735351562 c 1,11,12
 670.96850909 1000.09082031 670.96850909 1000.09082031 715.227564867 1065.21875 c 2,13,14
 850.425305871 1240.609375 850.425305871 1240.609375 985.623046875 1466 c 1,15,16
 1100.83300781 1441 1100.83300781 1441 1216.04296875 1466 c 1,17,18
 997.33203125 1106.93164062 997.33203125 1106.93164062 762.054854584 773.370117188 c 1,19,20
 1013.38476562 398.107421875 1013.38476562 398.107421875 1248.14941406 0 c 1,21,22
 1121.11132812 25 1121.11132812 25 994.073242188 -0 c 1,23,24
 827.596838717 292.837890625 827.596838717 292.837890625 661.120435247 535.676757812 c 2,25,26
 645.207865919 561.78125 645.207865919 561.78125 628.58180833 591.30078125 c 1,27,28
 602.929757538 545.295898438 602.929757538 545.295898438 589.7998972 523.69921875 c 2,29,30
 423.772959903 286.849609375 423.772959903 286.849609375 257.747070312 0 c 1,0,-1
EndSplineSet
EndChar

StartChar: Y
Encoding: 89 89 60
Width: 1220
GlyphClass: 1
Flags: W
LayerCount: 2
Fore
SplineSet
725.803622794 618.305664062 m 1,0,1
 725.803622794 323.131835938 725.803622794 323.131835938 725.803622794 0 c 1,2,-1
 501.726446101 0 l 1,3,4
 501.726446101 323.227539062 501.726446101 323.227539062 501.726446101 618.502929688 c 1,5,6
 245.103515625 1032.05175781 245.103515625 1032.05175781 5 1466 c 1,7,8
 130.599609375 1441 130.599609375 1441 256.200195312 1466 c 1,9,10
 386.502849291 1213.37792969 386.502849291 1213.37792969 516.80655028 1010.75585938 c 2,11,12
 576.810769573 906.018554688 576.810769573 906.018554688 625.250748732 810.131835938 c 1,13,14
 675.066500778 906.817382812 675.066500778 906.817382812 741.877340724 1021.86328125 c 2,15,16
 870.589584493 1218.93164062 870.589584493 1218.93164062 999.30078125 1466 c 1,17,18
 1120.73046875 1441 1120.73046875 1441 1242.16015625 1466 c 1,19,20
 992.742302282 1031.95605469 992.742302282 1031.95605469 725.803622794 618.305664062 c 1,0,1
EndSplineSet
EndChar

StartChar: Z
Encoding: 90 90 61
Width: 1126
GlyphClass: 1
Flags: W
LayerCount: 2
Fore
SplineSet
1086 0 m 1,0,-1
 36 0 l 1,1,2
 36 122.208984375 36 122.208984375 36 204.25 c 1,3,4
 352.345825887 657.130859375 352.345825887 657.130859375 692.857794001 1112.87792969 c 2,5,6
 745.812640892 1183.85058594 745.812640892 1183.85058594 796.968754148 1243 c 1,7,-1
 105 1243 l 1,8,9
 105 1329.5 105 1329.5 105 1466 c 1,10,-1
 1066 1466 l 1,11,12
 1066 1346.99609375 1066 1346.99609375 1066 1268.41796875 c 1,13,14
 715.784407849 779.201171875 715.784407849 779.201171875 343.37039175 284.731445312 c 1,15,16
 343.125841202 306.078125 343.125841202 306.078125 342.882363244 284.109375 c 1,17,18
 318.140926911 276.40625 318.140926911 276.40625 293.399490577 223 c 1,19,-1
 1086 223 l 1,20,21
 1086 136.5 1086 136.5 1086 0 c 1,0,-1
EndSplineSet
EndChar

StartChar: bracketleft
Encoding: 91 91 62
Width: 467
GlyphClass: 1
Flags: W
LayerCount: 2
Fore
SplineSet
92 -432 m 1
 92 1491 l 1
 468 1491 l 1
 468 1292 l 1
 289 1292 l 1
 289 -233 l 1
 468 -233 l 1
 468 -432 l 1
 92 -432 l 1
EndSplineSet
EndChar

StartChar: backslash
Encoding: 92 92 63
Width: 467
GlyphClass: 1
Flags: W
LayerCount: 2
Fore
SplineSet
-31.3935376452 1516 m 1
 138.915965086 1516 l 1
 498.393537645 -50 l 1
 328.084034914 -50 l 1
 -31.3935376452 1516 l 1
EndSplineSet
EndChar

StartChar: bracketright
Encoding: 93 93 64
Width: 467
GlyphClass: 1
Flags: W
LayerCount: 2
Fore
SplineSet
387 -432 m 1
 11 -432 l 1
 11 -233 l 1
 189 -233 l 1
 189 1292 l 1
 11 1292 l 1
 11 1491 l 1
 387 1491 l 1
 387 -432 l 1
EndSplineSet
EndChar

StartChar: asciicircum
Encoding: 94 94 65
Width: 788
GlyphClass: 1
Flags: W
LayerCount: 2
Fore
SplineSet
214.081457796 665 m 1
 9.35588436639 665 l 1
 317.458256401 1516 l 1
 471.541743599 1516 l 1
 779.644115634 665 l 1
 578.090030761 665 l 1
 393.355679981 1208.28279515 l 1
 214.081457796 665 l 1
EndSplineSet
EndChar

StartChar: underscore
Encoding: 95 95 66
Width: 934
GlyphClass: 1
Flags: W
LayerCount: 2
Fore
SplineSet
-37 -129 m 1
 968 -129 l 1
 968 -281 l 1
 -37 -281 l 1
 -37 -129 l 1
EndSplineSet
EndChar

StartChar: grave
Encoding: 96 96 67
Width: 559
GlyphClass: 1
Flags: W
LayerCount: 2
Fore
SplineSet
248.714808825 1169 m 1
 25.9648088248 1499 l 1
 288.043126824 1499 l 1
 417.685983967 1169 l 1
 248.714808825 1169 l 1
EndSplineSet
EndChar

StartChar: a
Encoding: 97 97 68
Width: 1034
GlyphClass: 1
Flags: W
LayerCount: 2
Fore
SplineSet
757.923828125 15.3720703125 m 2,0,1
 741.474609375 54.7080078125 741.474609375 54.7080078125 732.78515625 103.48828125 c 1,2,3
 573.423244528 -24 573.423244528 -24 391.320556998 -24 c 0,4,5
 234.561523438 -24 234.561523438 -24 146.216796875 60.7822265625 c 128,-1,6
 58 145.44140625 58 145.44140625 58 286.934570312 c 0,7,8
 58 380.09375 58 380.09375 99.0927734375 452.877929688 c 128,-1,9
 140.185546875 525.662109375 140.185546875 525.662109375 211.306640625 566.5234375 c 128,-1,10
 282.427734375 607.383789062 282.427734375 607.383789062 437.119116113 626.063476562 c 0,11,12
 619.437677925 648.0859375 619.437677925 648.0859375 712.547023174 677.534179688 c 1,13,14
 712.907920691 677.870117188 712.907920691 677.870117188 713.26771116 705.249023438 c 1,15,16
 713.211251732 799.38671875 713.211251732 799.38671875 676.038807498 834.45703125 c 0,17,18
 622.041453874 887 622.041453874 887 505.815847739 887 c 0,19,20
 399.306798368 887 399.306798368 887 349.364560094 850.287109375 c 0,21,22
 299.737304688 813.41015625 299.737304688 813.41015625 277.490234375 704.958007812 c 2,23,24
 275.07421875 668.180664062 275.07421875 668.180664062 272.658203125 681.40234375 c 1,25,26
 175.763671875 672.440429688 175.763671875 672.440429688 78.8681640625 713.478515625 c 1,27,28
 81.134765625 700.979492188 81.134765625 700.979492188 83.4013671875 738.481445312 c 2,29,30
 116.02734375 918.44921875 116.02734375 918.44921875 217.6015625 1002.28808594 c 0,31,32
 321.060674165 1086 321.060674165 1086 530.755416019 1086 c 0,33,34
 694.569677235 1086 694.569677235 1086 783.592773438 1032.29394531 c 0,35,36
 868.6796875 978.586914062 868.6796875 978.586914062 891.640625 897.209960938 c 0,37,38
 913 821.508789062 913 821.508789062 913 678.75 c 2,39,40
 913 563.106445312 913 563.106445312 913 449.313476562 c 2,41,42
 913 210.147460938 913 210.147460938 922.119140625 150.04296875 c 128,-1,43
 931.237304688 89.9384765625 931.237304688 89.9384765625 957.796875 33.716796875 c 2,44,45
 965.760742188 40.015625 965.760742188 40.015625 973.724609375 -0 c 1,46,-1
 764.352539062 -0 l 1,47,48
 761.138671875 32.685546875 761.138671875 32.685546875 757.923828125 15.3720703125 c 2,0,1
282.229492188 383.127929688 m 128,-1,50
 265 351.610351562 265 351.610351562 265 309 c 0,51,52
 265 243.586914062 265 243.586914062 304.661978101 205.29296875 c 0,53,54
 349.502941044 167 349.502941044 167 431.473173365 167 c 128,-1,55
 513.443405687 167 513.443405687 167 579.631567456 204.114257812 c 128,-1,56
 645.73891475 241.182617188 645.73891475 241.182617188 678.935951061 303.870117188 c 128,-1,57
 712.13409442 366.55859375 712.13409442 366.55859375 712.13409442 492 c 2,58,59
 712.13409442 530.8671875 712.13409442 530.8671875 712.13409442 519.734375 c 1,60,61
 621.958425305 488.49609375 621.958425305 488.49609375 472.183741722 465.375 c 0,62,63
 371.375987479 450.075195312 371.375987479 450.075195312 335.130142084 432.360351562 c 0,64,49
 299.458984375 414.645507812 299.458984375 414.645507812 282.229492188 383.127929688 c 128,-1,50
EndSplineSet
EndChar

StartChar: b
Encoding: 98 98 69
Width: 1034
GlyphClass: 1
Flags: W
LayerCount: 2
Fore
SplineSet
843.806640625 125.515625 m 0,0,1
 723.28515625 -24 723.28515625 -24 535.079749904 -24 c 0,2,3
 385.97192442 -24 385.97192442 -24 294 78.12109375 c 1,4,5
 294 64.060546875 294 64.060546875 294 0 c 1,6,-1
 107 0 l 1,7,8
 107 733 107 733 107 1466 c 1,9,-1
 304 1466 l 1,10,11
 304 1203.40136719 304 1203.40136719 304 990.801757812 c 1,12,13
 399.366185393 1086 399.366185393 1086 544.355748373 1086 c 0,14,15
 672.079634516 1086 672.079634516 1086 767.838867188 1023.30566406 c 0,16,17
 857.5234375 960.612304688 857.5234375 960.612304688 909.76171875 836.645507812 c 128,-1,18
 962 712.677734375 962 712.677734375 962 538.655273438 c 0,19,20
 962 272.14453125 962 272.14453125 843.806640625 125.515625 c 0,0,1
360.016792962 802.227539062 m 0,21,22
 292 712.439453125 292 712.439453125 292 538.4765625 c 0,23,24
 292 388.426757812 292 388.426757812 320.016601562 316.859375 c 128,-1,25
 348.033203125 245.291992188 348.033203125 245.291992188 403.847923911 209.646484375 c 0,26,27
 460.416567893 174 460.416567893 174 528.122751053 174 c 0,28,29
 618.396152167 174 618.396152167 174 691.482006802 259.645507812 c 0,30,31
 761 349.475585938 761 349.475585938 761 535.1796875 c 128,-1,32
 761 720.8828125 761 720.8828125 694.448695765 806.48046875 c 0,33,34
 624.26951692 888 624.26951692 888 524.644251627 888 c 0,35,36
 434.249691841 888 434.249691841 888 360.016792962 802.227539062 c 0,21,22
EndSplineSet
EndChar

StartChar: c
Encoding: 99 99 70
Width: 940
GlyphClass: 1
Flags: W
LayerCount: 2
Fore
SplineSet
790.495117188 82.650390625 m 128,-1,1
 683.311523438 -24 683.311523438 -24 508.719106789 -24 c 0,2,3
 298.861328125 -24 298.861328125 -24 180.838867188 119.595703125 c 0,4,5
 65 260.536132812 65 260.536132812 65 532.990234375 c 128,-1,6
 65 805.444335938 65 805.444335938 183.018554688 945.721679688 c 128,-1,7
 301.036132812 1086 301.036132812 1086 515.655305345 1086 c 0,8,9
 682.650390625 1086 682.650390625 1086 782.00390625 995.776367188 c 128,-1,10
 881.358398438 905.551757812 881.358398438 905.551757812 908.705078125 728.84765625 c 2,11,12
 910.556640625 691.8828125 910.556640625 691.8828125 912.408203125 704.91796875 c 1,13,14
 816.805664062 661.8671875 816.805664062 661.8671875 721.202148438 668.81640625 c 1,15,16
 718.831054688 656.012695312 718.831054688 656.012695312 716.459960938 693.208007812 c 2,17,18
 696.875 793.930664062 696.875 793.930664062 646.469932864 840.96484375 c 0,19,20
 593.620931724 888 593.620931724 888 521.435470808 888 c 0,21,22
 409.979881836 888 409.979881836 888 336.007311168 807.290039062 c 0,23,24
 266 723.287109375 266 723.287109375 266 531.3203125 c 128,-1,25
 266 339.353515625 266 339.353515625 332.926437819 254.743164062 c 0,26,27
 403.460261612 174 403.460261612 174 512.187206067 174 c 0,28,29
 596.64197133 174 596.64197133 174 657.946722337 231.486328125 c 0,30,31
 714.116210938 288.973632812 714.116210938 288.973632812 729.171875 416.947265625 c 2,32,33
 730.69140625 454.859375 730.69140625 454.859375 732.209960938 442.771484375 c 1,34,35
 829.587890625 452.326171875 829.587890625 452.326171875 926.96484375 411.879882812 c 1,36,37
 925.375 424.795898438 925.375 424.795898438 923.78515625 387.712890625 c 2,38,0
 897.678710938 189.299804688 897.678710938 189.299804688 790.495117188 82.650390625 c 128,-1,1
EndSplineSet
EndChar

StartChar: d
Encoding: 100 100 71
Width: 1034
GlyphClass: 1
Flags: W
LayerCount: 2
Fore
SplineSet
713 990.126953125 m 1,0,1
 713 1203.06347656 713 1203.06347656 713 1466 c 1,2,-1
 911 1466 l 1,3,4
 911 733 911 733 911 0 c 1,5,-1
 723 0 l 1,6,7
 723 63.466796875 723 63.466796875 723 76.93359375 c 1,8,9
 694.109375 43.3515625 694.109375 43.3515625 657.420466922 20.455078125 c 0,10,11
 577.27341067 -24 577.27341067 -24 484.158992623 -24 c 0,12,13
 292.732421875 -24 292.732421875 -24 172.711914062 124.537109375 c 0,14,15
 55 270.21484375 55 270.21484375 55 531 c 0,16,17
 55 708.782226562 55 708.782226562 107.208007812 834.67578125 c 128,-1,18
 159.416992188 960.5703125 159.416992188 960.5703125 249.130859375 1023.28515625 c 0,19,20
 344.901048954 1086 344.901048954 1086 472.569066395 1086 c 0,21,22
 565.382418 1086 565.382418 1086 644.777939972 1043.80175781 c 0,23,24
 683.525390625 1021.66210938 683.525390625 1021.66210938 713 990.126953125 c 1,0,1
483 888 m 0,25,26
 390.544306275 888 390.544306275 888 321.535576587 806.193359375 c 0,27,28
 256 720.06640625 256 720.06640625 256 532.551757812 c 128,-1,29
 256 345.036132812 256 345.036132812 326.361694305 257.659179688 c 0,30,31
 400.542881304 174 400.542881304 174 495.192059113 174 c 128,-1,32
 589.841236923 174 589.841236923 174 661.121546879 253.967773438 c 0,33,34
 726 337.591796875 726 337.591796875 726 511.374023438 c 0,35,36
 726 712.651367188 726 712.651367188 660.61109212 802.547851562 c 0,37,38
 589.273058899 888 589.273058899 888 483 888 c 0,25,26
EndSplineSet
EndChar

StartChar: e
Encoding: 101 101 72
Width: 1034
GlyphClass: 1
Flags: W
LayerCount: 2
Fore
SplineSet
809.4765625 68.2685546875 m 0,0,1
 701.66137384 -24 701.66137384 -24 523.710457843 -24 c 0,2,3
 300.127929688 -24 300.127929688 -24 179.064453125 118.151367188 c 128,-1,4
 58 260.302734375 58 260.302734375 58 522.387695312 c 0,5,6
 58 793.915039062 58 793.915039062 179.991210938 939.95703125 c 128,-1,7
 301.982421875 1086 301.982421875 1086 516.881112226 1086 c 0,8,9
 722.05078125 1086 722.05078125 1086 842.571289062 940.365234375 c 0,10,11
 961 797.258789062 961 797.258789062 961 530.196289062 c 1,12,13
 960.997070312 527.255859375 960.997070312 527.255859375 960.994140625 529.6875 c 1,14,15
 960.494140625 504.819335938 960.494140625 504.819335938 959.994140625 483.530273438 c 1,16,-1
 959.484375 460 l 1,17,-1
 261.692382812 460 l 1,18,19
 274.040039062 320.841796875 274.040039062 320.841796875 342.055866781 249.18359375 c 0,20,21
 417.727772856 174 417.727772856 174 524.848682113 174 c 0,22,23
 617.221583939 174 617.221583939 174 678.22884862 233.073242188 c 0,24,25
 727.766601562 282.682617188 727.766601562 282.682617188 755.038085938 374.145507812 c 2,26,27
 758.142578125 409.559570312 758.142578125 409.559570312 761.248046875 394.973632812 c 1,28,29
 861.249023438 404.841796875 861.249023438 404.841796875 961.250976562 364.709960938 c 1,30,31
 958.325195312 376.620117188 958.325195312 376.620117188 955.3984375 338.530273438 c 2,32,33
 915.612304688 160.537109375 915.612304688 160.537109375 809.4765625 68.2685546875 c 0,0,1
698.660196567 808.092773438 m 0,34,35
 626.341828208 888 626.341828208 888 515.742887956 888 c 0,36,37
 416.226072673 888 416.226072673 888 345.088167374 821.561523438 c 0,38,39
 282.1015625 759.940429688 282.1015625 759.940429688 270.911132812 658 c 1,40,-1
 752.658203125 658 l 1,41,42
 740.685546875 758.047851562 740.685546875 758.047851562 698.660196567 808.092773438 c 0,34,35
EndSplineSet
EndChar

StartChar: f
Encoding: 102 102 73
Width: 517
GlyphClass: 1
Flags: W
LayerCount: 2
Fore
SplineSet
516 872 m 1,0,-1
 346 872 l 1,1,2
 346 436 346 436 346 0 c 1,3,-1
 150 0 l 1,4,5
 150 436 150 436 150 872 c 1,6,-1
 19 872 l 1,7,8
 19 942 19 942 19 1062 c 1,9,-1
 150 1062 l 1,10,11
 150 1081 150 1081 150 1150 c 2,12,13
 150 1280.00292969 150 1280.00292969 178.50390625 1348.52148438 c 128,-1,14
 207.0078125 1417.04101562 207.0078125 1417.04101562 266.958984375 1454.02050781 c 128,-1,15
 326.911132812 1491 326.911132812 1491 415 1491 c 0,16,17
 480.977539062 1491 480.977539062 1491 558.846679688 1472.31152344 c 2,18,19
 569.87890625 1444.66308594 569.87890625 1444.66308594 580.911132812 1467.015625 c 1,20,21
 566.465820312 1338.92871094 566.465820312 1338.92871094 552.020507812 1260.84179688 c 1,22,23
 538.846679688 1238.70605469 538.846679688 1238.70605469 525.672851562 1266.5703125 c 2,24,25
 482.293945312 1276 482.293945312 1276 444 1276 c 0,26,27
 389.76953125 1276 389.76953125 1276 368.782226562 1250.59375 c 0,28,29
 359.689453125 1239.58691406 359.689453125 1239.58691406 352.844726562 1212.6640625 c 128,-1,30
 346 1185.74121094 346 1185.74121094 346 1135 c 2,31,32
 346 1073.5 346 1073.5 346 1062 c 1,33,-1
 516 1062 l 1,34,35
 516 942 516 942 516 872 c 1,0,-1
EndSplineSet
EndChar

StartChar: g
Encoding: 103 103 74
Width: 1034
GlyphClass: 1
Flags: W
LayerCount: 2
Fore
SplineSet
250.302734375 1024.41308594 m 0,0,1
 346.777181108 1086 346.777181108 1086 474.408057315 1086 c 0,2,3
 625.149963639 1086 625.149963639 1086 732 982.69921875 c 1,4,5
 732 997.349609375 732 997.349609375 732 1062 c 1,6,-1
 918 1062 l 1,7,8
 918 601.950195312 918 601.950195312 918 155.185546875 c 2,9,10
 918 -84.869140625 918 -84.869140625 875.75 -191.01171875 c 0,11,12
 833.5 -301.389648438 833.5 -301.389648438 736.024414062 -366.1953125 c 0,13,14
 626.419873204 -431 626.419873204 -431 473.278268093 -431 c 0,15,16
 273.651367188 -431 273.651367188 -431 175.326171875 -332.673828125 c 0,17,18
 79.904296875 -237.252929688 79.904296875 -237.252929688 79.904296875 -73.205078125 c 0,19,20
 79.904296875 -67.9013671875 79.904296875 -67.9013671875 80.5517578125 -33.177734375 c 1,21,22
 176.109375 -25.431640625 176.109375 -25.431640625 271.666992188 -67.6845703125 c 1,23,24
 272.747070312 -51.869140625 272.747070312 -51.869140625 273.828125 -86.052734375 c 2,25,26
 282.663085938 -161.15625 282.663085938 -161.15625 329.049199444 -196.578125 c 0,27,28
 377.264940463 -232 377.264940463 -232 467.629321981 -232 c 0,29,30
 567.233922968 -232 567.233922968 -232 624.440535445 -191.051757812 c 128,-1,31
 681.776235168 -150.01171875 681.776235168 -150.01171875 703.355871299 -66.3330078125 c 0,32,33
 714.014947156 -25.6923828125 714.014947156 -25.6923828125 716.597795368 93.4736328125 c 1,34,35
 613.352272082 0 613.352272082 0 473.278268093 0 c 0,36,37
 284.801757812 0 284.801757812 0 174.241210938 135.452148438 c 0,38,39
 51 287.216796875 51 287.216796875 51 539.17578125 c 0,40,41
 51 707.329101562 51 707.329101562 105.287109375 835.077148438 c 128,-1,42
 159.57421875 962.826171875 159.57421875 962.826171875 250.302734375 1024.41308594 c 0,0,1
320.61108619 805.905273438 m 0,43,44
 253 721.065429688 253 721.065429688 253 549.525390625 c 0,45,46
 253 362.188476562 253 362.188476562 319.981096301 278.770507812 c 0,47,48
 389.465340092 199 389.465340092 199 488.115578114 199 c 128,-1,49
 586.765816135 199 586.765816135 199 657.362196192 277.225585938 c 0,50,51
 730.870210778 358.676757812 730.870210778 358.676757812 730.870210778 539.762695312 c 128,-1,52
 730.870210778 720.849609375 730.870210778 720.849609375 655.03531585 805.586914062 c 0,53,54
 582.176047419 887 582.176047419 887 480.057003426 887 c 0,55,56
 390.665741141 887 390.665741141 887 320.61108619 805.905273438 c 0,43,44
EndSplineSet
EndChar

StartChar: h
Encoding: 104 104 75
Width: 1034
GlyphClass: 1
Flags: W
LayerCount: 2
Fore
SplineSet
305 1466 m 1,0,1
 305 1200.05859375 305 1200.05859375 305 984.1171875 c 1,2,3
 418.122364619 1086 418.122364619 1086 574.465753425 1086 c 0,4,5
 742.048828125 1086 742.048828125 1086 829.99609375 993.568359375 c 0,6,7
 917 902.127929688 917 902.127929688 917 667.278320312 c 2,8,9
 917 342.853515625 917 342.853515625 917 0 c 1,10,-1
 720 0 l 1,11,12
 720 336.177734375 720 336.177734375 720 660.513671875 c 2,13,14
 720 782.674804688 720 782.674804688 671.760247217 831.837890625 c 128,-1,15
 623.520494435 881 623.520494435 881 539.219178082 881 c 0,16,17
 442.943974743 881 442.943974743 881 373.971987372 815.516601562 c 128,-1,18
 305 750.033203125 305 750.033203125 305 573.454101562 c 2,19,20
 305 294.985351562 305 294.985351562 305 0 c 1,21,-1
 108 0 l 1,22,23
 108 733 108 733 108 1466 c 1,24,-1
 305 1466 l 1,0,1
EndSplineSet
EndChar

StartChar: i
Encoding: 105 105 76
Width: 423
GlyphClass: 1
Flags: W
LayerCount: 2
Fore
SplineSet
305 1209 m 1,0,-1
 108 1209 l 1,1,2
 108 1312.5 108 1312.5 108 1466 c 1,3,-1
 305 1466 l 1,4,5
 305 1312.5 305 1312.5 305 1209 c 1,0,-1
305 0 m 1,6,-1
 108 0 l 1,7,8
 108 531 108 531 108 1062 c 1,9,-1
 305 1062 l 1,10,11
 305 531 305 531 305 0 c 1,6,-1
EndSplineSet
EndChar

StartChar: j
Encoding: 106 106 77
Width: 423
GlyphClass: 1
Flags: W
LayerCount: 2
Fore
SplineSet
307.482421875 1207 m 1,0,-1
 110.482421875 1207 l 1,1,2
 110.482421875 1311.5 110.482421875 1311.5 110.482421875 1466 c 1,3,-1
 307.482421875 1466 l 1,4,5
 307.482421875 1311.5 307.482421875 1311.5 307.482421875 1207 c 1,0,-1
-43 -201.560546875 m 1,6,7
 -29.4697265625 -180.866210938 -29.4697265625 -180.866210938 -15.9384765625 -210.170898438 c 2,8,9
 24.3798828125 -223 24.3798828125 -223 42.62890625 -223 c 128,-1,10
 60.87890625 -223 60.87890625 -223 72.63671875 -217.579101562 c 128,-1,11
 84.3955078125 -212.157226562 84.3955078125 -212.157226562 91.927734375 -199.1953125 c 128,-1,12
 99.458984375 -186.233398438 99.458984375 -186.233398438 104.970703125 -147.010742188 c 128,-1,13
 110.482421875 -107.7890625 110.482421875 -107.7890625 110.482421875 -29 c 2,14,15
 110.482421875 516.5 110.482421875 516.5 110.482421875 1062 c 1,16,-1
 307.482421875 1062 l 1,17,18
 307.482421875 514.5 307.482421875 514.5 307.482421875 -33 c 2,19,20
 307.482421875 -257.982421875 307.482421875 -257.982421875 247.366210938 -342.470703125 c 0,21,22
 184.374023438 -431 184.374023438 -431 64.482421875 -431 c 0,23,24
 0.341796875 -431 0.341796875 -431 -59.544921875 -410.681640625 c 2,25,26
 -69.7724609375 -382.2109375 -69.7724609375 -382.2109375 -80 -403.741210938 c 1,27,28
 -61.5 -277.651367188 -61.5 -277.651367188 -43 -201.560546875 c 1,6,7
EndSplineSet
EndChar

StartChar: k
Encoding: 107 107 78
Width: 940
GlyphClass: 1
Flags: W
LayerCount: 2
Fore
SplineSet
309 0 m 1,0,-1
 112 0 l 1,1,2
 112 733 112 733 112 1466 c 1,3,-1
 309 1466 l 1,4,5
 309 1045.78222656 309 1045.78222656 309 675.564453125 c 1,6,7
 487.716121747 843.782226562 487.716121747 843.782226562 666.432243494 1062 c 1,8,9
 800.470703125 1037 800.470703125 1037 928.857421875 1062 c 1,10,11
 750.51171875 845.659179688 750.51171875 845.659179688 552.362037214 658.947265625 c 1,12,13
 761.186523438 338.53515625 761.186523438 338.53515625 950.205078125 -0 c 1,14,15
 831.094726562 25 831.094726562 25 711.983398438 0 c 1,16,17
 552.840326013 286.913085938 552.840326013 286.913085938 393.697253589 523.826171875 c 1,18,19
 351.34918424 505.311523438 351.34918424 505.311523438 309 436.796875 c 1,20,21
 309 243.3984375 309 243.3984375 309 0 c 1,0,-1
EndSplineSet
EndChar

StartChar: l
Encoding: 108 108 79
Width: 423
GlyphClass: 1
Flags: W
LayerCount: 2
Fore
SplineSet
301 0 m 1,0,-1
 104 0 l 1,1,2
 104 733 104 733 104 1466 c 1,3,-1
 301 1466 l 1,4,5
 301 733 301 733 301 0 c 1,0,-1
EndSplineSet
EndChar

StartChar: m
Encoding: 109 109 80
Width: 1549
GlyphClass: 1
Flags: W
LayerCount: 2
Fore
SplineSet
307 0 m 1,0,-1
 110 0 l 1,1,2
 110 531 110 531 110 1062 c 1,3,-1
 292 1062 l 1,4,5
 292 991.2109375 292 991.2109375 292 970.422851562 c 1,6,7
 327.862182617 1010.00390625 327.862182617 1010.00390625 375.645568848 1036.95507812 c 0,8,9
 462.596923828 1086 462.596923828 1086 566 1086 c 0,10,11
 681.310546875 1086 681.310546875 1086 751.454101562 1033.53125 c 0,12,13
 802.776367188 995.139648438 802.776367188 995.139648438 832.446289062 931.411132812 c 1,14,15
 877.681751179 997.196289062 877.681751179 997.196289062 941.357802673 1035.1015625 c 0,16,17
 1026.8585397 1086 1026.8585397 1086 1130.74842767 1086 c 0,18,19
 1282.58105469 1086 1282.58105469 1086 1361.29101562 997.168945312 c 128,-1,20
 1440 908.337890625 1440 908.337890625 1440 720.813476562 c 2,21,22
 1440 368.443359375 1440 368.443359375 1440 0 c 1,23,-1
 1243 0 l 1,24,25
 1243 334.346679688 1243 334.346679688 1243 656.688476562 c 2,26,27
 1243 760.553710938 1243 760.553710938 1226.232557 800.022460938 c 128,-1,28
 1209.46511399 839.490234375 1209.46511399 839.490234375 1174.31869104 859.685546875 c 0,29,30
 1138.96319772 880 1138.96319772 880 1094.87421384 880 c 0,31,32
 998.893966195 880 998.893966195 880 938.164111635 817.514648438 c 0,33,34
 875 752.524414062 875 752.524414062 875 607.483398438 c 2,35,36
 875 311.067382812 875 311.067382812 875 0 c 1,37,-1
 677 0 l 1,38,39
 677 343.748046875 677 343.748046875 677 676.559570312 c 2,40,41
 677 793.58203125 677 793.58203125 635.939575195 838.385742188 c 0,42,43
 597.801391602 880 597.801391602 880 530.15625 880 c 0,44,45
 428.20413208 880 428.20413208 880 369.233123779 812.764648438 c 0,46,47
 307 741.8125 307 741.8125 307 545.032226562 c 2,48,49
 307 281.520507812 307 281.520507812 307 0 c 1,0,-1
EndSplineSet
EndChar

StartChar: n
Encoding: 110 110 81
Width: 1034
GlyphClass: 1
Flags: W
LayerCount: 2
Fore
SplineSet
291 1062 m 1,0,1
 291 990.081054688 291 990.081054688 291 968.162109375 c 1,2,3
 399.576946668 1086 399.576946668 1086 575.782369146 1086 c 0,4,5
 661.687373558 1086 661.687373558 1086 733.092773438 1056.1484375 c 0,6,7
 797.680664062 1027.64648438 797.680664062 1027.64648438 837.837890625 980.900390625 c 128,-1,8
 877.873046875 934.296875 877.873046875 934.296875 896.936523438 862.500976562 c 128,-1,9
 916 790.705078125 916 790.705078125 916 647.353515625 c 2,10,11
 916 332.916015625 916 332.916015625 916 0 c 1,12,-1
 718 0 l 1,13,14
 718 324.05078125 718 324.05078125 718 634.924804688 c 2,15,16
 718 741.381835938 718 741.381835938 697.679544916 787.012695312 c 128,-1,17
 677.359089833 832.643554688 677.359089833 832.643554688 636.388190319 856.294921875 c 128,-1,18
 595.326182636 880 595.326182636 880 540.512396694 880 c 0,19,20
 433.603625925 880 433.603625925 880 370.483441482 814.170898438 c 0,21,22
 305 745.87890625 305 745.87890625 305 572.47265625 c 2,23,24
 305 294.502929688 305 294.502929688 305 0 c 1,25,-1
 108 0 l 1,26,27
 108 531 108 531 108 1062 c 1,28,-1
 291 1062 l 1,0,1
EndSplineSet
EndChar

StartChar: o
Encoding: 111 111 82
Width: 1034
GlyphClass: 1
Flags: W
LayerCount: 2
Fore
SplineSet
845.340820312 944.41015625 m 0,0,1
 969 802.8203125 969 802.8203125 969 541.525390625 c 0,2,3
 969 259.293945312 969 259.293945312 847.40625 117.646484375 c 128,-1,4
 725.8125 -24 725.8125 -24 512.740127977 -24 c 0,5,6
 299.325386619 -24 299.325386619 -24 176.12890625 118.094726562 c 128,-1,7
 53 260.188476562 53 260.188476562 53 531.461914062 c 128,-1,8
 53 802.734375 53 802.734375 175.110351562 944.3671875 c 128,-1,9
 297.220703125 1086 297.220703125 1086 509.2443747 1086 c 0,10,11
 721.474677803 1086 721.474677803 1086 845.340820312 944.41015625 c 0,0,1
506.465926084 887 m 0,12,13
 401.810290269 887 401.810290269 887 326.43906008 802.193359375 c 0,14,15
 254 713.9609375 254 713.9609375 254 530.08984375 c 128,-1,16
 254 346.217773438 254 346.217773438 327.424247039 258.504882812 c 0,17,18
 403.920140094 174 403.920140094 174 515.534073916 174 c 0,19,20
 619.071688575 174 619.071688575 174 695.008571052 259.290039062 c 0,21,22
 768 347.984375 768 347.984375 768 531.3828125 c 128,-1,23
 768 714.782226562 768 714.782226562 694.575752961 802.495117188 c 0,24,25
 618.079859906 887 618.079859906 887 506.465926084 887 c 0,12,13
EndSplineSet
EndChar

StartChar: p
Encoding: 112 112 83
Width: 1034
GlyphClass: 1
Flags: W
LayerCount: 2
Fore
SplineSet
306.598976655 -407 m 1,0,-1
 108 -407 l 1,1,2
 108 327.5 108 327.5 108 1062 c 1,3,-1
 293 1062 l 1,4,5
 293 995.55859375 293 995.55859375 293 979.1171875 c 1,6,7
 331.626715673 1020.11230469 331.626715673 1020.11230469 375.509090536 1044.23535156 c 0,8,9
 451.486511133 1086 451.486511133 1086 549.114060335 1086 c 0,10,11
 675.124825216 1086 675.124825216 1086 769.354492188 1023.296875 c 0,12,13
 858.515625 960.59375 858.515625 960.59375 911.2578125 836.169921875 c 128,-1,14
 964 711.74609375 964 711.74609375 964 539.612304688 c 0,15,16
 964 272.116210938 964 272.116210938 845.2734375 125.475585938 c 0,17,18
 724.251953125 -24 724.251953125 -24 537.781579789 -24 c 0,19,20
 452.949552078 -24 452.949552078 -24 379.434511288 14.482421875 c 0,21,22
 340.13160952 35.056640625 340.13160952 35.056640625 306.598976655 64.875 c 1,23,24
 306.598976655 -146.0625 306.598976655 -146.0625 306.598976655 -407 c 1,0,-1
528.715595352 895 m 0,25,26
 442.860988342 895 442.860988342 895 368.583439828 804.739257812 c 0,27,28
 291 710.13671875 291 710.13671875 291 525.272460938 c 128,-1,29
 291 340.407226562 291 340.407226562 363.738361719 255.28125 c 0,30,31
 433.445290639 174 433.445290639 174 529.848843407 174 c 0,32,33
 621.661856204 174 621.661856204 174 693.641921358 258.494140625 c 0,34,35
 763 346.913085938 763 346.913085938 763 535.491210938 c 128,-1,36
 763 724.069335938 763 724.069335938 695.76676146 811.609375 c 0,37,38
 626.037698789 895 626.037698789 895 528.715595352 895 c 0,25,26
EndSplineSet
EndChar

StartChar: q
Encoding: 113 113 84
Width: 1034
GlyphClass: 1
Flags: W
LayerCount: 2
Fore
SplineSet
297.34375 1052.72949219 m 0,0,1
 373.374592657 1086 373.374592657 1086 468.619443556 1086 c 0,2,3
 624.078057543 1086 624.078057543 1086 727 976.5234375 c 1,4,5
 727 994.26171875 727 994.26171875 727 1062 c 1,6,-1
 910 1062 l 1,7,8
 910 327.5 910 327.5 910 -407 c 1,9,-1
 711.134527236 -407 l 1,10,11
 711.134527236 -146.344726562 711.134527236 -146.344726562 711.134527236 64.3095703125 c 1,12,13
 681.313724425 37.8232421875 681.313724425 37.8232421875 643.662000486 17.623046875 c 0,14,15
 566.082096313 -24 566.082096313 -24 486.751412429 -24 c 0,16,17
 296.704101562 -24 296.704101562 -24 175.18359375 126.762695312 c 0,18,19
 56 274.625976562 56 274.625976562 56 539.818359375 c 0,20,21
 56 770.213867188 56 770.213867188 155.711914062 924.55859375 c 0,22,23
 212.84375 1012.99316406 212.84375 1012.99316406 297.34375 1052.72949219 c 0,0,1
478.818676047 894 m 0,24,25
 390.706426429 894 390.706426429 894 322.660635527 811.237304688 c 0,26,27
 257 724.12109375 257 724.12109375 257 536.00390625 c 128,-1,28
 257 347.88671875 257 347.88671875 327.421605381 259.036132812 c 0,29,30
 400.527171777 174 400.527171777 174 499.21714103 174 c 0,31,32
 585.421461306 174 585.421461306 174 655.128390226 255.274414062 c 0,33,34
 728 340.392578125 728 340.392578125 728 513.428710938 c 0,35,36
 728 711.008789062 728 711.008789062 650.867643146 804.66015625 c 0,37,38
 577.160038721 894 577.160038721 894 478.818676047 894 c 0,24,25
EndSplineSet
EndChar

StartChar: r
Encoding: 114 114 85
Width: 609
GlyphClass: 1
Flags: W
LayerCount: 2
Fore
SplineSet
305 0 m 1,0,-1
 108 0 l 1,1,2
 108 531 108 531 108 1062 c 1,3,-1
 291 1062 l 1,4,5
 291 995.220703125 291 995.220703125 291 978.44140625 c 1,6,7
 317.311523438 1021.21679688 317.311523438 1021.21679688 343.225585938 1043.47167969 c 0,8,9
 392.745117188 1086 392.745117188 1086 455 1086 c 0,10,11
 537.357421875 1086 537.357421875 1086 621.020507812 1022.98046875 c 2,12,13
 627.982421875 992.736328125 627.982421875 992.736328125 634.943359375 1012.49316406 c 1,14,15
 602.453125 878.973632812 602.453125 878.973632812 569.961914062 795.455078125 c 1,16,17
 555.762695312 780.524414062 555.762695312 780.524414062 541.5625 815.592773438 c 2,18,19
 493.040039062 850 493.040039062 850 449 850 c 0,20,21
 411.151367188 850 411.151367188 850 378.625 824.006835938 c 128,-1,22
 346.099609375 798.014648438 346.099609375 798.014648438 332.127929688 749.35546875 c 0,23,24
 305 655.108398438 305 655.108398438 305 548.72265625 c 2,25,26
 305 282.729492188 305 282.729492188 305 0 c 1,0,-1
EndSplineSet
EndChar

StartChar: s
Encoding: 115 115 86
Width: 940
GlyphClass: 1
Flags: W
LayerCount: 2
Fore
SplineSet
247.930664062 399.626953125 m 1,0,1
 249.481445312 411.267578125 249.481445312 411.267578125 251.032226562 372.908203125 c 2,2,3
 262.982421875 269.951171875 262.982421875 269.951171875 316.89824673 221.975585938 c 0,4,5
 376.922255206 174 376.922255206 174 478.309351884 174 c 128,-1,6
 579.696448562 174 579.696448562 174 632.378474439 212.436523438 c 0,7,8
 677.200195312 250.874023438 677.200195312 250.874023438 677.200195312 309.567382812 c 0,9,10
 677.200195312 357.706054688 677.200195312 357.706054688 641.915039062 383.723632812 c 0,11,12
 611.423686889 403.797851562 611.423686889 403.797851562 476.548194525 436.701171875 c 0,13,14
 274.625 487.884765625 274.625 487.884765625 212.34765625 525.548828125 c 128,-1,15
 150.0703125 563.211914062 150.0703125 563.211914062 115.135742188 627.380859375 c 128,-1,16
 80.2001953125 691.55078125 80.2001953125 691.55078125 80.2001953125 772.204101562 c 0,17,18
 80.2001953125 911.107421875 80.2001953125 911.107421875 174.610351562 998.553710938 c 128,-1,19
 269.021484375 1086 269.021484375 1086 456.988326265 1086 c 0,20,21
 577.67238049 1086 577.67238049 1086 665.036132812 1048.29492188 c 0,22,23
 744.217773438 1010.58886719 744.217773438 1010.58886719 786.7109375 946.3046875 c 128,-1,24
 829.204101562 882.020507812 829.204101562 882.020507812 844.969726562 766.403320312 c 2,25,26
 846.611328125 729.365234375 846.611328125 729.365234375 848.252929688 742.327148438 c 1,27,28
 751.309570312 701.169921875 751.309570312 701.169921875 654.365234375 710.012695312 c 1,29,30
 652.865234375 698.06640625 652.865234375 698.06640625 651.364257812 736.119140625 c 2,31,32
 643.375976562 805.616210938 643.375976562 805.616210938 606.446752634 842.666015625 c 0,33,34
 558.909280942 888 558.909280942 888 459.115721692 888 c 128,-1,35
 359.323310523 888 359.323310523 888 313.517146065 857.740234375 c 0,36,37
 272.200195312 827.481445312 272.200195312 827.481445312 272.200195312 782.576171875 c 128,-1,38
 272.200195312 737.671875 272.200195312 737.671875 308.692906678 712.701171875 c 0,39,40
 336.648696556 696.000976562 336.648696556 696.000976562 488.341289952 655.53125 c 0,41,42
 695.921875 598.661132812 695.921875 598.661132812 754.181640625 563.372070312 c 128,-1,43
 812.44140625 528.083007812 812.44140625 528.083007812 845.3203125 466.2578125 c 128,-1,44
 878.200195312 404.432617188 878.200195312 404.432617188 878.200195312 321.048828125 c 0,45,46
 878.200195312 166.947265625 878.200195312 166.947265625 774.278320312 70.9736328125 c 128,-1,47
 670.356445312 -25 670.356445312 -25 468.744683076 -25 c 0,48,49
 258.001953125 -25 258.001953125 -25 157.807617188 89.0693359375 c 0,50,51
 78.7509765625 179.073242188 78.7509765625 179.073242188 55.4638671875 338.358398438 c 2,52,53
 53.732421875 375.205078125 53.732421875 375.205078125 52 362.05078125 c 1,54,55
 149.965820312 405.838867188 149.965820312 405.838867188 247.930664062 399.626953125 c 1,0,1
EndSplineSet
EndChar

StartChar: t
Encoding: 116 116 87
Width: 517
GlyphClass: 1
Flags: W
LayerCount: 2
Fore
SplineSet
488.3515625 2.8154296875 m 2,0,1
 424.243164062 -14 424.243164062 -14 372 -14 c 0,2,3
 287.6015625 -14 287.6015625 -14 233.805664062 20.91015625 c 0,4,5
 180.009765625 53.8828125 180.009765625 53.8828125 159.75390625 111.82421875 c 0,6,7
 141 165.471679688 141 165.471679688 141 318.516601562 c 2,8,9
 141 587.000976562 141 587.000976562 141 872 c 1,10,-1
 33 872 l 1,11,12
 33 942 33 942 33 1062 c 1,13,-1
 141 1062 l 1,14,15
 141 1162.32519531 141 1162.32519531 141 1312.65136719 c 1,16,17
 239.5 1360.01855469 239.5 1360.01855469 338 1457.38574219 c 1,18,19
 338 1234.69238281 338 1234.69238281 338 1062 c 1,20,-1
 487 1062 l 1,21,22
 487 942 487 942 487 872 c 1,23,-1
 338 872 l 1,24,25
 338 590.799804688 338 590.799804688 338 317.50390625 c 2,26,27
 338 274.674804688 338 274.674804688 341.198242188 253.206054688 c 128,-1,28
 344.396484375 231.737304688 344.396484375 231.737304688 348.125 225.06640625 c 0,29,30
 354.53515625 213.766601562 354.53515625 213.766601562 366.782226562 208.883789062 c 128,-1,31
 379.029296875 204 379.029296875 204 399.418945312 204 c 128,-1,32
 419.80859375 204 419.80859375 204 457.66796875 210.625 c 2,33,34
 470.600585938 237.888671875 470.600585938 237.888671875 483.532226562 215.151367188 c 1,35,36
 496.537109375 136.762695312 496.537109375 136.762695312 509.541992188 8.3740234375 c 1,37,38
 498.947265625 30.5947265625 498.947265625 30.5947265625 488.3515625 2.8154296875 c 2,0,1
EndSplineSet
EndChar

StartChar: u
Encoding: 117 117 88
Width: 1034
GlyphClass: 1
Flags: W
LayerCount: 2
Fore
SplineSet
729 0 m 1,0,1
 729 74.77734375 729 74.77734375 729 99.5546875 c 1,2,3
 616.845318992 -24 616.845318992 -24 445.451523546 -24 c 0,4,5
 318.600591348 -24 318.600591348 -24 236.889648438 33.9208984375 c 0,6,7
 157.264648438 91.79296875 157.264648438 91.79296875 130.473632812 180.649414062 c 0,8,9
 105 265.139648438 105 265.139648438 105 409.061523438 c 2,10,11
 105 726 105 726 105 1062 c 1,12,-1
 302 1062 l 1,13,14
 302 763.432617188 302 763.432617188 302 480.975585938 c 2,15,16
 302 329.241210938 302 329.241210938 318.864092798 282.094726562 c 128,-1,17
 335.727073775 234.947265625 335.727073775 234.947265625 378.865707778 207.955078125 c 128,-1,18
 421.945415296 181 421.945415296 181 477.329639889 181 c 0,19,20
 584.137784583 181 584.137784583 181 652.90165664 254.124023438 c 0,21,22
 713 318.717773438 713 318.717773438 713 499.901367188 c 2,23,24
 713 772.38671875 713 772.38671875 713 1062 c 1,25,-1
 911 1062 l 1,26,27
 911 531 911 531 911 0 c 1,28,-1
 729 0 l 1,0,1
EndSplineSet
EndChar

StartChar: v
Encoding: 118 118 89
Width: 940
GlyphClass: 1
Flags: W
LayerCount: 2
Fore
SplineSet
382.780902736 0 m 1,0,1
 194.291992188 531 194.291992188 531 21 1062 c 1,2,3
 125.34765625 1037 125.34765625 1037 229.696289062 1062 c 1,4,5
 336.421950378 710.052734375 336.421950378 710.052734375 443.146527502 408.104492188 c 2,6,7
 462.408277019 349.549804688 462.408277019 349.549804688 479.085313553 291.5546875 c 1,8,9
 493.572282879 340.03125 493.572282879 340.03125 512.059919531 396.171875 c 0,10,11
 585.839163853 618.145507812 585.839163853 618.145507812 733.366210938 1062 c 1,12,13
 835.651367188 1037 835.651367188 1037 937.935546875 1062 c 1,14,15
 765.166992188 531 765.166992188 531 576.863140874 0 c 1,16,17
 479.821479709 25 479.821479709 25 382.780902736 0 c 1,0,1
EndSplineSet
EndChar

StartChar: w
Encoding: 119 119 90
Width: 1362
GlyphClass: 1
Flags: W
LayerCount: 2
Fore
SplineSet
280.5234375 0 m 1,0,1
 141.26171875 531 141.26171875 531 2 1062 c 1,2,3
 104.520507812 1037 104.520507812 1037 207.041015625 1062 c 1,4,5
 288.931848221 720.736328125 288.931848221 720.736328125 349.436523438 429.47265625 c 1,6,7
 362.353515625 346.7265625 362.353515625 346.7265625 375.270507812 313.981445312 c 1,8,9
 386.450195312 342.206054688 386.450195312 342.206054688 397.629882812 420.431640625 c 1,10,11
 508.113127242 716.215820312 508.113127242 716.215820312 589.973632812 1062 c 1,12,13
 686.145507812 1037 686.145507812 1037 782.317382812 1062 c 1,14,15
 859.464432819 719.15625 859.464432819 719.15625 916.47265625 426.3125 c 2,16,17
 916.489257812 426.231445312 916.489257812 426.231445312 937.474609375 329.412109375 c 1,18,19
 949.608398438 354.16015625 949.608398438 354.16015625 961.7421875 428.908203125 c 1,20,21
 1077.02659414 720.454101562 1077.02659414 720.454101562 1165.375 1062 c 1,22,23
 1263.32910156 1037 1263.32910156 1037 1361.28320312 1062 c 1,24,25
 1168.35644531 531 1168.35644531 531 1025.4296875 -0 c 1,26,27
 929.168945312 25 929.168945312 25 832.908203125 -0 c 1,28,29
 749.564084056 353.034179688 749.564084056 353.034179688 689.522460938 656.068359375 c 1,30,31
 684.259765625 709.930664062 684.259765625 709.930664062 678.998046875 713.79296875 c 1,32,33
 564.608346259 381.896484375 564.608346259 381.896484375 475.231445312 0 c 1,34,35
 377.876953125 25 377.876953125 25 280.5234375 0 c 1,0,1
EndSplineSet
EndChar

StartChar: x
Encoding: 120 120 91
Width: 940
GlyphClass: 1
Flags: W
LayerCount: 2
Fore
SplineSet
249.08203125 0 m 1,0,-1
 12 0 l 1,1,2
 178.200195312 287.012695312 178.200195312 287.012695312 353.140044405 551.051757812 c 1,3,4
 190.192382812 794.13671875 190.192382812 794.13671875 35.9853515625 1062 c 1,5,6
 157.088867188 1037 157.088867188 1037 278.192382812 1062 c 1,7,8
 358.061676793 905.89453125 358.061676793 905.89453125 437.930970774 799.788085938 c 2,9,10
 463.337295022 757.934570312 463.337295022 757.934570312 483.362103891 723.030273438 c 1,11,12
 509.887181952 765.153320312 509.887181952 765.153320312 532.300950298 798.607421875 c 0,13,14
 698.707841622 1048.29199219 698.707841622 1048.29199219 698.707841622 1049.60742188 c 2,15,16
 702.815834874 1030.80371094 702.815834874 1030.80371094 706.923828125 1062 c 1,17,18
 824.204101562 1037 824.204101562 1037 941.484375 1062 c 1,19,20
 783.376953125 798.57421875 783.376953125 798.57421875 614.489558015 560.344726562 c 1,21,22
 794.397460938 291.450195312 794.397460938 291.450195312 963.524414062 0 c 1,23,24
 843.948242188 25 843.948242188 25 724.373046875 0 c 1,25,26
 620.304026843 196.674804688 620.304026843 196.674804688 516.235006811 343.350585938 c 1,27,28
 502.123546294 392.263671875 502.123546294 392.263671875 488.010994404 391.176757812 c 1,29,30
 368.547058514 220.588867188 368.547058514 220.588867188 249.08203125 0 c 1,0,-1
EndSplineSet
EndChar

StartChar: y
Encoding: 121 121 92
Width: 940
GlyphClass: 1
Flags: W
LayerCount: 2
Fore
SplineSet
129.721679688 -191.228515625 m 2,0,1
 174.958007812 -206 174.958007812 -206 205.963867188 -206 c 0,2,3
 246.605870785 -206 246.605870785 -206 273.756958338 -190.764648438 c 128,-1,4
 300.937318717 -175.513671875 300.937318717 -175.513671875 319.627475581 -141.84375 c 1,5,6
 330.07136914 -118.961914062 330.07136914 -118.961914062 379.771205603 23.046875 c 1,7,8
 196.380859375 542.5234375 196.380859375 542.5234375 27 1062 c 1,9,10
 132.821289062 1037 132.821289062 1037 238.642578125 1062 c 1,11,12
 342.613148512 720.544921875 342.613148512 720.544921875 446.582634721 429.090820312 c 2,13,14
 468.79420405 361.421875 468.79420405 361.421875 489.085692875 288.298828125 c 1,15,16
 507.711883194 357.724609375 507.711883194 357.724609375 529.931041774 425.196289062 c 0,17,18
 736.428056501 1044.1953125 736.428056501 1044.1953125 736.428056501 1044.19628906 c 2,19,20
 739.397622 1028.09765625 739.397622 1028.09765625 742.3671875 1062 c 1,21,22
 842.573242188 1037 842.573242188 1037 942.779296875 1062 c 1,23,24
 772.315429688 530.803710938 772.315429688 530.803710938 586.366880592 -0.392578125 c 2,25,26
 513.433094272 -212.635742188 513.433094272 -212.635742188 469.503256929 -287.026367188 c 128,-1,27
 425.573419586 -361.416015625 425.573419586 -361.416015625 366.388103548 -396.208007812 c 128,-1,28
 307.20278751 -431 307.20278751 -431 232.963867188 -431 c 0,29,30
 185.971679688 -431 185.971679688 -431 128.396484375 -407.100585938 c 2,31,32
 121.444335938 -379.21484375 121.444335938 -379.21484375 114.491210938 -401.329101562 c 1,33,34
 103.985351562 -265.362304688 103.985351562 -265.362304688 93.48046875 -179.39453125 c 1,35,36
 111.600585938 -160.311523438 111.600585938 -160.311523438 129.721679688 -191.228515625 c 2,0,1
EndSplineSet
EndChar

StartChar: z
Encoding: 122 122 93
Width: 940
GlyphClass: 1
Flags: W
LayerCount: 2
Fore
SplineSet
904 0 m 1,0,-1
 33 0 l 1,1,2
 33 103.638671875 33 103.638671875 33 169.244140625 c 1,3,4
 300.530585364 514.559570312 300.530585364 514.559570312 605.35517769 869.115234375 c 1,5,6
 531.586665802 866 531.586665802 866 471.379385699 866 c 2,7,-1
 66 866 l 1,8,9
 66 939 66 939 66 1062 c 1,10,-1
 878 1062 l 1,11,12
 878 970.580078125 878 970.580078125 878 918.493164062 c 1,13,14
 636.831587369 598.920898438 636.831587369 598.920898438 362.313654281 275.313476562 c 1,15,16
 328.594473085 259.552734375 328.594473085 259.552734375 294.87641665 200.274414062 c 1,17,18
 375.182033882 205 375.182033882 205 448.344300109 205 c 2,19,-1
 904 205 l 1,20,21
 904 127.5 904 127.5 904 0 c 1,0,-1
EndSplineSet
EndChar

StartChar: braceleft
Encoding: 123 123 94
Width: 561
GlyphClass: 1
Flags: W
LayerCount: 2
Fore
SplineSet
475 1516 m 2
 521 1516 l 1
 546 1516 l 1
 546 1309 l 1
 521 1309 l 1
 495 1309 l 2
 423.193292426 1309 423.193292426 1309 402.21506074 1282.13314188 c 0
 393.188118494 1270.57232111 393.188118494 1270.57232111 387.308345157 1241.25597755 c 0
 379 1199.83086012 379 1199.83086012 379 1129 c 0
 379 850.966686824 379 850.966686824 366.685323851 775.026183903 c 0
 349.820723269 669.622430265 349.820723269 669.622430265 310.756175282 611.568171452 c 0
 280.969124841 567.301304825 280.969124841 567.301304825 229.989408611 530.763013437 c 1
 298.385924476 482.893799973 298.385924476 482.893799973 334.797058661 402.269145707 c 0
 379 304.39120417 379 304.39120417 379 82.8777117235 c 0
 379 -138.635780723 379 -138.635780723 385.56640895 -173.343942314 c 0
 393.848956356 -217.24144357 393.848956356 -217.24144357 413.555219598 -232.933468003 c 0
 421.396858628 -239.177736119 421.396858628 -239.177736119 440.356112165 -244.08886806 c 0
 459.315365703 -249 459.315365703 -249 495 -249 c 2
 521 -249 l 1
 546 -249 l 1
 546 -456 l 1
 521 -456 l 1
 475 -456 l 2
 383.093432217 -456 383.093432217 -456 334.456108869 -431.681338326 c 0
 285.81878552 -407.362676651 285.81878552 -407.362676651 255.1265555 -360.755956991 c 0
 215.068397326 -300.127393269 215.068397326 -300.127393269 203.538759168 -221.516224006 c 0
 192.009121009 -142.905054742 192.009121009 -142.905054742 191.013060262 50.4322672745 c 0
 190.016999514 243.769589291 190.016999514 243.769589291 174.369998176 304.97697688 c 0
 158.722996837 366.184364469 158.722996837 366.184364469 126.045689525 394.25333357 c 0
 93.3683822129 422.322302672 93.3683822129 422.322302672 45.1093516445 424.01560199 c 2
 21 424.861544153 l 1
 21 636.557630373 l 1
 45.5457219543 636.995946836 l 2
 92.5233274715 637.834832649 92.5233274715 637.834832649 126.101523683 666.796026881 c 0
 159.679719895 695.757221114 159.679719895 695.757221114 174.848240632 755.97165192 c 0
 190.016761369 816.186082725 190.016761369 816.186082725 191.011849258 999.259324625 c 0
 192.028922524 1186.37736942 192.028922524 1186.37736942 198.160175279 1243.84286236 c 0
 209.769425802 1346.21534424 209.769425802 1346.21534424 251.571345461 1414.87700832 c 0
 283.633908557 1468.62629781 283.633908557 1468.62629781 336.647334095 1492.3131489 c 0
 389.660759632 1516 389.660759632 1516 475 1516 c 2
EndSplineSet
EndChar

StartChar: bar
Encoding: 124 124 95
Width: 436
GlyphClass: 1
Flags: W
LayerCount: 2
Fore
SplineSet
131 -456 m 1
 131 1516 l 1
 310 1516 l 1
 310 -456 l 1
 131 -456 l 1
EndSplineSet
EndChar

StartChar: braceright
Encoding: 125 125 96
Width: 561
GlyphClass: 1
Flags: W
LayerCount: 2
Fore
SplineSet
537 636.565321381 m 1
 537 424.861544153 l 1
 512.890648356 424.01560199 l 2
 464.6460051 422.32280749 464.6460051 422.32280749 431.499993811 393.792063595 c 0
 398.353982521 365.2613197 398.353982521 365.2613197 383.168687134 304.059977687 c 0
 367.983391747 242.858635673 367.983391747 242.858635673 366.98814968 60.7522604027 c 0
 365.97405716 -124.803313398 365.97405716 -124.803313398 359.839824721 -181.842862358 c 0
 348.242696502 -284.108447562 348.242696502 -284.108447562 306.532110162 -353.704046829 c 0
 274.470431382 -408.579683376 274.470431382 -408.579683376 221.404835875 -432.289841688 c 0
 168.339240368 -456 168.339240368 -456 83 -456 c 2
 37 -456 l 1
 12 -456 l 1
 12 -249 l 1
 37 -249 l 1
 63 -249 l 2
 133.70437339 -249 133.70437339 -249 154.683451285 -221.764004137 c 0
 163.789401967 -209.942243602 163.789401967 -209.942243602 169.688356928 -180.42677071 c 0
 178 -138.839391689 178 -138.839391689 178 -68 c 0
 178 211.142686314 178 211.142686314 191.361129609 289.25390557 c 0
 209.292343849 393.67685908 209.292343849 393.67685908 251.937530179 455.215482392 c 0
 283.07706081 500.151007606 283.07706081 500.151007606 327.864312119 531.017529876 c 1
 253.576251504 585.4005235 253.576251504 585.4005235 219.04915117 665.078447348 c 0
 178 759.80725774 178 759.80725774 178 978.71780819 c 0
 178 1197.62835864 178 1197.62835864 172.360139684 1234.7313612 c 0
 164.088122222 1278.15322989 164.088122222 1278.15322989 144.670692589 1293.25567604 c 0
 136.805455072 1299.37308299 136.805455072 1299.37308299 117.780833371 1304.1865415 c 0
 98.7562116694 1309 98.7562116694 1309 63 1309 c 2
 37 1309 l 1
 12 1309 l 1
 12 1516 l 1
 37 1516 l 1
 83 1516 l 2
 174.906567783 1516 174.906567783 1516 223.543891131 1491.68133833 c 0
 272.18121448 1467.36267665 272.18121448 1467.36267665 302.8734445 1420.75595699 c 0
 342.931602674 1360.12739327 342.931602674 1360.12739327 354.461240664 1281.51622516 c 0
 365.990878654 1202.90505704 365.990878654 1202.90505704 366.986954898 1010.05658357 c 0
 367.983031141 817.20811009 367.983031141 817.20811009 383.639330032 755.503873286 c 0
 399.295628923 693.799636481 399.295628923 693.799636481 431.870184388 665.818928581 c 0
 464.444739853 637.838220682 464.444739853 637.838220682 512.446325373 636.996087602 c 2
 537 636.565321381 l 1
EndSplineSet
EndChar

StartChar: asciitilde
Encoding: 126 126 97
Width: 981
GlyphClass: 1
Flags: W
LayerCount: 2
Fore
SplineSet
47 489.215703242 m 1
 47 770.104454897 l 1
 51.7467609909 776.651711437 l 2
 146.249270199 907 146.249270199 907 300 907 c 0
 349.825023133 907 349.825023133 907 407.184775993 889.107966998 c 0
 464.544528852 871.215933996 464.544528852 871.215933996 568.447120472 817.227332468 c 0
 654.078764186 773 654.078764186 773 697.49152475 773 c 0
 740.904285313 773 740.904285313 773 780.859872885 797.268567277 c 0
 841.942092518 835.843697992 841.942092518 835.843697992 891.129873392 900.166186114 c 2
 936 958.842505525 l 1
 936 663.455299397 l 1
 929.634556116 656.340979763 l 2
 820.171574223 534 820.171574223 534 684 534 c 0
 632.366793443 534 632.366793443 534 585.349945784 547.891341354 c 0
 538.333098126 561.782682707 538.333098126 561.782682707 441.473655452 614.891341354 c 0
 344.614212778 668 344.614212778 668 286 668 c 0
 242.670629001 668 242.670629001 668 200.431762444 643.735119212 c 0
 158.192895886 619.470238424 158.192895886 619.470238424 91.0202607125 540.782294363 c 2
 47 489.215703242 l 1
EndSplineSet
EndChar

StartChar: dagger
Encoding: 8224 8224 130
Width: 934
GlyphClass: 1
Flags: W
LayerCount: 2
Fore
SplineSet
557 841 m 1
 557 -371 l 1
 360 -371 l 1
 360 841 l 1
 32 841 l 1
 32 1051 l 1
 360 1051 l 1
 360 1457 l 1
 557 1457 l 1
 557 1051 l 1
 887 1051 l 1
 887 841 l 1
 557 841 l 1
EndSplineSet
EndChar

StartChar: degree
Encoding: 176 176 131
Width: 819
GlyphClass: 1
Flags: W
LayerCount: 2
Fore
SplineSet
191.880680049 999.271082312 m 0
 103 1087.60648212 103 1087.60648212 103 1213.5 c 0
 103 1339.39351788 103 1339.39351788 191.880680049 1427.72891769 c 0
 280.696645586 1516 280.696645586 1516 406.022525918 1516 c 0
 531.34840625 1516 531.34840625 1516 619.674203125 1427.67420313 c 0
 708 1339.34840625 708 1339.34840625 708 1214 c 0
 708 1088.65159375 708 1088.65159375 619.174203125 999.825796875 c 0
 530.34840625 911 530.34840625 911 405.522525918 911 c 0
 280.696645586 911 280.696645586 911 191.880680049 999.271082312 c 0
262 1214 m 0
 262 1154.34840625 262 1154.34840625 304.174203125 1112.17420313 c 0
 346.34840625 1070 346.34840625 1070 405.5 1070 c 0
 464.65159375 1070 464.65159375 1070 506.825796875 1112.17420313 c 0
 549 1154.34840625 549 1154.34840625 549 1214 c 0
 549 1273.65159375 549 1273.65159375 506.825796875 1315.82579687 c 0
 464.65159375 1358 464.65159375 1358 405.5 1358 c 0
 346.34840625 1358 346.34840625 1358 304.174203125 1315.82579687 c 0
 262 1273.65159375 262 1273.65159375 262 1214 c 0
EndSplineSet
EndChar

StartChar: cent
Encoding: 162 162 132
Width: 934
GlyphClass: 1
Flags: W
LayerCount: 2
Fore
SplineSet
476 144 m 0
 546.878055963 144 546.878055963 144 603.946331698 207.359266761 c 0
 661.014607433 270.718533522 661.014607433 270.718533522 674.146884304 391.723084685 c 2
 676.915893245 417.237524219 l 1
 874.421531401 390.366008824 l 1
 870.73203466 365.330138086 l 2
 841.536303727 167.216249609 841.536303727 167.216249609 731.960102231 57.1081248045 c 0
 622.383900734 -53 622.383900734 -53 477 -53 c 0
 445.623116552 -53 445.623116552 -53 411.222070958 -44.9021448599 c 1
 314.79403168 -441.663348135 l 1
 175.479953815 -393.206277573 l 1
 270.547445477 9.31352754951 l 1
 180.566210268 69.2314852037 180.566210268 69.2314852037 122.334244083 193.944946118 c 0
 60 327.444118861 60 327.444118861 60 530 c 0
 60 719.934665354 60 719.934665354 112.332022678 847.624800688 c 0
 164.664045356 975.314936022 164.664045356 975.314936022 262.4213946 1043.15746801 c 0
 360.178743843 1111 360.178743843 1111 476 1111 c 0
 499.078130275 1111 499.078130275 1111 533.953036935 1106.75351015 c 1
 628.183301819 1498.87299951 l 1
 765.515393033 1450.04381152 l 1
 672.734114385 1059.7573459 l 1
 819.763037641 973.473272833 819.763037641 973.473272833 853.705926759 753.842813831 c 2
 857.403494933 729.917372703 l 1
 665.998842006 693.77803264 l 1
 661.421041176 718.410960912 l 2
 648.164693243 789.742737889 648.164693243 789.742737889 620.110042753 837.080942351 c 1
 455.026461034 146.075348925 l 1
 466.288994486 144 466.288994486 144 476 144 c 0
480 918 m 0
 388.862372877 918 388.862372877 918 326.35673797 830.492111129 c 0
 261 738.992677972 261 738.992677972 261 538 c 0
 261 325.604309299 261 325.604309299 325.006026379 230.292888409 c 1
 488.983503595 917.736927507 l 1
 483.939441482 918 483.939441482 918 480 918 c 0
EndSplineSet
EndChar

StartChar: sterling
Encoding: 163 163 133
Width: 934
GlyphClass: 1
Flags: W
LayerCount: 2
Fore
SplineSet
93 1073 m 0
 93 1273.88551639 93 1273.88551639 206.591156406 1394.9427582 c 0
 320.182312812 1516 320.182312812 1516 490 1516 c 0
 644.236177267 1516 644.236177267 1516 749.488033046 1412.35096436 c 0
 854.739888825 1308.70192872 854.739888825 1308.70192872 878.80804163 1115.11026485 c 2
 881.722243973 1091.66994166 l 1
 684.97344076 1055.53240637 l 1
 682.139407981 1082.34671651 l 2
 670.008819748 1197.12074364 670.008819748 1197.12074364 614.046201064 1257.56037182 c 0
 558.083582379 1318 558.083582379 1318 488 1318 c 0
 411.139838349 1318 411.139838349 1318 356.069919175 1256.71250931 c 0
 301 1195.42501861 301 1195.42501861 301 1095.79836816 c 0
 301 996.171717711 301 996.171717711 342.344508207 834 c 1
 606 834 l 1
 606 636 l 1
 381.61926996 636 l 1
 389 605.119898984 389 605.119898984 389 575 c 0
 389 481.693324169 389 481.693324169 353.075711344 380.168160577 c 0
 327.142957537 306.879943294 327.142957537 306.879943294 278.391932153 232.634057018 c 1
 308.469993422 238 308.469993422 238 336 238 c 0
 407.617517964 238 407.617517964 238 496.029446541 211.996491595 c 0
 632.602832475 172 632.602832475 172 680 172 c 0
 733.300827702 172 733.300827702 172 824.527280857 224.666818316 c 2
 852.106523391 240.588855243 l 1
 914.738861611 25.2901926098 l 1
 896.514148577 15.8074150962 l 2
 768.118647689 -51 768.118647689 -51 688 -51 c 0
 651.235794673 -51 651.235794673 -51 612.242225487 -42.3347624029 c 0
 586.571589425 -35.9171033875 586.571589425 -35.9171033875 502.292177737 -4.43925082955 c 0
 417.89319278 26.965022643 417.89319278 26.965022643 392.319366093 32.6480952402 c 0
 357.983757636 41 357.983757636 41 327 41 c 0
 203.734483913 41 203.734483913 41 92.5589969016 -47.5635235515 c 2
 64.4867282821 -69.9261782145 l 1
 -9.71862222641 155.29356982 l 1
 6.21386276896 165.853472666 l 2
 86.6861149824 219.189732854 86.6861149824 219.189732854 134.843057491 314.087237209 c 0
 183 408.984741565 183 408.984741565 183 537 c 0
 183 585.780996037 183 585.780996037 174.299106677 636 c 1
 9 636 l 1
 9 834 l 1
 128.525611386 834 l 1
 93 990.606655233 93 990.606655233 93 1073 c 0
EndSplineSet
EndChar

StartChar: section
Encoding: 167 167 134
Width: 934
GlyphClass: 1
Flags: W
LayerCount: 2
Fore
SplineSet
709.672122856 172.043775891 m 1
 824 52.0102690082 824 52.0102690082 824 -102.169068621 c 0
 824 -256.34840625 824 -256.34840625 724.174203125 -356.174203125 c 0
 624.34840625 -456 624.34840625 -456 468.578168224 -456 c 0
 312.807930197 -456 312.807930197 -456 211.483938827 -356.820431728 c 0
 110.159947458 -257.640863456 110.159947458 -257.640863456 89.1608280453 -72.8486126268 c 2
 86.49822578 -49.417712692 l 1
 283.159164325 -15.1010388519 l 1
 287.596453336 -39.5061284133 l 2
 310.217751408 -163.923267807 310.217751408 -163.923267807 354.818851814 -208.961633904 c 0
 399.41995222 -254 399.41995222 -254 469.998920262 -254 c 0
 540.577888304 -254 540.577888304 -254 582.736526866 -211.415516603 c 0
 625 -168.725139701 625 -168.725139701 625 -105 c 0
 625 -53.8447903264 625 -53.8447903264 591.787075798 -13.9892812834 c 2
 591.34108539 -13.4384968247 l 1
 534.393599132 58.9523755369 534.393599132 58.9523755369 327.06285326 213.956790308 c 0
 169.982218267 331.257264491 169.982218267 331.257264491 121.650298783 399.481803315 c 0
 39 514 39 514 39 644 c 0
 39 751.504842019 39 751.504842019 93.6209437185 834.247459731 c 0
 138.627715344 902.426034569 138.627715344 902.426034569 208.033212214 937.050961345 c 1
 118 1056.22043018 118 1056.22043018 118 1175 c 0
 118 1319.97695736 118 1319.97695736 211.138020259 1417.98847868 c 0
 304.276040518 1516 304.276040518 1516 448 1516 c 0
 599.140343995 1516 599.140343995 1516 695.03815721 1422.79594558 c 0
 790.935970424 1329.59189117 790.935970424 1329.59189117 809.866370524 1146.59802353 c 2
 812.389576131 1122.207036 l 1
 610.775032646 1097.16993583 l 1
 607.26016683 1121.38345589 l 2
 590.382073736 1237.65476387 590.382073736 1237.65476387 552.773665335 1277.82738194 c 0
 515.165256934 1318 515.165256934 1318 454.680694322 1318 c 0
 394.19613171 1318 394.19613171 1318 353.098065855 1277.74931695 c 0
 312 1237.49863389 312 1237.49863389 312 1182 c 0
 312 1135.7225704 312 1135.7225704 352.87406842 1081.84311657 c 0
 393.748136839 1027.96366275 393.748136839 1027.96366275 582.998469244 887.997271072 c 0
 750.760205503 761.921784428 750.760205503 761.921784428 801.911450646 695.111994854 c 0
 880 592.420203923 880 592.420203923 880 464 c 0
 880 348.076298814 880 348.076298814 820.437909691 263.606425284 c 0
 786.808659629 215.964987697 786.808659629 215.964987697 709.672122856 172.043775891 c 1
223 664 m 0
 223 608.511827224 223 608.511827224 257.658944014 556.067372466 c 0
 292.317888027 503.622917709 292.317888027 503.622917709 419.552032575 412.325134598 c 0
 523.105969131 338.096206624 523.105969131 338.096206624 596.032776994 275.370851837 c 1
 638.87471907 305.659907916 638.87471907 305.659907916 662.736678959 344.146939995 c 0
 690 388.120038448 690 388.120038448 690 431 c 0
 690 481.257517796 690 481.257517796 650.844983601 538.377777014 c 0
 611.689967201 595.498036232 611.689967201 595.498036232 472.975822051 700.022075183 c 0
 373.148878598 774.229714564 373.148878598 774.229714564 317.909753444 825.466635272 c 1
 267.429947601 786.900222192 267.429947601 786.900222192 246.576312101 751.371806156 c 0
 223 711.204755909 223 711.204755909 223 664 c 0
EndSplineSet
EndChar

StartChar: bullet
Encoding: 8226 8226 135
Width: 588
GlyphClass: 1
Flags: W
LayerCount: 2
Fore
SplineSet
67 718 m 0
 67 836.330358558 67 836.330358558 136.301059654 916.165179279 c 0
 205.602119307 996 205.602119307 996 300 996 c 0
 394.458035804 996 394.458035804 996 463.229017902 916.136924015 c 0
 532 836.273848031 532 836.273848031 532 717.471744736 c 0
 532 598.669641442 532 598.669641442 462.698940346 518.834820721 c 0
 393.397880693 439 393.397880693 439 299.474086711 439 c 0
 205.550292729 439 205.550292729 439 136.275146365 519.359169783 c 0
 67 599.718339566 67 599.718339566 67 718 c 0
EndSplineSet
EndChar

StartChar: paragraph
Encoding: 182 182 136
Width: 901
GlyphClass: 1
Flags: W
LayerCount: 2
Fore
SplineSet
497 1268 m 1
 497 -432 l 1
 312 -432 l 1
 312 615.108338533 l 1
 169.272450448 631.612568726 169.272450448 631.612568726 77.9626587789 738.802324164 c 0
 -20 853.801967078 -20 853.801967078 -20 1044 c 0
 -20 1182.85236528 -20 1182.85236528 31.0075944041 1285.9302123 c 0
 132.485427492 1491 132.485427492 1491 393 1491 c 2
 936 1491 l 1
 936 1268 l 1
 819 1268 l 1
 819 -432 l 1
 629 -432 l 1
 629 1268 l 1
 497 1268 l 1
EndSplineSet
EndChar

StartChar: germandbls
Encoding: 223 223 137
Width: 1126
GlyphClass: 1
Flags: W
LayerCount: 2
Fore
SplineSet
325 0 m 1,0,-1
 128 0 l 1,1,2
 128 498.064453125 128 498.064453125 128 985.27734375 c 2,3,4
 128 1173.6875 128 1173.6875 168.86328125 1272.23730469 c 0,5,6
 209.725585938 1374.65917969 209.725585938 1374.65917969 299.673828125 1432.83007812 c 0,7,8
 391.574317156 1491 391.574317156 1491 520.020468412 1491 c 0,9,10
 680.757465773 1491 680.757465773 1491 784.562161346 1401.28417969 c 0,11,12
 882 1311.56738281 882 1311.56738281 882 1181 c 0,13,14
 882 1127.875 882 1127.875 867.829101562 1071.71582031 c 0,15,16
 853.658203125 1018.00488281 853.658203125 1018.00488281 811.619618047 936.58984375 c 0,17,18
 776.156057032 872.021484375 776.156057032 872.021484375 762.635005489 836.731445312 c 128,-1,19
 749.113953946 801.44140625 749.113953946 801.44140625 749.113953946 786.981445312 c 0,20,21
 749.113953946 758.321289062 749.113953946 758.321289062 769.903845592 729.348632812 c 0,22,23
 775.592360018 720.952148438 775.592360018 720.952148438 798.297066814 702.250976562 c 128,-1,24
 821.002870298 683.55078125 821.002870298 683.55078125 865.599609375 650.724609375 c 0,25,26
 994.379882812 552.192382812 994.379882812 552.192382812 1035.18945312 483.375 c 128,-1,27
 1076 414.557617188 1076 414.557617188 1076 322.171875 c 0,28,29
 1076 172.330078125 1076 172.330078125 982.018554688 73.6650390625 c 128,-1,30
 888.037109375 -25 888.037109375 -25 742.375910254 -25 c 0,31,32
 623.674917893 -25 623.674917893 -25 527.449424787 42.9013671875 c 128,-1,33
 431.223931682 110.803710938 431.223931682 110.803710938 381.338939262 232.432617188 c 2,34,35
 377.263651118 267.370117188 377.263651118 267.370117188 373.250976562 252.306640625 c 1,36,37
 468.330329521 325.336914062 468.330329521 325.336914062 563.473392756 348.368164062 c 1,38,39
 569.75192468 360.731445312 569.75192468 360.731445312 576.030456603 323.095703125 c 2,40,41
 650.604062239 173 650.604062239 173 736.760873844 173 c 0,42,43
 792.86846716 173 792.86846716 173 835.98046875 213.611328125 c 0,44,45
 875 254.22265625 875 254.22265625 875 314.260742188 c 0,46,47
 875 355.489257812 875 355.489257812 858.729492188 383.091796875 c 128,-1,48
 842.459960938 410.6953125 842.459960938 410.6953125 758.077175153 470.512695312 c 0,49,50
 610.911676928 574.368164062 610.911676928 574.368164062 566.589079952 633.827148438 c 128,-1,51
 522.266482976 693.286132812 522.266482976 693.286132812 522.266482976 761.74609375 c 0,52,53
 522.266482976 802.015625 522.266482976 802.015625 535.4651086 841.51953125 c 128,-1,54
 548.662637538 881.024414062 548.662637538 881.024414062 592.753833599 959.728515625 c 128,-1,55
 636.843932973 1038.43261719 636.843932973 1038.43261719 653.673688589 1085.66015625 c 0,56,57
 670.503444204 1135.47363281 670.503444204 1135.47363281 670.503444204 1162 c 0,58,59
 670.503444204 1216.4921875 670.503444204 1216.4921875 626.599781585 1254.74609375 c 128,-1,60
 582.696118966 1293 582.696118966 1293 515.528439284 1293 c 0,61,62
 421.0291312 1293 421.0291312 1293 371.846679688 1231.47851562 c 0,63,64
 325 1168.5390625 325 1168.5390625 325 976.358398438 c 2,65,66
 325 493.15625 325 493.15625 325 0 c 1,0,-1
EndSplineSet
EndChar

StartChar: registered
Encoding: 174 174 138
Width: 1237
GlyphClass: 1
Flags: W
LayerCount: 2
Fore
SplineSet
623 1516 m 0
 898.128178607 1516 898.128178607 1516 1083.64985182 1280.45001041 c 0
 1267 1047.65712565 1267 1047.65712565 1267 736 c 0
 1267 519.12311559 1267 519.12311559 1176.20368065 336.498700532 c 0
 1085.4073613 153.874285474 1085.4073613 153.874285474 936.970400028 55.4371427371 c 0
 788.533438758 -43 788.533438758 -43 623 -43 c 0
 347.88848059 -43 347.88848059 -43 162.366910994 192.028730021 c 0
 -21 424.32782232 -21 424.32782232 -21 736 c 0
 -21 953.87688441 -21 953.87688441 69.7963193508 1136.50129947 c 0
 160.592638702 1319.12571453 160.592638702 1319.12571453 309.029599972 1417.56285726 c 0
 457.466561242 1516 457.466561242 1516 623 1516 c 0
623 1341 m 0
 414.195312505 1341 414.195312505 1341 268.717075882 1154.63572302 c 0
 132 979.406794776 132 979.406794776 132 736 c 0
 132 474.353967309 132 474.353967309 287.857097349 295.406929612 c 0
 430.363140615 132 430.363140615 132 623 132 c 0
 830.85368949 132 830.85368949 132 977.331940227 318.426864575 c 0
 1114 492.630518229 1114 492.630518229 1114 736 c 0
 1114 997.646032691 1114 997.646032691 958.142902651 1176.59307039 c 0
 815.593541716 1341 815.593541716 1341 623 1341 c 0
326 294 m 1
 326 1156 l 1
 581 1156 l 2
 704.265358418 1156 704.265358418 1156 760.252844574 1131.36550609 c 0
 816.24033073 1106.73101218 816.24033073 1106.73101218 853.120165365 1046.38219187 c 0
 890 986.03337156 890 986.03337156 890 911 c 0
 890 807.87892222 890 807.87892222 830.625710906 737.406635164 c 0
 791.024018188 690.402756892 791.024018188 690.402756892 735.965409272 670.232194634 c 1
 745.530495627 661.419771166 745.530495627 661.419771166 753.457421088 651.691271736 c 0
 797.103582898 597.653166638 797.103582898 597.653166638 852.347188563 489.212014777 c 2
 950.567070212 294 l 1
 764.105249274 293.999984753 l 1
 697.296803451 436.525506257 l 2
 660.100721319 516.934683806 660.100721319 516.934683806 634.787762543 558.751479437 c 0
 609.474803766 600.568275068 609.474803766 600.568275068 593.620109384 616.036269587 c 0
 569.890921291 639 569.890921291 639 523 639 c 2
 484 639 l 1
 484 294 l 1
 326 294 l 1
484 996 m 1
 484 801 l 1
 590 801 l 2
 668.710639781 801 668.710639781 801 697.355319891 825.720751327 c 0
 726 850.441502655 726 850.441502655 726 900 c 0
 726 931.706715008 726 931.706715008 711.583075929 954.306217605 c 0
 697.166151858 976.905720203 697.166151858 976.905720203 674.093897103 986.452860101 c 0
 651.021642348 996 651.021642348 996 581 996 c 2
 484 996 l 1
EndSplineSet
EndChar

StartChar: copyright
Encoding: 169 169 139
Width: 1237
GlyphClass: 1
Flags: W
LayerCount: 2
Fore
SplineSet
623 1516 m 0
 898.128178607 1516 898.128178607 1516 1083.64985182 1280.45001041 c 0
 1267 1047.65712565 1267 1047.65712565 1267 736 c 0
 1267 519.12311559 1267 519.12311559 1176.20368065 336.498700532 c 0
 1085.4073613 153.874285474 1085.4073613 153.874285474 936.970400028 55.4371427371 c 0
 788.533438758 -43 788.533438758 -43 623 -43 c 0
 347.88848059 -43 347.88848059 -43 162.366910994 192.028730021 c 0
 -21 424.32782232 -21 424.32782232 -21 736 c 0
 -21 953.87688441 -21 953.87688441 69.7963193508 1136.50129947 c 0
 160.592638702 1319.12571453 160.592638702 1319.12571453 309.029599972 1417.56285726 c 0
 457.466561242 1516 457.466561242 1516 623 1516 c 0
623 1341 m 0
 414.195312505 1341 414.195312505 1341 268.717075882 1154.63572302 c 0
 132 979.406794776 132 979.406794776 132 736 c 0
 132 474.353967309 132 474.353967309 287.857097349 295.406929612 c 0
 430.363140615 132 430.363140615 132 623 132 c 0
 830.85368949 132 830.85368949 132 977.331940227 318.426864575 c 0
 1114 492.630518229 1114 492.630518229 1114 736 c 0
 1114 997.646032691 1114 997.646032691 958.142902651 1176.59307039 c 0
 815.593541716 1341 815.593541716 1341 623 1341 c 0
625 279 m 0
 473.296008061 279 473.296008061 279 374.148004031 397.977604837 c 0
 275 516.955209674 275 516.955209674 275 734 c 0
 275 951.095641106 275 951.095641106 373.175453389 1068.04782055 c 0
 471.350906778 1185 471.350906778 1185 632 1185 c 0
 744.082264117 1185 744.082264117 1185 824.731100412 1117.42935337 c 0
 905.379936706 1049.85870675 905.379936706 1049.85870675 934.305413122 929.871545321 c 2
 939.875956135 906.764107637 l 1
 795.829041363 864.137979796 l 1
 788.245643655 887.191508828 l 2
 765.582710072 956.086826921 765.582710072 956.086826921 723.436101055 989.54341346 c 0
 681.289492038 1023 681.289492038 1023 628 1023 c 0
 547.343013127 1023 547.343013127 1023 492.863131984 951.824671411 c 0
 436 877.535740915 436 877.535740915 436 730.503513345 c 0
 436 583.471285776 436 583.471285776 489.855411359 513.185409935 c 0
 541.335141049 446 541.335141049 446 617 446 c 0
 679.525283731 446 679.525283731 446 729.858465358 490.593432845 c 0
 780.191646984 535.186865689 780.191646984 535.186865689 797.5163005 619.074661659 c 2
 803.343755908 647.291814163 l 1
 950.622443385 594.271486672 l 1
 946.543350441 573.22336708 l 2
 919.940608908 435.953220768 919.940608908 435.953220768 831.722074476 357.476610384 c 0
 743.503540045 279 743.503540045 279 625 279 c 0
EndSplineSet
EndChar

StartChar: trademark
Encoding: 8482 8482 140
Width: 1679
GlyphClass: 1
Flags: W
LayerCount: 2
Fore
SplineSet
538 1320 m 1
 538 626 l 1
 377 626 l 1
 377 1320 l 1
 160 1320 l 1
 160 1491 l 1
 756 1491 l 1
 756 1320 l 1
 538 1320 l 1
781 626 m 1
 781 1491 l 1
 989.343549927 1491 l 1
 1138.56215606 916.199333784 l 1
 1282.48306019 1491 l 1
 1487 1491 l 1
 1487 626 l 1
 1336 626 l 1
 1336 1134.18050924 l 1
 1207.46896477 626 l 1
 1068.65205996 626 l 1
 933 1149.0140534 l 1
 933 626 l 1
 781 626 l 1
EndSplineSet
EndChar

StartChar: acute
Encoding: 180 180 141
Width: 559
GlyphClass: 1
Flags: W
LayerCount: 2
Fore
SplineSet
273.900058735 1499 m 1
 529.790327626 1499 l 1
 317.647470483 1169 l 1
 145.435773021 1169 l 1
 273.900058735 1499 l 1
EndSplineSet
EndChar

StartChar: dieresis
Encoding: 168 168 142
Width: 559
GlyphClass: 1
Flags: W
LayerCount: 2
Fore
SplineSet
25 1245 m 1
 25 1500 l 1
 229 1500 l 1
 229 1245 l 1
 25 1245 l 1
331 1245 m 1
 331 1500 l 1
 535 1500 l 1
 535 1245 l 1
 331 1245 l 1
EndSplineSet
EndChar

StartChar: notequal
Encoding: 8800 8800 143
Width: 1124
GlyphClass: 1
Flags: W
LayerCount: 2
Fore
SplineSet
1071 610 m 1
 1071 392 l 1
 511.377389401 392 l 1
 317.377389401 -53 l 1
 126.746221109 -53 l 1
 321.746221109 392 l 1
 53 392 l 1
 53 610 l 1
 417.689717425 610 l 1
 517.668056776 837 l 1
 53 837 l 1
 53 1055 l 1
 612.704773326 1055 l 1
 808.704773326 1499 l 1
 997.288345773 1499 l 1
 802.288345773 1055 l 1
 1071 1055 l 1
 1071 837 l 1
 706.364351428 837 l 1
 607.205506663 610 l 1
 1071 610 l 1
EndSplineSet
EndChar

StartChar: AE
Encoding: 198 198 144
Width: 1779
GlyphClass: 1
Flags: W
LayerCount: 2
Fore
SplineSet
1 0 m 1,0,1
 302.150594368 733 302.150594368 733 613.920810464 1466 c 1,2,-1
 1677.734375 1466 l 1,3,4
 1677.734375 1329.5 1677.734375 1329.5 1677.734375 1243 c 1,5,-1
 1056.26205975 1243 l 1,6,-1
 1056.26205975 867 l 1,7,-1
 1634.734375 867 l 1,8,-1
 1634.734375 645 l 1,9,-1
 1056.26205975 645 l 1,10,-1
 1056.26205975 223 l 1,11,-1
 1699.734375 223 l 1,12,13
 1699.734375 136.5 1699.734375 136.5 1699.734375 0 c 1,14,-1
 838.231753673 0 l 1,15,-1
 838.231753673 398 l 1,16,-1
 397.085506394 398 l 1,17,-1
 226.859375 0 l 1,18,19
 113.9296875 25 113.9296875 25 1 0 c 1,0,1
488.571925849 620 m 1,20,-1
 838.231753673 620 l 1,21,-1
 838.231753673 1243 l 1,22,-1
 756.840197699 1243 l 1,23,-1
 488.571925849 620 l 1,20,-1
EndSplineSet
EndChar

StartChar: Oslash
Encoding: 216 216 145
Width: 1407
GlyphClass: 1
Flags: W
LayerCount: 2
Fore
SplineSet
116.235351562 482.499023438 m 128,-1,1
 89.583984375 583.852539062 89.583984375 583.852539062 89.583984375 726.447265625 c 0,2,3
 89.583984375 967.13671875 89.583984375 967.13671875 170.655273438 1141.26660156 c 128,-1,4
 251.725585938 1315.39648438 251.725585938 1315.39648438 391.461348822 1403.19824219 c 0,5,6
 535.600934012 1491 535.600934012 1491 717.580923417 1491 c 0,7,8
 832.695920636 1491 832.695920636 1491 927.649022144 1454.65625 c 0,9,10
 1012.50502961 1422.17675781 1012.50502961 1422.17675781 1107.08833143 1344.16796875 c 1,11,12
 1176.77148438 1413.8984375 1176.77148438 1413.8984375 1245.8046875 1533.62988281 c 1,13,14
 1304.53222656 1452.92871094 1304.53222656 1452.92871094 1363.25976562 1417.04980469 c 1,15,16
 1289.19726562 1301.50683594 1289.19726562 1301.50683594 1215.13476562 1221.0703125 c 1,17,18
 1284.50097656 1096.45605469 1284.50097656 1096.45605469 1312.04296875 989.712890625 c 128,-1,19
 1339.58398438 882.969726562 1339.58398438 882.969726562 1339.58398438 734.631835938 c 0,20,21
 1339.58398438 496.833984375 1339.58398438 496.833984375 1258.99414062 325.146484375 c 128,-1,22
 1178.40429688 153.458984375 1178.40429688 153.458984375 1035.67324054 64.2294921875 c 0,23,24
 888.881514484 -25 888.881514484 -25 712.247474384 -25 c 0,25,26
 598.283543802 -25 598.283543802 -25 504.462758524 10.287109375 c 0,27,28
 420.723441945 41.783203125 420.723441945 41.783203125 328.118308039 117.05078125 c 1,29,30
 257.827148438 47.173828125 257.827148438 47.173828125 188.182617188 -72.7041015625 c 1,31,32
 130.091796875 8.0888671875 130.091796875 8.0888671875 72 44.048828125 c 1,33,34
 145.602539062 159.206054688 145.602539062 159.206054688 219.206054688 239.194335938 c 1,35,0
 142.88671875 381.146484375 142.88671875 381.146484375 116.235351562 482.499023438 c 128,-1,1
847.378530816 1252.33496094 m 128,-1,37
 792.981517435 1275 792.981517435 1275 717.580923417 1275 c 0,38,39
 539.597895719 1275 539.597895719 1275 422.284934153 1135.0703125 c 0,40,41
 303.583984375 992.357421875 303.583984375 992.357421875 303.583984375 705 c 0,42,43
 303.583984375 596.416992188 303.583984375 596.416992188 318.153508536 521.270507812 c 0,44,45
 330.304813805 462.415039062 330.304813805 462.415039062 360.657555588 388.064453125 c 1,46,47
 665.493335134 753.611328125 665.493335134 753.611328125 970.328072992 1169.15722656 c 1,48,36
 901.775544198 1229.66992188 901.775544198 1229.66992188 847.378530816 1252.33496094 c 128,-1,37
575.089290643 216.453125 m 0,49,50
 637.782317326 191 637.782317326 191 712.247474384 191 c 0,51,52
 885.952284273 191 885.952284273 191 1004.33193565 332.415039062 c 0,53,54
 1124.58398438 476.6328125 1124.58398438 476.6328125 1124.58398438 754 c 0,55,56
 1124.58398438 928.477539062 1124.58398438 928.477539062 1071.14796844 1067.80566406 c 1,57,58
 766.874701093 703.743164062 766.874701093 703.743164062 462.601433749 289.680664062 c 1,59,60
 519.945386059 238.840820312 519.945386059 238.840820312 575.089290643 216.453125 c 0,49,50
EndSplineSet
EndChar

StartChar: infinity
Encoding: 8734 8734 146
Width: 1460
GlyphClass: 1
Flags: W
LayerCount: 2
Fore
SplineSet
400 424 m 0
 288.256048307 424 288.256048307 424 208.628024153 508.021294451 c 0
 129 592.042588903 129 592.042588903 129 715.476461667 c 0
 129 838.910334431 129 838.910334431 208.603900998 923.455167215 c 0
 288.207801997 1008 288.207801997 1008 400 1008 c 0
 553.58974332 1008 553.58974332 1008 688.711101613 851.528018877 c 1
 781.87973155 966.055283169 781.87973155 966.055283169 838.348288563 1006.25323901 c 0
 924.895545103 1069 924.895545103 1069 1022 1069 c 0
 1136.02199793 1069 1136.02199793 1069 1234.45805362 987.238904562 c 0
 1335 903.728654021 1335 903.728654021 1335 723 c 0
 1335 599.054590654 1335 599.054590654 1297.96707792 525.533348281 c 0
 1260.93415583 452.012105909 1260.93415583 452.012105909 1182.77718479 407.506052955 c 0
 1104.62021375 363 1104.62021375 363 1022 363 c 0
 925.008939831 363 925.008939831 363 838.40653791 424.704211369 c 0
 781.849447393 465.923785813 781.849447393 465.923785813 688.708965242 580.469507194 c 1
 553.58851834 424 553.58851834 424 400 424 c 0
1020 524 m 0
 1085.03297388 524 1085.03297388 524 1129.51648694 572.370421967 c 0
 1174 620.740843933 1174 620.740843933 1174 714.930839666 c 0
 1174 809.120835399 1174 809.120835399 1128.58789159 857.5604177 c 0
 1083.17578319 906 1083.17578319 906 1016 906 c 0
 974.5055806 906 974.5055806 906 937.773464101 882.13717187 c 0
 886.403238576 847.485306258 886.403238576 847.485306258 788.438417417 716.108364984 c 1
 867.313149554 596.939104723 867.313149554 596.939104723 931.393644509 552.438761005 c 0
 971.035553788 524 971.035553788 524 1020 524 c 0
400 848 m 0
 352.812171402 848 352.812171402 848 321.406085701 814.554558084 c 0
 290 781.109116169 290 781.109116169 290 719.508260581 c 0
 290 657.907404993 290 657.907404993 322.897602349 622.953702496 c 0
 355.795204699 588 355.795204699 588 402 588 c 0
 485.479324843 588 485.479324843 588 588.034996911 715.725286093 c 1
 519.296884609 799.217803621 519.296884609 799.217803621 478.21714029 823.608901811 c 0
 437.137395971 848 437.137395971 848 400 848 c 0
EndSplineSet
EndChar

StartChar: plusminus
Encoding: 177 177 147
Width: 1124
GlyphClass: 1
Flags: W
LayerCount: 2
Fore
SplineSet
672 638 m 1
 672 235 l 1
 452 235 l 1
 452 638 l 1
 53 638 l 1
 53 855 l 1
 452 855 l 1
 452 1254 l 1
 672 1254 l 1
 672 855 l 1
 1071 855 l 1
 1071 638 l 1
 672 638 l 1
1071 -25 m 1
 53 -25 l 1
 53 193 l 1
 1071 193 l 1
 1071 -25 l 1
EndSplineSet
EndChar

StartChar: lessequal
Encoding: 8804 8804 148
Width: 1124
GlyphClass: 1
Flags: W
LayerCount: 2
Fore
SplineSet
52 745.493256366 m 1
 52 946.585233263 l 1
 1073 1377.69748867 l 1
 1073 1143.21191615 l 1
 343.680841795 844.854078702 l 1
 1073 542.707570302 l 1
 1073 309.123534429 l 1
 52 745.493256366 l 1
1071 81 m 1
 53 81 l 1
 53 298 l 1
 1071 298 l 1
 1071 81 l 1
EndSplineSet
EndChar

StartChar: greaterequal
Encoding: 8805 8805 149
Width: 1124
GlyphClass: 1
Flags: W
LayerCount: 2
Fore
SplineSet
52 309.123534429 m 1
 52 542.699250857 l 1
 780.392111669 844.854106022 l 1
 52 1143.22018557 l 1
 52 1377.69748867 l 1
 1073 946.585233263 l 1
 1073 745.493256366 l 1
 52 309.123534429 l 1
1071 81 m 1
 53 81 l 1
 53 298 l 1
 1071 298 l 1
 1071 81 l 1
EndSplineSet
EndChar

StartChar: yen
Encoding: 165 165 150
Width: 934
GlyphClass: 1
Flags: W
LayerCount: 2
Fore
SplineSet
561 300 m 1
 561 -25 l 1
 364 -25 l 1
 364 300 l 1
 23 300 l 1
 23 489 l 1
 364 489 l 1
 364 582 l 1
 23 582 l 1
 23 780 l 1
 288.681858199 780 l 1
 -44.3181418009 1491 l 1
 175.003471394 1491.00000324 l 1
 419.763460274 960.343219031 l 2
 442.879803131 909.600027395 442.879803131 909.600027395 459.700685048 867.063888618 c 1
 477.220622622 909.366856039 477.220622622 909.366856039 504.120091587 969.08367714 c 2
 734.71034074 1491 l 1
 965.268115822 1491 l 1
 633.268115822 780 l 1
 899 780 l 1
 899 582 l 1
 561 582 l 1
 561 489 l 1
 899 489 l 1
 899 300 l 1
 561 300 l 1
EndSplineSet
EndChar

StartChar: mu1
Encoding: 181 181 151
Width: 1180
GlyphClass: 1
Flags: W
LayerCount: 2
Fore
SplineSet
1043 1087 m 1
 1043 -25 l 1
 832 -25 l 1
 832 50.7240278562 l 1
 799.768793467 13.9181961414 799.768793467 13.9181961414 766.608259193 -5.58800049001 c 0
 690.782894176 -50 690.782894176 -50 591 -50 c 0
 501.930620209 -50 501.930620209 -50 432.477008689 -14.1879815599 c 0
 398.937393984 3.28056776524 398.937393984 3.28056776524 363 40.0158476152 c 1
 363 -432 l 1
 135 -432 l 1
 135 1087 l 1
 363 1087 l 1
 363 612 l 2
 363 477.112504393 363 477.112504393 370.01413538 404.678067877 c 0
 377.028270759 332.243631362 377.028270759 332.243631362 387.540442989 302.930843414 c 0
 410.912555622 237.758606262 410.912555622 237.758606262 463.057301249 200.321352992 c 0
 515.040614345 163 515.040614345 163 585.089287516 163 c 0
 655.137960687 163 655.137960687 163 711.709162294 202.510045567 c 0
 768.301845788 242.035094357 768.301845788 242.035094357 791.57603621 304.248795677 c 0
 801.99442945 332.097962222 801.99442945 332.097962222 808.997214725 403.391703081 c 0
 816 474.685443939 816 474.685443939 816 609 c 2
 816 1087 l 1
 1043 1087 l 1
EndSplineSet
EndChar

StartChar: partialdiff
Encoding: 8706 8706 152
Width: 1012
GlyphClass: 1
Flags: W
LayerCount: 2
Fore
SplineSet
651 1516 m 0
 734.334950815 1516 734.334950815 1516 801.3506554 1472.95739299 c 0
 868.956334266 1429.53585941 868.956334266 1429.53585941 902.501079257 1373.75550434 c 0
 951.628556433 1291.17953207 951.628556433 1291.17953207 974.814278217 1179.88806751 c 0
 998 1068.59660295 998 1068.59660295 998 926 c 0
 998 633.338303529 998 633.338303529 909.342239084 403.238103232 c 0
 820.684478168 173.137902936 820.684478168 173.137902936 667.40750746 61.5689514681 c 0
 514.130536751 -50 514.130536751 -50 365.161297854 -50 c 0
 216.192058956 -50 216.192058956 -50 123.596029478 48.5524992106 c 0
 31 147.104998421 31 147.104998421 31 322 c 0
 31 557.977209115 31 557.977209115 190.890562518 726.228062484 c 0
 389.520801426 934.941054636 389.520801426 934.941054636 832.306253352 948.390500155 c 1
 827.531876861 1095.63480027 827.531876861 1095.63480027 809.380210011 1175.50213441 c 0
 791.228543161 1255.36946855 791.228543161 1255.36946855 749.478379902 1296.68473428 c 0
 707.728216644 1338 707.728216644 1338 653.909993802 1338 c 0
 600.091770961 1338 600.091770961 1338 547.110471022 1293.54958734 c 0
 494.129171083 1249.09917468 494.129171083 1249.09917468 449.432230608 1129.27333426 c 2
 440.137343986 1104.35512757 l 1
 257.969840411 1185.31846249 l 1
 268.154182611 1208.16048714 l 2
 341.003537484 1371.55118307 341.003537484 1371.55118307 445.091655567 1443.77559153 c 0
 549.179773651 1516 549.179773651 1516 651 1516 c 0
261 303 m 0
 261 229.932439846 261 229.932439846 304.884763261 183.466219923 c 0
 348.769526521 137 348.769526521 137 406 137 c 0
 473.619336777 137 473.619336777 137 552.444636603 188.00460577 c 0
 663.341421219 260.040123982 663.341421219 260.040123982 733.806596613 411.995638267 c 0
 800.933086401 556.751401958 800.933086401 556.751401958 825.908762336 769.159409397 c 1
 609.216309011 753.938877172 609.216309011 753.938877172 507.217992178 705.411043613 c 0
 400.552090099 654.662508703 400.552090099 654.662508703 330.77604505 538.369100287 c 0
 261 422.075691871 261 422.075691871 261 303 c 0
EndSplineSet
EndChar

StartChar: summation
Encoding: 8721 8721 153
Width: 1460
GlyphClass: 1
Flags: W
LayerCount: 2
Fore
SplineSet
114 1516 m 1
 1401 1516 l 1
 1401 1302 l 1
 439.33146127 1302 l 1
 1026.79933272 551.938055398 l 1
 397.586683141 -245 l 1
 1411 -245 l 1
 1411 -456 l 1
 97 -456 l 1
 97 -235.34985027 l 1
 710.238217247 544.056141972 l 1
 114 1307.39926588 l 1
 114 1516 l 1
EndSplineSet
EndChar

StartChar: product
Encoding: 8719 8719 154
Width: 1686
GlyphClass: 1
Flags: W
LayerCount: 2
Fore
SplineSet
136 1516 m 1
 1548 1516 l 1
 1548 -456 l 1
 1307 -456 l 1
 1307 1292 l 1
 379 1292 l 1
 379 -456 l 1
 136 -456 l 1
 136 1516 l 1
EndSplineSet
EndChar

StartChar: pi1
Encoding: 61456 61456 155
Width: 1124
GlyphClass: 1
Flags: W
LayerCount: 2
Fore
SplineSet
-25 1088 m 1
 1149 1088 l 1
 1149 880 l 1
 987 880 l 1
 987 -25 l 1
 748 -25 l 1
 748 880 l 1
 372 880 l 1
 372 -25 l 1
 134 -25 l 1
 134 880 l 1
 -25 880 l 1
 -25 1088 l 1
EndSplineSet
EndChar

StartChar: integral
Encoding: 8747 8747 156
Width: 561
GlyphClass: 1
Flags: W
LayerCount: 2
Fore
SplineSet
352 1683 m 0
 337 1683 337 1683 337 1643.05202582 c 0
 337 1603.10405165 337 1603.10405165 345.897979507 1501.27161952 c 0
 383 1090.14112216 383 1090.14112216 383 834 c 0
 383 766.614821801 383 766.614821801 366.990666966 245.310914887 c 0
 358.766349282 -57.9607997157 358.766349282 -57.9607997157 271.558356209 -168.566059223 c 1
 209.954881553 -245 209.954881553 -245 118 -245 c 0
 55.4322203032 -245 55.4322203032 -245 15.2161101516 -203.565219844 c 0
 -25 -162.130439688 -25 -162.130439688 -25 -99 c 0
 -25 -44.0675601539 -25 -44.0675601539 7.5 -9.53378007694 c 0
 40 25 40 25 90.5381149571 25 c 0
 141.076229914 25 141.076229914 25 177.527442369 -15.2220275368 c 0
 191.088434596 -30.1858810281 191.088434596 -30.1858810281 201.162686986 -36.1558083702 c 1
 208 -39 l 1
 212.85368949 -39 212.85368949 -39 216.331940227 -34.573135425 c 0
 222 -27.3592411685 222 -27.3592411685 222 -3 c 0
 222 37.5453630272 222 37.5453630272 213.171662036 114.057625382 c 0
 176 430.519072445 176 430.519072445 176 948 c 1
 176.012996299 948.812985149 l 1
 193.012996299 1479.81298515 l 1
 193.043648845 1480.48814185 l 1
 202.285025279 1637.59154122 202.285025279 1637.59154122 244.901514929 1742.57362548 c 0
 274.751762925 1814.43533362 274.751762925 1814.43533362 328.510557589 1851.21766681 c 0
 382.269352252 1888 382.269352252 1888 435 1888 c 0
 494.533534849 1888 494.533534849 1888 539.766767425 1847.59164557 c 0
 585 1807.18329113 585 1807.18329113 585 1756 c 0
 585 1699.18005416 585 1699.18005416 551.4426064 1663.09002708 c 0
 517.885212801 1627 517.885212801 1627 468 1627 c 0
 423.589288274 1627 423.589288274 1627 375.608223753 1669.12971519 c 0
 359.65739622 1683 359.65739622 1683 352 1683 c 0
EndSplineSet
EndChar

StartChar: ordfeminine
Encoding: 170 170 157
Width: 671
GlyphClass: 1
Flags: W
LayerCount: 2
Fore
SplineSet
638.004882812 752.555664062 m 2,0,1
 650.478515625 708.27734375 650.478515625 708.27734375 662.952148438 714 c 1,2,-1
 479.069335938 714 l 1,3,4
 475.923828125 696.865234375 475.923828125 696.865234375 472.77734375 729.729492188 c 2,5,6
 464.155273438 751.287109375 464.155273438 751.287109375 459.234375 775.115234375 c 1,7,8
 368.016601562 696 368.016601562 696 269.20703125 696 c 128,-1,9
 170.3984375 696 170.3984375 696 106.19921875 762.451171875 c 128,-1,10
 42 828.903320312 42 828.903320312 42 939 c 0,11,12
 42 1031.59082031 42 1031.59082031 86.27734375 1088.35644531 c 128,-1,13
 130.421875 1144.95214844 130.421875 1144.95214844 209.293945312 1166.36035156 c 1,14,15
 296.01171875 1158.40332031 296.01171875 1158.40332031 382.729492188 1200.44628906 c 1,16,17
 419.5625 1209.04492188 419.5625 1209.04492188 441.471679688 1214.79492188 c 1,18,19
 440.05078125 1246.35058594 440.05078125 1246.35058594 435.66015625 1265.28515625 c 128,-1,20
 431.268554688 1284.21972656 431.268554688 1284.21972656 425.560546875 1291.28710938 c 0,21,22
 399.078125 1324 399.078125 1324 340.7109375 1324 c 128,-1,23
 282.34375 1324 282.34375 1324 255.046875 1293.69824219 c 0,24,25
 232.547851562 1268.72070312 232.547851562 1268.72070312 226.821289062 1220.99511719 c 2,26,27
 225.05078125 1181.24023438 225.05078125 1181.24023438 223.279296875 1191.48535156 c 1,28,29
 142.518554688 1190.78515625 142.518554688 1190.78515625 61.7568359375 1240.08496094 c 1,30,31
 62.9619140625 1225.49316406 62.9619140625 1225.49316406 64.1669921875 1260.90136719 c 2,32,33
 76.2783203125 1365.49902344 76.2783203125 1365.49902344 148.46875 1428.24902344 c 128,-1,34
 220.66015625 1491 220.66015625 1491 341 1491 c 0,35,36
 479.346679688 1491 479.346679688 1491 544.826171875 1425.52148438 c 0,37,38
 610 1359.22363281 610 1359.22363281 610 1224 c 2,39,40
 610 1078.78417969 610 1078.78417969 610 983.568359375 c 1,41,42
 609.5 929.176757812 609.5 929.176757812 609 924.78515625 c 1,43,44
 609.014648438 852.516601562 609.014648438 852.516601562 617.44140625 811.9140625 c 128,-1,45
 625.868164062 771.310546875 625.868164062 771.310546875 638.004882812 752.555664062 c 2,0,1
235.918945312 886.43359375 m 128,-1,47
 257.837890625 866 257.837890625 866 294 866 c 0,48,49
 342.236328125 866 342.236328125 866 380.703125 896.7734375 c 0,50,51
 418.624023438 927.110351562 418.624023438 927.110351562 434.078125 979.280273438 c 0,52,53
 438.173828125 992.735351562 438.173828125 992.735351562 439.579101562 1045.77832031 c 1,54,55
 388.647460938 1032.72265625 388.647460938 1032.72265625 312.524414062 1018.40917969 c 0,56,57
 275.559570312 1011.640625 275.559570312 1011.640625 257.6015625 1004.39355469 c 128,-1,58
 239.643554688 997.145507812 239.643554688 997.145507812 233.806640625 991.45703125 c 0,59,60
 214 970.783203125 214 970.783203125 214 938.82421875 c 128,-1,46
 214 906.866210938 214 906.866210938 235.918945312 886.43359375 c 128,-1,47
EndSplineSet
EndChar

StartChar: ordmasculine
Encoding: 186 186 158
Width: 662
GlyphClass: 1
Flags: W
LayerCount: 2
Fore
SplineSet
37 1088.41796875 m 128,-1,1
 37 1278.6171875 37 1278.6171875 125.255859375 1391.32910156 c 0,2,3
 202.77734375 1491 202.77734375 1491 330.446289062 1491 c 128,-1,4
 458.116210938 1491 458.116210938 1491 536.694335938 1391.39355469 c 0,5,6
 625 1278.6171875 625 1278.6171875 625 1090.53222656 c 128,-1,7
 625 902.447265625 625 902.447265625 536.66015625 788.563476562 c 0,8,9
 459.138671875 690 459.138671875 690 331.573242188 690 c 128,-1,10
 204.008789062 690 204.008789062 690 120.50390625 794.109375 c 128,-1,0
 37 898.21875 37 898.21875 37 1088.41796875 c 128,-1,1
454 1089.9609375 m 128,-1,12
 454 1208.90332031 454 1208.90332031 416.73828125 1260.359375 c 0,13,14
 382.240234375 1308 382.240234375 1308 330.071289062 1308 c 128,-1,15
 277.90234375 1308 277.90234375 1308 244.892578125 1261.54296875 c 0,16,17
 209 1211.02734375 209 1211.02734375 209 1091.02246094 c 128,-1,18
 209 971.018554688 209 971.018554688 245.844726562 919.524414062 c 0,19,20
 279.849609375 872 279.849609375 872 331.5 872 c 128,-1,21
 383.150390625 872 383.150390625 872 417.155273438 919.524414062 c 0,22,11
 454 971.018554688 454 971.018554688 454 1089.9609375 c 128,-1,12
EndSplineSet
EndChar

StartChar: Ohm
Encoding: 8486 8486 159
Width: 1673
GlyphClass: 1
Flags: W
LayerCount: 2
Fore
SplineSet
1263.24441624 204.529296875 m 1,0,1
 1420.84765625 224.51953125 1420.84765625 224.51953125 1575 209.448242188 c 1,2,3
 1575 125.547851562 1575 125.547851562 1575 0 c 1,4,-1
 929.081722708 0 l 1,5,6
 929.081722708 124.831054688 929.081722708 124.831054688 929.081722708 209.338867188 c 1,7,8
 936.385397361 228.802734375 936.385397361 228.802734375 943.689072015 216.002929688 c 2,9,10
 1025.15575116 253.166015625 1025.15575116 253.166015625 1069.26322768 287.921875 c 0,11,12
 1141.85070754 344.029296875 1141.85070754 344.029296875 1192.54880244 421.737304688 c 0,13,14
 1295.2216927 579.111328125 1295.2216927 579.111328125 1295.2216927 772.07421875 c 0,15,16
 1295.2216927 900.768554688 1295.2216927 900.768554688 1245.11506356 1029.60351562 c 128,-1,17
 1195.00740398 1158.43945312 1195.00740398 1158.43945312 1095.74832215 1224.21972656 c 128,-1,18
 996.488209889 1290 996.488209889 1290 854.165475245 1290 c 0,19,20
 664.593488687 1290 664.593488687 1290 561.806220904 1182.82421875 c 0,21,22
 414.164416203 1026.90136719 414.164416203 1026.90136719 414.164416203 774.962890625 c 0,23,24
 414.164416203 572.584960938 414.164416203 572.584960938 506.2486269 429.022460938 c 128,-1,25
 598.331807169 285.4609375 598.331807169 285.4609375 759.452642364 219.310546875 c 2,26,27
 767.240618243 232.116210938 767.240618243 232.116210938 775.028594122 212.916015625 c 1,28,29
 775.028594122 126.552734375 775.028594122 126.552734375 775.028594122 0 c 1,30,-1
 127 0 l 1,31,32
 127 126.545898438 127 126.545898438 127 211.51171875 c 1,33,34
 281.505859375 225.759765625 281.505859375 225.759765625 439.5005833 205.028320312 c 1,35,36
 376.270421369 247.315429688 376.270421369 247.315429688 337.47265625 288.620117188 c 0,37,38
 247.1640625 385.063476562 247.1640625 385.063476562 198.58203125 514.612304688 c 128,-1,39
 150 644.161132812 150 644.161132812 150 800.374023438 c 0,40,41
 150 995.609375 150 995.609375 232.409179688 1160.63964844 c 128,-1,42
 314.818359375 1325.66894531 314.818359375 1325.66894531 478.045808719 1414.33496094 c 0,43,44
 644.46922712 1503 644.46922712 1503 858.386108905 1503 c 0,45,46
 1226.55396148 1503 1226.55396148 1503 1419.453125 1246.89160156 c 0,47,48
 1555 1060.63183594 1555 1060.63183594 1555 799.40625 c 0,49,50
 1555 631.962890625 1555 631.962890625 1499.19140625 502.43359375 c 128,-1,51
 1443.38183594 372.905273438 1443.38183594 372.905273438 1353.35839844 279.73046875 c 0,52,53
 1317.91172034 242.83984375 1317.91172034 242.83984375 1263.24441624 204.529296875 c 1,0,1
EndSplineSet
EndChar

StartChar: ae
Encoding: 230 230 160
Width: 1593
GlyphClass: 1
Flags: W
LayerCount: 2
Fore
SplineSet
1368.45605469 69.7431640625 m 0,0,1
 1261.57553783 -24 1261.57553783 -24 1100.91843782 -24 c 0,2,3
 987.245932277 -24 987.245932277 -24 897.801498307 26.4990234375 c 0,4,5
 820.881693082 69.927734375 820.881693082 69.927734375 756.685124222 157.620117188 c 1,6,7
 584.855573773 -24 584.855573773 -24 378.044326706 -24 c 0,8,9
 230.341796875 -24 230.341796875 -24 141.670898438 63.6669921875 c 128,-1,10
 53 151.334960938 53 151.334960938 53 286.934570312 c 0,11,12
 53 378.416015625 53 378.416015625 97.3037109375 453.706054688 c 128,-1,13
 141.606445312 528.995117188 141.606445312 528.995117188 216.139648438 568.643554688 c 128,-1,14
 290.671875 608.291992188 290.671875 608.291992188 467.575201299 633.583984375 c 0,15,16
 582.420829577 650.383789062 582.420829577 650.383789062 664.070171711 673.881835938 c 1,17,18
 664.367568614 671.66015625 664.367568614 671.66015625 664.664965517 695.801757812 c 1,19,20
 664.607338435 808.706054688 664.607338435 808.706054688 625.088538199 847.852539062 c 128,-1,21
 585.569737962 887 585.569737962 887 487.634570957 887 c 0,22,23
 382.292265861 887 382.292265861 887 336.390237287 850.771484375 c 0,24,25
 290.874023438 814.512695312 290.874023438 814.512695312 269.552734375 703.2734375 c 2,26,27
 267.301757812 666.529296875 267.301757812 666.529296875 265.05078125 679.784179688 c 1,28,29
 168.796875 668.919921875 168.796875 668.919921875 72.54296875 708.0546875 c 1,30,31
 74.994140625 695.8828125 74.994140625 695.8828125 77.4443359375 733.7109375 c 2,32,33
 113.103515625 920.401367188 113.103515625 920.401367188 211.41796875 1003.13476562 c 0,34,35
 310.484806015 1086 310.484806015 1086 491.849580352 1086 c 0,36,37
 625.655547519 1086 625.655547519 1086 706.057674959 1047.3125 c 0,38,39
 770.213081618 1016.44238281 770.213081618 1016.44238281 809.516809354 961.642578125 c 1,40,41
 926.108744015 1086 926.108744015 1086 1099.86468548 1086 c 0,42,43
 1226.20794558 1086 1226.20794558 1086 1319.08984375 1025.08398438 c 0,44,45
 1409.28222656 964.16796875 1409.28222656 964.16796875 1465.640625 834.702148438 c 128,-1,46
 1522 705.237304688 1522 705.237304688 1522 541.735351562 c 2,47,48
 1522 538.401367188 1522 538.401367188 1522 541.328125 c 1,49,-1
 1520.58496094 460 l 1,50,-1
 871.621309343 460 l 1,51,52
 874.934866532 346.377929688 874.934866532 346.377929688 900.989510784 294.520507812 c 128,-1,53
 927.04312598 242.663085938 927.04312598 242.663085938 985.341151421 208.33203125 c 128,-1,54
 1043.63917686 174 1043.63917686 174 1110.40220896 174 c 0,55,56
 1183.99405023 174 1183.99405023 174 1239.93656871 225.75 c 0,57,58
 1295.01464844 277.5 1295.01464844 277.5 1315.49414062 378.96484375 c 2,59,60
 1317.85742188 415.67578125 1317.85742188 415.67578125 1320.22167969 402.387695312 c 1,61,62
 1422.46679688 411.453125 1422.46679688 411.453125 1524.71191406 370.518554688 c 1,63,64
 1521.50390625 382.303710938 1521.50390625 382.303710938 1518.29589844 344.08984375 c 2,65,66
 1474.45019531 163.486328125 1474.45019531 163.486328125 1368.45605469 69.7431640625 c 0,0,1
1249.82475847 829.662109375 m 0,67,68
 1190.25482102 887 1190.25482102 887 1101.97219017 887 c 0,69,70
 1006.58290531 887 1006.58290531 887 943.877437182 824.541992188 c 0,71,72
 885.427111597 766.322265625 885.427111597 766.322265625 873.236925736 658 c 1,73,-1
 1318.59667969 658 l 1,74,75
 1304.21582031 776.001953125 1304.21582031 776.001953125 1249.82475847 829.662109375 c 0,67,68
419.912459571 435.448242188 m 0,76,77
 332.537455263 419.786132812 332.537455263 419.786132812 301.270647295 391.809570312 c 0,78,79
 259 351.352539062 259 351.352539062 259 286.271484375 c 128,-1,80
 259 221.189453125 259 221.189453125 297.25390625 182.094726562 c 0,81,82
 337.483093727 143 337.483093727 143 408.603144815 143 c 0,83,84
 499.450180788 143 499.450180788 143 567.051892735 194.50390625 c 128,-1,85
 634.776062232 246.100585938 634.776062232 246.100585938 654.830286615 326.754882812 c 0,86,87
 665.131127444 367.48828125 665.131127444 367.48828125 665.765025342 494.434570312 c 1,88,89
 588.04564436 466.0703125 588.04564436 466.0703125 419.912459571 435.448242188 c 0,76,77
EndSplineSet
EndChar

StartChar: oslash
Encoding: 248 248 161
Width: 1126
GlyphClass: 1
Flags: W
LayerCount: 2
Fore
SplineSet
143.822265625 286.849609375 m 0,0,1
 113 396.138671875 113 396.138671875 113 517.485351562 c 0,2,3
 113 799.208007812 113 799.208007812 234.541015625 942.604492188 c 128,-1,4
 356.081054688 1086 356.081054688 1086 567.599444563 1086 c 0,5,6
 643.81970666 1086 643.81970666 1086 711.799820751 1065.1171875 c 0,7,8
 768.734771383 1047.62597656 768.734771383 1047.62597656 828.71484375 1009.23730469 c 1,9,10
 870.150390625 1049.71582031 870.150390625 1049.71582031 911.584960938 1140.19335938 c 1,11,12
 970.068359375 1068.58300781 970.068359375 1068.58300781 1028.55175781 1040.8203125 c 1,13,14
 982.921875 955.158203125 982.921875 955.158203125 937.29296875 903.6015625 c 1,15,16
 986.361328125 821.736328125 986.361328125 821.736328125 1004.27050781 753.619140625 c 0,17,18
 1029 657.78515625 1029 657.78515625 1029 532.116210938 c 0,19,20
 1029 257.840820312 1029 257.840820312 906.346679688 116.919921875 c 128,-1,21
 783.693359375 -24 783.693359375 -24 563.065370647 -24 c 0,22,23
 427.230227999 -24 427.230227999 -24 320.608398438 44.845703125 c 1,24,25
 276.818359375 1.1044921875 276.818359375 1.1044921875 233.028320312 -92.6357421875 c 1,26,27
 175.887695312 -14.9482421875 175.887695312 -14.9482421875 118.748046875 12.7392578125 c 1,28,29
 164.381835938 102.630859375 164.381835938 102.630859375 210.016601562 150.896484375 c 1,30,31
 162.194335938 218.59765625 162.194335938 218.59765625 143.822265625 286.849609375 c 0,0,1
387.977722859 796.052734375 m 0,32,33
 314 701.693359375 314 701.693359375 314 510 c 0,34,35
 314 396.133789062 314 396.133789062 338.416992188 311.944335938 c 1,36,37
 523.893672977 549.630859375 523.893672977 549.630859375 712.085414274 837.317382812 c 1,38,39
 643.654770866 887 643.654770866 887 571 887 c 0,40,41
 465.039268202 887 465.039268202 887 387.977722859 796.052734375 c 0,32,33
754.575752961 264.430664062 m 0,42,43
 828 358.294921875 828 358.294921875 828 559 c 0,44,45
 828 629.953125 828 629.953125 820.327148438 676.948242188 c 0,46,47
 815.93359375 703.858398438 815.93359375 703.858398438 806.623046875 736.35546875 c 1,48,49
 624.185705428 501.3046875 624.185705428 501.3046875 438.625188178 216.25390625 c 1,50,51
 495.163850122 174 495.163850122 174 565.332407605 174 c 0,52,53
 678.079859906 174 678.079859906 174 754.575752961 264.430664062 c 0,42,43
EndSplineSet
EndChar

StartChar: questiondown
Encoding: 191 191 162
Width: 1026
GlyphClass: 1
Flags: W
LayerCount: 2
Fore
SplineSet
629 1087 m 1
 629 832 l 1
 411 832 l 1
 411 1087 l 1
 629 1087 l 1
309 -17 m 0
 309 -118.295178482 309 -118.295178482 372.002205923 -187.147589241 c 0
 435.004411847 -256 435.004411847 -256 516 -256 c 0
 596.941839558 -256 596.941839558 -256 655.078422524 -192.004691619 c 0
 713.215005489 -128.009383238 713.215005489 -128.009383238 732.209148373 18.2455169633 c 2
 735.455126894 43.2395515748 l 1
 935.260173905 15.4520947057 l 1
 932.876191076 -8.50125658034 l 2
 911.008473664 -228.219750578 911.008473664 -228.219750578 800.248351306 -341.109875289 c 0
 689.488228948 -454 689.488228948 -454 516.003786179 -454 c 0
 342.519343409 -454 342.519343409 -454 225.166078704 -334.513039572 c 0
 108 -215.216668529 108 -215.216668529 108 -30 c 0
 108 72.3737749636 108 72.3737749636 145.940785752 156.686632189 c 0
 183.881571503 240.999489415 183.881571503 240.999489415 295.592401953 360.909279897 c 0
 383.452312214 456.493138314 383.452312214 456.493138314 404.750482473 510.201567663 c 0
 426.067291055 563.956997999 426.067291055 563.956997999 428.002523024 701.35846782 c 2
 428.349586858 726 l 1
 619.514697065 726 l 1
 620.995114562 650.498707629 l 1
 620.995114562 650 l 2
 620.995114562 499.257146161 620.995114562 499.257146161 571.561860041 397.225240288 c 0
 535.90860956 322.772864283 535.90860956 322.772864283 423.239126181 201.909236659 c 0
 350.960636492 124.812180991 350.960636492 124.812180991 329.980318246 80.1149812492 c 0
 309 35.4177815076 309 35.4177815076 309 -17 c 0
EndSplineSet
EndChar

StartChar: exclamdown
Encoding: 161 161 163
Width: 559
GlyphClass: 1
Flags: W
LayerCount: 2
Fore
SplineSet
389 1087 m 1
 389 832 l 1
 170 832 l 1
 170 1087 l 1
 389 1087 l 1
396 -429 m 1
 163 -429 l 1
 163 -78.3132028919 l 2
 163.036987992 310.370194287 163.036987992 310.370194287 205.036987992 698.370194287 c 1
 206.315920775 722 l 1
 349.592914491 722 l 1
 395.957572591 -77.5327707943 l 1
 396 -79 l 1
 396 -429 l 1
EndSplineSet
EndChar

StartChar: logicalnot
Encoding: 172 172 164
Width: 981
GlyphClass: 1
Flags: W
LayerCount: 2
Fore
SplineSet
911 399 m 1
 721 399 l 1
 721 837 l 1
 67 837 l 1
 67 1055 l 1
 911 1055 l 1
 911 399 l 1
EndSplineSet
EndChar

StartChar: radical
Encoding: 8730 8730 165
Width: 1124
GlyphClass: 1
Flags: W
LayerCount: 2
Fore
SplineSet
1153.32827816 1894 m 1
 824.146404281 -160.221501423 l 1
 304.204744278 910.061633381 l 1
 106.995038177 819.424849264 l 1
 49.9137023942 926.87206956 l 1
 396.308916572 1100.64508398 l 1
 777.72881444 325.562180412 l 1
 1028.67886557 1894 l 1
 1153.32827816 1894 l 1
EndSplineSet
EndChar

StartChar: florin
Encoding: 402 402 166
Width: 1034
GlyphClass: 1
Flags: W
LayerCount: 2
Fore
SplineSet
98.197265625 -200.83203125 m 2,0,1
 178.059570312 -222 178.059570312 -222 216.784179688 -222 c 0,2,3
 249.291015625 -222 249.291015625 -222 265.796875 -202.744140625 c 0,4,5
 273.231445312 -194.069335938 273.231445312 -194.069335938 281.771145279 -168.3828125 c 0,6,7
 291.211679404 -142.696289062 291.211679404 -142.696289062 298.969449802 -91.529296875 c 2,8,9
 377.925948495 397.96484375 377.925948495 397.96484375 456.883540602 879.893554688 c 1,10,11
 365.126447398 862.787109375 365.126447398 862.787109375 274.159179688 879.893554688 c 1,12,13
 287.804602228 950.768554688 287.804602228 950.768554688 302.240943676 1062 c 1,14,-1
 487.335112919 1062 l 1,15,16
 496.738470978 1092.84472656 496.738470978 1092.84472656 506.140735622 1173.68847656 c 2,17,18
 529.207391622 1312.75097656 529.207391622 1312.75097656 562.902029056 1371.296875 c 128,-1,19
 596.597759904 1429.84375 596.597759904 1429.84375 655.435446006 1460.921875 c 128,-1,20
 714.273132109 1492 714.273132109 1492 788.452148438 1492 c 0,21,22
 858.958984375 1492 858.958984375 1492 973.875 1452.65917969 c 2,23,24
 984.130859375 1424.1484375 984.130859375 1424.1484375 994.385742188 1445.63769531 c 1,25,26
 975.317382812 1320.03515625 975.317382812 1320.03515625 956.249023438 1244.43261719 c 1,27,28
 943.080078125 1223.1953125 943.080078125 1223.1953125 929.911132812 1251.95800781 c 2,29,30
 849.264648438 1275 849.264648438 1275 812.930664062 1275 c 128,-1,31
 776.595703125 1275 776.595703125 1275 761.110351562 1256.14746094 c 0,32,33
 753.965820312 1247.45019531 753.965820312 1247.45019531 744.867941625 1219.8203125 c 0,34,35
 735.132185793 1192.19042969 735.132185793 1192.19042969 726.12355009 1136.40527344 c 2,36,37
 719.652727649 1074.203125 719.652727649 1074.203125 713.181905209 1062 c 1,38,-1
 883.611328125 1062 l 1,39,40
 870.040039062 942 870.040039062 942 856.46875 872 c 1,41,-1
 681.270625565 872 l 1,42,43
 595.644303133 361.673828125 595.644303133 361.673828125 510.019074115 -148.653320312 c 2,44,45
 484.152185558 -306.16796875 484.152185558 -306.16796875 421.856031834 -367.315429688 c 0,46,47
 356.975048058 -431 356.975048058 -431 247.784179688 -431 c 0,48,49
 166.743164062 -431 166.743164062 -431 57.81640625 -404.282226562 c 2,50,51
 46.408203125 -376.483398438 46.408203125 -376.483398438 35 -398.685546875 c 1,52,53
 53.498046875 -271.286132812 53.498046875 -271.286132812 71.99609375 -193.88671875 c 1,54,55
 85.0966796875 -172.359375 85.0966796875 -172.359375 98.197265625 -200.83203125 c 2,0,1
EndSplineSet
EndChar

StartChar: approxequal
Encoding: 8776 8776 167
Width: 1124
GlyphClass: 1
Flags: W
LayerCount: 2
Fore
SplineSet
26 679.169890576 m 1
 26 952.453628704 l 1
 32.2589058397 959.539182485 l 2
 145.732627978 1088 145.732627978 1088 329 1088 c 0
 392.210257039 1088 392.210257039 1088 460.168992134 1070.36185501 c 0
 528.127727228 1052.72371003 528.127727228 1052.72371003 652.949360435 998.938778645 c 0
 720.026512172 969.774799629 720.026512172 969.774799629 752.040076126 961.887399815 c 0
 784.05364008 954 784.05364008 954 816 954 c 0
 874.463374875 954 874.463374875 954 939.372557129 990.423857668 c 0
 1004.28173938 1026.84771534 1004.28173938 1026.84771534 1055.55600279 1082.86959573 c 2
 1099 1130.33618527 l 1
 1099 843.175783187 l 1
 1091.09076334 835.760873819 l 2
 1023.73870565 772.618319734 1023.73870565 772.618319734 953.849817825 743.809159867 c 0
 883.960929999 715 883.960929999 715 797 715 c 0
 733.903175875 715 733.903175875 715 677.366670366 729.134126377 c 0
 620.830164857 743.268252754 620.830164857 743.268252754 499.69007162 797.221403524 c 0
 385.585386793 849 385.585386793 849 312 849 c 0
 253.766643946 849 253.766643946 849 201.624498194 823.621079501 c 0
 149.482352442 798.242159002 149.482352442 798.242159002 68.347505376 720.004985046 c 2
 26 679.169890576 l 1
26 317.169890576 m 1
 26 590.453628704 l 1
 32.2589058397 597.539182485 l 2
 145.732627978 726 145.732627978 726 329 726 c 0
 392.210257039 726 392.210257039 726 460.15601109 708.36522414 c 0
 528.10176514 690.730448279 528.10176514 690.730448279 652.771685121 637.015481011 c 0
 720.061237453 608.738635154 720.061237453 608.738635154 752.143621063 600.369317577 c 0
 784.226004672 592 784.226004672 592 816 592 c 0
 874.463374875 592 874.463374875 592 939.372557129 628.423857668 c 0
 1004.28173938 664.847715335 1004.28173938 664.847715335 1055.55600279 720.869595729 c 2
 1099 768.336185269 l 1
 1099 481.175783187 l 1
 1091.09076334 473.760873819 l 2
 1023.73870565 410.618319734 1023.73870565 410.618319734 953.849817825 381.809159867 c 0
 883.960929999 353 883.960929999 353 797 353 c 0
 733.793097713 353 733.793097713 353 677.26032325 367.656645231 c 0
 620.727548787 382.313290462 620.727548787 382.313290462 503.201903174 434.656645231 c 0
 385.676257561 487 385.676257561 487 312 487 c 0
 253.766643946 487 253.766643946 487 201.624498194 461.621079501 c 0
 149.482352442 436.242159002 149.482352442 436.242159002 68.347505376 358.004985046 c 2
 26 317.169890576 l 1
EndSplineSet
EndChar

StartChar: increment
Encoding: 8710 8710 168
Width: 1253
GlyphClass: 1
Flags: W
LayerCount: 2
Fore
SplineSet
-12.7660861688 -25 m 1
 655.071539442 1449.98532918 l 1
 1263.35676532 -25 l 1
 -12.7660861688 -25 l 1
189.845175908 107 m 1
 952.635797108 107 l 1
 589.878397991 986.16392217 l 1
 189.845175908 107 l 1
EndSplineSet
EndChar

StartChar: guillemotleft
Encoding: 171 171 169
Width: 934
GlyphClass: 1
Flags: W
LayerCount: 2
Fore
SplineSet
353.503202279 47 m 1
 78.1939917532 528 l 1
 353.503202279 1009 l 1
 529.35173237 1009 l 1
 303.607649668 527.975225644 l 1
 528.273709015 47 l 1
 353.503202279 47 l 1
670.391975968 47 m 1
 399.302063688 528 l 1
 670.391975968 1009 l 1
 848.508045254 1009 l 1
 620.66593999 528 l 1
 848.508045254 47 l 1
 670.391975968 47 l 1
EndSplineSet
EndChar

StartChar: guillemotright
Encoding: 187 187 170
Width: 934
GlyphClass: 1
Flags: W
LayerCount: 2
Fore
SplineSet
392.64826763 1009 m 1
 567.496797721 1009 l 1
 842.806008247 528 l 1
 567.496797721 47 l 1
 393.726290985 47 l 1
 618.392350332 527.975225644 l 1
 392.64826763 1009 l 1
250.608024032 1009 m 1
 521.697936312 528 l 1
 250.608024032 47 l 1
 72.4919547465 47 l 1
 300.33406001 528 l 1
 72.4919547465 1009 l 1
 250.608024032 1009 l 1
EndSplineSet
EndChar

StartChar: ellipsis
Encoding: 8230 8230 171
Width: 1679
GlyphClass: 1
Flags: W
LayerCount: 2
Fore
SplineSet
171 -25 m 1
 171 230 l 1
 389 230 l 1
 389 -25 l 1
 171 -25 l 1
731 -25 m 1
 731 230 l 1
 949 230 l 1
 949 -25 l 1
 731 -25 l 1
1291 -25 m 1
 1291 230 l 1
 1509 230 l 1
 1509 -25 l 1
 1291 -25 l 1
EndSplineSet
EndChar

StartChar: OE
Encoding: 338 338 175
Width: 1779
GlyphClass: 1
Flags: W
LayerCount: 2
Fore
SplineSet
354.735345405 1413.49414062 m 0,0,1
 470.131448312 1491 470.131448312 1491 630.343297975 1491 c 0,2,3
 827.5558816 1491 827.5558816 1491 945.298123285 1334.08300781 c 1,4,5
 945.298123285 1375.04199219 945.298123285 1375.04199219 945.298123285 1466 c 1,6,-1
 1701 1466 l 1,7,8
 1701 1329.5 1701 1329.5 1701 1243 c 1,9,-1
 1153.52407091 1243 l 1,10,-1
 1153.52407091 870 l 1,11,-1
 1659 870 l 1,12,-1
 1659 648 l 1,13,-1
 1153.52407091 648 l 1,14,-1
 1153.52407091 223 l 1,15,-1
 1726 223 l 1,16,17
 1726 136.5 1726 136.5 1726 0 c 1,18,-1
 945.298123285 0 l 1,19,20
 945.298123285 95.822265625 945.298123285 95.822265625 945.298123285 141.645507812 c 1,21,22
 826.770088603 -25 826.770088603 -25 630.343297975 -25 c 0,23,24
 396.300627243 -25 396.300627243 -25 260.77734375 151.485351562 c 0,25,26
 106 357.259765625 106 357.259765625 106 735.904296875 c 0,27,28
 106 988.241210938 106 988.241210938 175.16015625 1162.11523438 c 128,-1,29
 244.319335938 1335.98925781 244.319335938 1335.98925781 354.735345405 1413.49414062 c 0,0,1
841.342512436 1158.40234375 m 0,30,31
 750.238551161 1284 750.238551161 1284 627.204213337 1284 c 128,-1,32
 504.114696291 1284 504.114696291 1284 413.018909716 1159.29394531 c 0,33,34
 320 1029.93945312 320 1029.93945312 320 733.451171875 c 128,-1,35
 320 436.963867188 320 436.963867188 413.554352538 306.646484375 c 0,36,37
 505.175363561 181 505.175363561 181 631.389659521 181 c 0,38,39
 751.244039209 181 751.244039209 181 841.829928899 306.548828125 c 0,40,41
 935.880869372 436.900390625 935.880869372 436.900390625 935.880869372 732.484375 c 128,-1,42
 935.880869372 1028.06835938 935.880869372 1028.06835938 841.342512436 1158.40234375 c 0,30,31
EndSplineSet
EndChar

StartChar: oe
Encoding: 339 339 176
Width: 1685
GlyphClass: 1
Flags: W
LayerCount: 2
Fore
SplineSet
987.326604437 31.4931640625 m 0,0,1
 907.031247424 76.9677734375 907.031247424 76.9677734375 854.069738734 153.3203125 c 1,2,3
 720.099655725 -24 720.099655725 -24 513.286106871 -24 c 0,4,5
 314.220703125 -24 314.220703125 -24 192.110351562 117.6328125 c 128,-1,6
 70 259.265625 70 259.265625 70 520.474609375 c 0,7,8
 70 705.189453125 70 705.189453125 125.415039062 831.751953125 c 128,-1,9
 180.830078125 958.315429688 180.830078125 958.315429688 280.080078125 1022.140625 c 0,10,11
 382.521402791 1086 382.521402791 1086 517.483431709 1086 c 0,12,13
 637.431006641 1086 637.431006641 1086 734.110891689 1027.07714844 c 0,14,15
 810.524543016 980.504882812 810.524543016 980.504882812 856.993314848 908.098632812 c 1,16,17
 911.305427576 984.509765625 911.305427576 984.509765625 986.179923164 1029.64355469 c 0,18,19
 1079.67184982 1086 1079.67184982 1086 1189.05540577 1086 c 0,20,21
 1387.32128906 1086 1387.32128906 1086 1508.84179688 933.763671875 c 0,22,23
 1625.07714844 788.1484375 1625.07714844 788.1484375 1625.07714844 497.03515625 c 0,24,25
 1625.07714844 489.46875 1625.07714844 489.46875 1624.75585938 458 c 1,26,-1
 964.371459492 458 l 1,27,28
 972.302927814 325.5859375 972.302927814 325.5859375 1039.58001951 251.731445312 c 0,29,30
 1110.38835666 174 1110.38835666 174 1208.99269875 174 c 0,31,32
 1281.69270134 174 1281.69270134 174 1337.88930635 223.091796875 c 0,33,34
 1393.390625 272.182617188 1393.390625 272.182617188 1417.64648438 376.666992188 c 2,35,36
 1420.32519531 413.208984375 1420.32519531 413.208984375 1423.00488281 399.750976562 c 1,37,38
 1520.96777344 407.424804688 1520.96777344 407.424804688 1618.93164062 365.09765625 c 1,39,40
 1616.18359375 377.396484375 1616.18359375 377.396484375 1613.43554688 339.696289062 c 2,41,42
 1574.69824219 160.666992188 1574.69824219 160.666992188 1469.5546875 68.333984375 c 0,43,44
 1363.67682577 -24 1363.67682577 -24 1204.79537391 -24 c 0,45,46
 1085.3099556 -24 1085.3099556 -24 987.326604437 31.4931640625 c 0,0,1
336.887792029 793.672851562 m 0,47,48
 271 693.625976562 271 693.625976562 271 532.869140625 c 0,49,50
 271 359.423828125 271 359.423828125 332.776545142 271.752929688 c 0,51,52
 403.740642395 174 403.740642395 174 515.38476929 174 c 0,53,54
 606.887680441 174 606.887680441 174 678.767893027 262.8671875 c 0,55,56
 753.58295384 355.362304688 753.58295384 355.362304688 753.58295384 534.619140625 c 128,-1,57
 753.58295384 713.875976562 753.58295384 713.875976562 679.055844267 802.522460938 c 0,58,59
 607.192027481 888 607.192027481 888 506.990119614 888 c 0,60,61
 401.090671196 888 401.090671196 888 336.887792029 793.672851562 c 0,47,48
1417.82324219 656 m 1,62,63
 1404.82714844 769.48046875 1404.82714844 769.48046875 1348.62240702 826.779296875 c 0,64,65
 1287.22730863 888 1287.22730863 888 1198.96871643 888 c 128,-1,66
 1110.71012424 888 1110.71012424 888 1045.10745363 823.5 c 0,67,68
 984.189882921 763.607421875 984.189882921 763.607421875 970.958472201 656 c 1,69,-1
 1417.82324219 656 l 1,62,63
EndSplineSet
EndChar

StartChar: endash
Encoding: 8211 8211 177
Width: 934
GlyphClass: 1
Flags: W
LayerCount: 2
Fore
SplineSet
-31 433 m 1
 -31 628 l 1
 953 628 l 1
 953 433 l 1
 -31 433 l 1
EndSplineSet
EndChar

StartChar: emdash
Encoding: 8212 8212 178
Width: 1679
GlyphClass: 1
Flags: W
LayerCount: 2
Fore
SplineSet
-25 433 m 1
 -25 628 l 1
 1704 628 l 1
 1704 433 l 1
 -25 433 l 1
EndSplineSet
EndChar

StartChar: quotedblleft
Encoding: 8220 8220 179
Width: 559
GlyphClass: 1
Flags: W
LayerCount: 2
Fore
SplineSet
506 1220 m 1
 506 961 l 1
 297 961 l 1
 297 1151 l 2
 297 1297.90656778 297 1297.90656778 334.020606421 1371.94778063 c 0
 371.041212842 1445.98899347 371.041212842 1445.98899347 444.693179378 1487.76175061 c 2
 467.200058049 1500.52684597 l 1
 527.921440519 1384.00743637 l 1
 505.156051125 1372.62474167 l 2
 470.411564036 1355.25249813 470.411564036 1355.25249813 451.170808661 1318.44409654 c 0
 434.267093819 1286.1065551 434.267093819 1286.1065551 429.35342901 1220 c 1
 506 1220 l 1
251 1220 m 1
 251 961 l 1
 43 961 l 1
 43 1151 l 2
 43 1297.8291984 43 1297.8291984 79.5046618585 1371.92821351 c 0
 116.009323717 1446.02722863 116.009323717 1446.02722863 190.831017116 1487.83935141 c 2
 213.275589772 1500.38190672 l 1
 273.921440519 1384.00743637 l 1
 251.156051125 1372.62474167 l 2
 216.353250733 1355.22334148 216.353250733 1355.22334148 197.116175474 1318.8401774 c 0
 180.241898802 1286.92578456 180.241898802 1286.92578456 175.335766567 1220 c 1
 251 1220 l 1
EndSplineSet
EndChar

StartChar: quotedblright
Encoding: 8221 8221 180
Width: 559
GlyphClass: 1
Flags: W
LayerCount: 2
Fore
SplineSet
46 1231 m 1
 46 1491 l 1
 255 1491 l 1
 255 1301 l 2
 255 1153.09343222 255 1153.09343222 217.925229582 1078.94389138 c 0
 180.850459165 1004.79435055 180.850459165 1004.79435055 105.922460733 964.024704342 c 2
 83.470024096 951.807937348 l 1
 24.3074986159 1066.84618134 l 1
 46.6380357508 1078.27110731 l 2
 112.574427908 1112.00600563 112.574427908 1112.00600563 121.717710312 1231 c 1
 46 1231 l 1
300 1231 m 1
 300 1491 l 1
 509 1491 l 1
 509 1301 l 2
 509 1153.1708016 509 1153.1708016 472.460969178 1079.00202262 c 0
 435.921938355 1004.83324364 435.921938355 1004.83324364 360.922460733 964.024704342 c 2
 338.721419904 951.944726243 l 1
 278.061174809 1066.7073521 l 1
 300.628062896 1078.26600209 l 2
 334.521335501 1095.62597099 334.521335501 1095.62597099 354.324609599 1133.54713415 c 0
 371.610088826 1166.64698799 371.610088826 1166.64698799 376.596975397 1231 c 1
 300 1231 l 1
EndSplineSet
EndChar

StartChar: quoteleft
Encoding: 8216 8216 181
Width: 373
GlyphClass: 1
Flags: W
LayerCount: 2
Fore
SplineSet
285 1220 m 1
 285 961 l 1
 77 961 l 1
 77 1151 l 2
 77 1297.8291984 77 1297.8291984 113.504661858 1371.92821351 c 0
 150.009323717 1446.02722863 150.009323717 1446.02722863 224.831017116 1487.83935141 c 2
 247.275589772 1500.38190672 l 1
 307.921440519 1384.00743637 l 1
 285.156051125 1372.62474167 l 2
 250.353250733 1355.22334148 250.353250733 1355.22334148 231.116175474 1318.8401774 c 0
 214.241898802 1286.92578456 214.241898802 1286.92578456 209.335766567 1220 c 1
 285 1220 l 1
EndSplineSet
EndChar

StartChar: quoteright
Encoding: 8217 8217 182
Width: 373
GlyphClass: 1
Flags: W
LayerCount: 2
Fore
SplineSet
73 1231 m 1
 73 1491 l 1
 282 1491 l 1
 282 1301 l 2
 282 1153.09343222 282 1153.09343222 244.925229582 1078.94389138 c 0
 207.850459165 1004.79435055 207.850459165 1004.79435055 132.922460733 964.024704342 c 2
 110.470024096 951.807937348 l 1
 51.3074986159 1066.84618134 l 1
 73.6380357508 1078.27110731 l 2
 139.574427908 1112.00600563 139.574427908 1112.00600563 148.717710312 1231 c 1
 73 1231 l 1
EndSplineSet
EndChar

StartChar: divide
Encoding: 247 247 183
Width: 1124
GlyphClass: 1
Flags: W
LayerCount: 2
Fore
SplineSet
434 897 m 1
 434 1152 l 1
 689 1152 l 1
 689 897 l 1
 434 897 l 1
1071 614 m 1
 53 614 l 1
 53 832 l 1
 1071 832 l 1
 1071 614 l 1
434 294 m 1
 434 549 l 1
 689 549 l 1
 689 294 l 1
 434 294 l 1
EndSplineSet
EndChar

StartChar: lozenge
Encoding: 9674 9674 184
Width: 1012
GlyphClass: 1
Flags: W
LayerCount: 2
Fore
SplineSet
423.236261054 -25 m 1
 18.4678842513 708.966187092 l 1
 423.196104233 1447 l 1
 563.323279618 1447 l 1
 996.000511422 708.964434745 l 1
 563.282410261 -25 l 1
 423.236261054 -25 l 1
825.057985166 709.010210299 m 1
 495.59153461 1274.33425916 l 1
 183.561799757 709.009798372 l 1
 495.591300878 144.603494875 l 1
 825.057985166 709.010210299 l 1
EndSplineSet
EndChar

StartChar: fraction
Encoding: 8260 8260 187
AltUni2: 002215.ffffffff.0 002215.ffffffff.0
Width: 301
GlyphClass: 1
Flags: W
LayerCount: 2
Fore
SplineSet
380.327754042 1765 m 1
 1145.37604198 1765 l 1
 -84.2289013783 -331 l 1
 -850.643017835 -331 l 1
 380.327754042 1765 l 1
EndSplineSet
EndChar

StartChar: currency
Encoding: 164 164 188
Width: 934
GlyphClass: 1
Flags: W
LayerCount: 2
Fore
SplineSet
651.235674535 340.036190508 m 1
 566.166170441 277 566.166170441 277 461.329167924 277 c 0
 356.492165406 277 356.492165406 277 269.908222351 340.212905982 c 1
 151.703586969 195.049318671 l 1
 25.7763358881 354.467859932 l 1
 142.273656656 493.447119796 l 1
 89 603.326043605 89 603.326043605 89 726 c 0
 89 848.63003078 89 848.63003078 142.235172907 957.598790641 c 1
 25.7763358881 1096.53214007 l 1
 151.634184912 1255.86282128 l 1
 269.850423656 1111.72196878 l 1
 355.384070374 1174 355.384070374 1174 461.318824176 1174 c 0
 567.253577978 1174 567.253577978 1174 651.293282885 1111.89718991 c 1
 769.262193005 1255.73647506 l 1
 896.292516746 1096.61428005 l 1
 779.764827093 957.598790641 l 1
 833 848.63003078 833 848.63003078 833 726 c 0
 833 603.326043605 833 603.326043605 779.726343344 493.447119796 c 1
 896.292516746 354.385719947 l 1
 769.192784548 195.17658172 l 1
 651.235674535 340.036190508 l 1
460 960 m 0
 386.42545429 960 386.42545429 960 329.212727145 893.847784239 c 0
 272 827.695568477 272 827.695568477 272 725.5 c 0
 272 623.304431523 272 623.304431523 329.212727145 557.152215761 c 0
 386.42545429 491 386.42545429 491 460 491 c 0
 533.57454571 491 533.57454571 491 590.787272855 557.152215761 c 0
 648 623.304431523 648 623.304431523 648 725.5 c 0
 648 827.695568477 648 827.695568477 590.787272855 893.847784239 c 0
 533.57454571 960 533.57454571 960 460 960 c 0
EndSplineSet
EndChar

StartChar: guilsinglleft
Encoding: 8249 8249 189
Width: 559
GlyphClass: 1
Flags: W
LayerCount: 2
Fore
SplineSet
318.435700415 47 m 1
 46.2751516104 526.973060877 l 1
 318.404145689 1009 l 1
 494.549148872 1009 l 1
 265.689414503 527.023508724 l 1
 494.623703279 47 l 1
 318.435700415 47 l 1
EndSplineSet
EndChar

StartChar: guilsinglright
Encoding: 8250 8250 190
Width: 559
GlyphClass: 1
Flags: W
LayerCount: 2
Fore
SplineSet
63.3387430103 1009 m 1
 239.548456292 1009 l 1
 511.72488642 530.053878767 l 1
 239.611566067 47 l 1
 63.4878544532 47 l 1
 292.310555555 529.952982049 l 1
 63.3387430103 1009 l 1
EndSplineSet
EndChar

StartChar: fi
Encoding: 61441 61441 191
AltUni2: 00fb01.ffffffff.0 00fb01.ffffffff.0
Width: 860
GlyphClass: 1
Flags: W
LayerCount: 2
Fore
SplineSet
1009 1740 m 1
 1009 -274 l 1
 -124 -274 l 1
 -124 649 l 1
 -255 649 l 1
 -255 1336 l 1
 -109.742446465 1336 l 1
 -82.0944761362 1486.72759164 -82.0944761362 1486.72759164 -0.641924724823 1587.22953008 c 0
 81.1677346127 1686.79032045 81.1677346127 1686.79032045 199.963071498 1731.82990736 c 0
 287.451714264 1765 287.451714264 1765 390.258689468 1765 c 0
 493.065664673 1765 493.065664673 1765 587.872591311 1740 c 1
 1009 1740 l 1
EndSplineSet
EndChar

StartChar: fl
Encoding: 61442 61442 192
AltUni2: 00fb02.ffffffff.0 00fb02.ffffffff.0
Width: 860
GlyphClass: 1
Flags: W
LayerCount: 2
Fore
SplineSet
1007 1740 m 1
 1007 -274 l 1
 -125 -274 l 1
 -125 649 l 1
 -256 649 l 1
 -256 1336 l 1
 -110.742436686 1336 l 1
 -83.0943750347 1486.72770993 -83.0943750347 1486.72770993 -1.64135337871 1587.23022859 c 0
 80.1702644259 1686.79097511 80.1702644259 1686.79097511 198.96852755 1731.83027028 c 0
 286.458934862 1765 286.458934862 1765 389.26836551 1765 c 0
 492.077796158 1765 492.077796158 1765 586.887262933 1740 c 1
 1007 1740 l 1
EndSplineSet
EndChar

StartChar: daggerdbl
Encoding: 8225 8225 193
Width: 934
GlyphClass: 1
Flags: W
LayerCount: 2
Fore
SplineSet
559 -1 m 1
 559 -371 l 1
 362 -371 l 1
 362 -1 l 1
 32 -1 l 1
 32 210 l 1
 362 210 l 1
 362 885 l 1
 32 885 l 1
 32 1096 l 1
 362 1096 l 1
 362 1471 l 1
 559 1471 l 1
 559 1096 l 1
 890 1096 l 1
 890 885 l 1
 559 885 l 1
 559 210 l 1
 890 210 l 1
 890 -1 l 1
 559 -1 l 1
EndSplineSet
EndChar

StartChar: periodcentered
Encoding: 8729 8729 194
Width: 467
GlyphClass: 1
Flags: W
LayerCount: 2
Fore
SplineSet
130 594 m 1
 130 849 l 1
 348 849 l 1
 348 594 l 1
 130 594 l 1
EndSplineSet
EndChar

StartChar: quotesinglbase
Encoding: 8218 8218 195
Width: 373
GlyphClass: 1
Flags: W
LayerCount: 2
Fore
SplineSet
73 -25 m 1
 73 234 l 1
 282 234 l 1
 282 44 l 2
 282 -102.906567783 282 -102.906567783 244.959945733 -176.986676317 c 0
 207.919891466 -251.066784851 207.919891466 -251.066784851 133.168982884 -292.839351411 c 2
 110.472242066 -305.522824222 l 1
 51.4351296035 -189.088519088 l 1
 73.6380357508 -177.728892687 l 2
 139.574427908 -143.993994374 139.574427908 -143.993994374 148.717710312 -25 c 1
 73 -25 l 1
EndSplineSet
EndChar

StartChar: quotedblbase
Encoding: 8222 8222 196
Width: 559
GlyphClass: 1
Flags: W
LayerCount: 2
Fore
SplineSet
46 -25 m 1
 46 234 l 1
 255 234 l 1
 255 44 l 2
 255 -102.906567783 255 -102.906567783 217.959945733 -176.986676317 c 0
 180.919891466 -251.066784851 180.919891466 -251.066784851 106.168982884 -292.839351411 c 2
 83.4722420656 -305.522824222 l 1
 24.4351296035 -189.088519088 l 1
 46.6380357508 -177.728892687 l 2
 112.574427908 -143.993994374 112.574427908 -143.993994374 121.717710312 -25 c 1
 46 -25 l 1
300 -25 m 1
 300 234 l 1
 509 234 l 1
 509 44 l 2
 509 -102.829198398 509 -102.829198398 472.495338142 -176.928213514 c 0
 435.990676283 -251.02722863 435.990676283 -251.02722863 361.168982884 -292.839351411 c 2
 338.724410228 -305.381906719 l 1
 278.192214038 -189.225530248 l 1
 300.628062896 -177.733997906 l 2
 334.521335501 -160.374029011 334.521335501 -160.374029011 354.324609599 -122.452865846 c 0
 371.610088826 -89.3530120052 371.610088826 -89.3530120052 376.596975397 -25 c 1
 300 -25 l 1
EndSplineSet
EndChar

StartChar: perthousand
Encoding: 8240 8240 197
Width: 1679
GlyphClass: 1
Flags: W
LayerCount: 2
Fore
SplineSet
897.224378909 1516 m 1
 388.269686353 -79 l 1
 227.775621091 -79 l 1
 736.730313647 1516 l 1
 897.224378909 1516 l 1
76.7402344025 785.857294952 m 0
 5 884.901648418 5 884.901648418 5 1095.49743613 c 0
 5 1306.09322384 5 1306.09322384 75.2347534433 1403.13513509 c 0
 148.236396005 1504 148.236396005 1504 264.463822634 1504 c 0
 380.691249263 1504 380.691249263 1504 454.69751662 1402.72826572 c 0
 526 1305.15644636 526 1305.15644636 526 1092.02032259 c 0
 526 878.884198828 526 878.884198828 456.241097624 782.831556326 c 0
 383.737732695 683 383.737732695 683 267.490003882 683 c 0
 151.24227507 683 151.24227507 683 76.7402344025 785.857294952 c 0
177 1091 m 0
 177 1009.96653442 177 1009.96653442 185.282051356 964.932880171 c 0
 193.564102711 919.899225924 193.564102711 919.899225924 205.27993339 900.128761654 c 0
 216.995764069 880.358297384 216.995764069 880.358297384 232.894997764 869.179148692 c 0
 248.794231459 858 248.794231459 858 269.388921481 858 c 0
 289.983611502 858 289.983611502 858 302.440722182 867.06322294 c 0
 314.897832862 876.126445881 314.897832862 876.126445881 324.182187048 892.210512668 c 0
 355 949 355 949 355 1093 c 0
 355 1174.61830096 355 1174.61830096 346.696694157 1220.36432658 c 0
 338.393388315 1266.11035221 338.393388315 1266.11035221 326.326220181 1287.03934694 c 0
 301.556113912 1330 301.556113912 1330 264 1330 c 0
 244.383829973 1330 244.383829973 1330 231.307001558 1320.43634937 c 0
 177 1280.71928853 177 1280.71928853 177 1091 c 0
671.740234402 23.8572949518 m 0
 600 122.901648418 600 122.901648418 600 333.51558169 c 0
 600 544.129514962 600 544.129514962 670.273591445 640.688648246 c 0
 743.277964111 741 743.277964111 741 859.484606687 741 c 0
 975.691249263 741 975.691249263 741 1049.69751662 639.728265723 c 0
 1121 542.15644636 1121 542.15644636 1121 329.00194348 c 0
 1121 115.8474406 1121 115.8474406 1051.20169024 20.2774472307 c 0
 978.695689449 -79 978.695689449 -79 862.46898226 -79 c 0
 746.24227507 -79 746.24227507 -79 671.740234402 23.8572949518 c 0
867 95 m 0
 899.341304102 95 899.341304102 95 922.668164909 136.682423409 c 0
 934.147209648 157.19415909 934.147209648 157.19415909 942.073604824 202.959345663 c 0
 950 248.724532235 950 248.724532235 950 330.668265618 c 0
 950 412.611999001 950 412.611999001 941.702793892 458.194775056 c 0
 933.405587784 503.77755111 933.405587784 503.77755111 921.583273785 524.097153296 c 0
 909.760959786 544.416755483 909.760959786 544.416755483 894.486474403 555.708377741 c 0
 879.211989021 567 879.211989021 567 859.047451877 567 c 0
 838.882914734 567 838.882914734 567 826.020073869 557.67346886 c 0
 813.157233005 548.34693772 813.157233005 548.34693772 803.8786731 531.900533706 c 0
 772.000002514 473.42653177 772.000002514 473.42653177 772 328 c 0
 772 246.931463537 772 246.931463537 780.160110207 201.856569059 c 0
 788.320220414 156.781674582 788.320220414 156.781674582 799.8277956 137.054402835 c 0
 811.335370786 117.327131087 811.335370786 117.327131087 827.27446159 106.163565544 c 0
 843.213552394 95 843.213552394 95 867 95 c 0
1224.7402344 23.8572949518 m 0
 1153 122.901648418 1153 122.901648418 1153 333.51558169 c 0
 1153 544.129514962 1153 544.129514962 1223.27359145 640.688648246 c 0
 1296.27796411 741 1296.27796411 741 1412.48460669 741 c 0
 1528.69124926 741 1528.69124926 741 1602.69751662 639.728265723 c 0
 1674 542.15644636 1674 542.15644636 1674 329.00194348 c 0
 1674 115.8474406 1674 115.8474406 1604.20169024 20.2774472307 c 0
 1531.69568945 -79 1531.69568945 -79 1415.46898226 -79 c 0
 1299.24227507 -79 1299.24227507 -79 1224.7402344 23.8572949518 c 0
1325 328 m 0
 1325 246.966534418 1325 246.966534418 1333.28205136 201.932880171 c 0
 1341.56410271 156.899225924 1341.56410271 156.899225924 1353.27993339 137.128761654 c 0
 1364.99576407 117.358297384 1364.99576407 117.358297384 1380.89499776 106.179148692 c 0
 1396.79423146 95 1396.79423146 95 1420 95 c 0
 1452.3413041 95 1452.3413041 95 1475.66816491 136.682423409 c 0
 1487.14720965 157.19415909 1487.14720965 157.19415909 1495.07360482 202.959345663 c 0
 1503 248.724532235 1503 248.724532235 1503 330.668265618 c 0
 1503 412.611999001 1503 412.611999001 1494.70279389 458.194775056 c 0
 1486.40558778 503.77755111 1486.40558778 503.77755111 1474.37538179 524.454467668 c 0
 1449.62161752 567 1449.62161752 567 1412 567 c 0
 1392.24893404 567 1392.24893404 567 1379.18478236 557.640607746 c 0
 1366.12063067 548.281215492 1366.12063067 548.281215492 1356.87838953 531.900020359 c 0
 1325 473 1325 473 1325 328 c 0
EndSplineSet
EndChar

StartChar: dotlessi
Encoding: 305 305 213
Width: 517
GlyphClass: 1
Flags: W
LayerCount: 2
Fore
SplineSet
363 0 m 1,0,-1
 166 0 l 1,1,2
 166 531 166 531 166 1062 c 1,3,-1
 363 1062 l 1,4,5
 363 531 363 531 363 0 c 1,0,-1
EndSplineSet
EndChar

StartChar: circumflex
Encoding: 710 710 214
Width: 559
GlyphClass: 1
Flags: W
LayerCount: 2
Fore
SplineSet
203.898112365 1169 m 1
 -25.378763445 1169 l 1
 183.228379412 1499 l 1
 368.484594927 1499 l 1
 585.341737784 1169 l 1
 357.02437335 1169 l 1
 280.87962062 1311.24843917 l 1
 203.898112365 1169 l 1
EndSplineSet
EndChar

